<?xml version="1.0" encoding="UTF-8" standalone="no"?>
<!-- Created with Inkscape (http://www.inkscape.org/) -->

<svg
   xmlns:dc="http://purl.org/dc/elements/1.1/"
   xmlns:cc="http://creativecommons.org/ns#"
   xmlns:rdf="http://www.w3.org/1999/02/22-rdf-syntax-ns#"
   xmlns:svg="http://www.w3.org/2000/svg"
   xmlns="http://www.w3.org/2000/svg"
   xmlns:xlink="http://www.w3.org/1999/xlink"
   xmlns:sodipodi="http://sodipodi.sourceforge.net/DTD/sodipodi-0.dtd"
   xmlns:inkscape="http://www.inkscape.org/namespaces/inkscape"
   width="744.09448"
   height="1052.3622"
   id="svg2"
   version="1.1"
   inkscape:version="0.48.4 r9939"
   sodipodi:docname="Vorderseite.svg"
   enable-background="new">
  <defs
     id="defs4">
    <filter
       inkscape:collect="always"
       id="filter4392">
      <feBlend
         inkscape:collect="always"
         mode="darken"
         in2="BackgroundImage"
         id="feBlend4394" />
    </filter>
  </defs>
  <sodipodi:namedview
     id="base"
     pagecolor="#ffffff"
     bordercolor="#666666"
     borderopacity="1.0"
     inkscape:pageopacity="1"
     inkscape:pageshadow="2"
     inkscape:zoom="0.98994949"
     inkscape:cx="351.04186"
     inkscape:cy="379.10492"
     inkscape:document-units="mm"
     inkscape:current-layer="g4409"
     showgrid="false"
     units="mm"
     showguides="true"
     inkscape:guide-bbox="true"
     inkscape:window-width="1680"
     inkscape:window-height="1026"
     inkscape:window-x="1280"
     inkscape:window-y="24"
     inkscape:window-maximized="1">
    <sodipodi:guide
       orientation="0,1"
       position="0,524.40945"
       id="guide2985" />
    <sodipodi:guide
       orientation="1,0"
       position="726.37795,524.40945"
       id="guide6323" />
    <sodipodi:guide
       orientation="1,0"
       position="17.716535,439.41636"
       id="guide6325" />
    <sodipodi:guide
       orientation="0,1"
       position="-100.0051,17.716535"
       id="guide6327" />
  </sodipodi:namedview>
  <metadata
     id="metadata7">
    <rdf:RDF>
      <cc:Work
         rdf:about="">
        <dc:format>image/svg+xml</dc:format>
        <dc:type
           rdf:resource="http://purl.org/dc/dcmitype/StillImage" />
        <dc:title />
      </cc:Work>
    </rdf:RDF>
  </metadata>
  <g
     inkscape:groupmode="layer"
     id="layer2"
     inkscape:label="Background"
     style="display:inline;filter:url(#filter4392)"
     sodipodi:insensitive="true">
    <rect
       style="opacity:0.18769232;color:#000000;fill:#d0dde8;fill-opacity:1;fill-rule:nonzero;stroke:none;stroke-width:0;marker:none;visibility:visible;display:inline;overflow:visible;enable-background:accumulate"
       id="rect4381"
       width="744.09448"
       height="524.40942"
       x="0"
       y="527.95276" />
    <path
       style="fill:#e2e7eb;fill-opacity:1"
       d="m 125.25,661.34375 c -3.73339,0.0718 -8.28842,0.46143 -14.09375,1.125 -15.321827,1.75134 -26.682263,4.33268 -35.40625,8.0625 l -4,1.71875 -3.28125,-1.96875 C 55.990534,662.7112 38.790354,664.06843 17.875,674.25 7.7811918,679.16367 2.9469439,683.81365 0,692.3125 l 0,46.03125 c 8.2531708,-10.58343 25.334761,-23.76999 33.625,-25.5 3.750204,-0.7826 8.604938,-3.73391 11.5,-7.03125 2.200212,-2.50588 2.171703,-3.22369 -0.125,-5.15625 l -1.84375,-1.5625 -7.1875,0.40625 c -6.581465,0.3796 -7.193367,0.33701 -7.5625,-0.625 -0.571841,-1.49023 3.078162,-4.4695 8.84375,-7.25 10.351018,-4.9919 15.665327,-4.53945 26.25,2.34375 3.800841,2.47171 10.932793,4.6699 15.0625,4.625 1.310748,-0.0143 4.976723,-0.50064 8.15625,-1.09375 7.078901,-1.3205 8.967229,-0.926 15.5625,3.40625 7.68576,5.04854 9.041,7.42284 8.5625,14.9375 -0.20848,3.27351 -0.48567,4.01693 -2,5.53125 -1.16945,1.1695 -2.09139,1.62774 -2.75,1.375 -0.89931,-0.34509 -5.0625,-8.18267 -5.0625,-9.53125 0,-0.85617 -6.708931,-5.4458 -11.375,-7.78125 -9.541902,-4.77589 -17.75,-5.129 -17.75,-0.75 0,1.82326 1.607765,3.31583 7.03125,6.53125 5.594046,3.31655 6.776986,5.00145 4.65625,6.71875 -1.882939,1.52469 -3.194375,1.13553 -9.59375,-2.96875 -5.546438,-3.55726 -8.348483,-4.69502 -15.375,-6.15625 -8.169391,-1.69891 -11.889914,-0.89463 -18.375,3.90625 -4.640258,3.4352 -10.953666,11.23313 -11.78125,14.5625 -0.540964,2.1763 -0.794912,2.47526 -2.03125,2.3125 -0.78027,-0.10272 -3.572361,-0.22375 -6.1875,-0.28125 -4.427635,-0.0974 -4.924803,0.0235 -7.25,1.65625 -3.3584688,2.35833 -5.0369342,5.81897 -5.6875,11.75 -0.6158377,5.61473 -1.9140629,8.1114 -5.21875,9.96875 -0.8746926,0.4916 -1.52846031,0.81225 -2.09375,1 l 0,134.40625 c 2.2256441,3.01581 5.5,7.70408 5.5,8 0,0.19983 -2.2872823,2.09584 -5.5,4.59375 l 0,151.6875 328.3125,0 c -3.16921,-7.2424 -7.89804,-14.3137 -12.6875,-18.7812 -10.30056,-9.6086 -30.14102,-20.257 -73.875,-39.6563 -23.65851,-10.49443 -27.09375,-12.18651 -27.09375,-13.25 0,-0.91486 8.03063,-18.99526 16.1875,-36.46875 2.24403,-4.80713 4.6342,-10.55302 5.3125,-12.75 1.426,-4.61836 1.59813,-10.02237 0.40625,-12.875 -2.19625,-5.25628 -10.18629,-11.19447 -27.4375,-20.375 -5.76856,-3.06984 -10.67388,-5.56214 -10.90625,-5.5625 -1.18862,-0.002 5.35981,-10.87532 6.90625,-11.46875 0.3823,-0.14669 4.06951,0.82515 8.1875,2.15625 8.59959,2.77975 15.27628,3.56508 19.75,2.3125 5.3361,-1.49401 13.07728,-8.80762 16.53125,-15.625 4.6487,-9.17563 4.728,-26.18165 0.1875,-36.375 -1.43743,-3.22702 -5.87813,-8.09241 -10.65625,-11.625 -2.37869,-1.75865 -2.28515,-3.41131 0.8125,-13.125 3.22311,-10.10711 3.51441,-12.26992 2.71875,-21.1875 -2.36587,-26.51527 -7.98626,-41.53062 -17.21875,-46 -1.43504,-0.69471 -2.625,-1.44688 -2.625,-1.6875 0,-0.24063 0.54655,-2.4939 1.1875,-5 2.21665,-8.66705 1.09787,-17.85453 -3.25,-27.03125 -4.5793,-9.66519 -12.47585,-18.07175 -20.96875,-22.28125 -4.89908,-2.42818 -5.3369,-2.53125 -10.40625,-2.53125 -4.33947,0 -5.7551,0.22789 -7.90625,1.3125 -2.02832,1.02269 -2.74239,1.16569 -3.09375,0.59375 -0.24985,-0.40665 -1.28045,-2.18736 -2.3125,-3.9375 -1.05804,-1.79416 -2.98042,-3.93909 -4.40625,-4.9375 -2.2925,-1.60526 -2.95373,-1.7691 -7,-1.75 -3.89454,0.0184 -4.93434,0.24232 -8.21875,1.9375 -2.50764,1.29424 -3.84628,1.71122 -4,1.25 -0.58985,-1.76952 -7.38726,-9.51849 -10.21875,-11.65625 -4.54211,-3.42935 -8.7553,-4.8142 -16.96875,-4.65625 z m 37.65625,32.1875 c 0.27165,9.5e-4 0.48841,0.0125 0.6875,0.0625 1.81914,0.45657 2.11499,2.43633 0.4375,2.96875 -1.64479,0.52205 -9.27343,8.73598 -12.46875,13.4375 -4.14265,6.09533 -5.75703,13.52882 -3.40625,15.65625 1.02389,0.92661 1.37021,0.88498 5.96875,-0.4375 6.54324,-1.88173 14.30272,-2.96695 17.625,-2.46875 8.3576,1.2533 17.31678,9.33654 15.75,14.1875 -0.18226,0.56435 -0.43098,1.34921 -0.5625,1.78125 -0.16927,0.55616 -0.81507,0.29496 -2.21875,-0.9375 -2.81436,-2.47103 -7.3168,-3.83957 -11.40625,-3.46875 -3.47926,0.31549 -6.21768,1.48177 -10.875,4.625 -2.31762,1.56412 -3.49255,1.93369 -6.625,2.09375 -3.31389,0.16932 -4.06629,0.006 -5.96875,-1.3125 -2.65104,-1.83781 -3.62823,-3.63418 -4.46875,-8.1875 -0.56042,-3.0357 -1.02203,-3.84119 -3.5,-6.21875 -3.90159,-3.74353 -5.14669,-7.09988 -4.25,-11.375 0.96282,-4.59026 3.10332,-8.85756 5.71875,-11.4375 3.76377,-3.71264 15.48782,-8.98295 19.5625,-8.96875 z m -82.5625,34.5625 c 4.095619,0.0277 5.854015,0.43608 14.375,3.34375 11.0944,3.7858 11.92829,3.84535 26.5625,2.4375 7.43771,-0.71556 9.24595,-0.71266 11.40625,-0.0625 5.0877,1.53118 11.25714,7.00257 13.8125,12.28125 2.19671,4.53784 2.4681,8.67827 1.15625,16.71875 -0.64427,3.94849 -1.1562,7.86435 -1.15625,8.6875 -2.4e-4,3.20937 1.95183,7.709 5.9375,13.75 5.46906,8.2893 6.87635,11.38721 6.84375,15.03125 -0.0291,3.26851 -1.54563,7.77078 -2.90625,8.625 -0.65703,0.4125 -1.66611,0.0601 -3.78125,-1.28125 -6.89448,-4.37234 -15.99565,-5.5162 -24.15625,-3.03125 -6.00233,1.82775 -14.1932,5.93373 -18.28125,9.15625 -4.03217,3.17842 -5.35173,5.72944 -6.25,12.1875 -0.74519,5.35791 -0.42866,8.07544 1.9375,17.78125 1.59859,6.5573 1.73722,7.84791 1.40625,13.09375 -1.18127,18.72552 -1.20886,17.9128 0.15625,23.4375 1.06748,4.32038 1.20481,5.64143 0.6875,7.5625 -1.28446,4.77015 -6.08414,7.49576 -10.1875,5.78125 -2.262733,-0.94542 -2.926596,-1.93881 -3.53125,-5.28125 -0.785981,-4.34477 -3.362493,-7.91125 -5.71875,-7.90625 -0.762558,0.002 -2.818382,1.35619 -4.90625,3.21875 -1.974249,1.76117 -3.725502,3.1875 -3.90625,3.1875 -0.180749,0 -0.743006,-0.80087 -1.25,-1.78125 -0.777704,-1.50399 -1.214537,-1.74574 -2.78125,-1.59375 -1.380377,0.13392 -2.060524,0.62614 -2.65625,1.875 -1.18559,2.48537 -0.07574,5.48466 3.09375,8.40625 3.585308,3.30479 4.949062,3.52478 10.1875,1.65625 3.95904,-1.41215 4.47272,-1.45219 5.6875,-0.65625 0.732662,0.48007 1.901811,1.98751 2.59375,3.34375 2.212329,4.33651 4.818322,5.34626 7.8125,3.0625 2.29787,-1.75267 4.17239,-1.86463 10.46875,-0.5625 5.36762,1.11004 6.56141,0.77416 8.6875,-2.59375 0.80253,-1.27135 2.14876,-2.7914 3,-3.375 2.43876,-1.67203 4.89787,-4.38634 6.125,-6.75 0.92746,-1.78648 1.01362,-2.58593 0.5625,-4.59375 -0.30177,-1.34319 -1.01112,-3.02917 -1.59375,-3.75 -4.80871,-5.94945 -4.42794,-4.91692 -4.9375,-13.25 -0.25836,-4.22516 -0.95488,-9.90096 -1.5625,-12.625 -1.24036,-5.56104 -1.00648,-6.4375 1.875,-6.4375 2.18407,0 4.43714,-1.39978 4.4375,-2.78125 1.7e-4,-0.54266 -1.74005,-2.56462 -3.875,-4.5 -3.39349,-3.07625 -3.83259,-3.70619 -3.5,-5.03125 0.23838,-0.94986 1.41795,-2.20824 3.1875,-3.34375 3.99365,-2.56273 4.78125,-2.41798 4.78125,0.84375 0,4.49236 2.42493,8.11497 6.5625,9.84375 6.94279,2.90089 14.39933,-2.49898 14.625,-10.59375 0.0755,-2.7073 0.5479,-2.97667 2.71875,-1.53125 3.23878,2.15653 3.59321,3.82437 1.65625,7.5 -1.28621,2.44075 -4.23186,5.85652 -5.8125,6.71875 -0.51323,0.27996 -2.82995,0.88995 -5.15625,1.375 -6.24392,1.30189 -7.51085,2.83012 -3.8125,4.59375 2.37205,1.13115 2.41205,1.30412 0.875,3.625 -1.52104,2.29665 -1.49449,3.88671 0.15625,5.4375 1.87262,1.75925 3.69452,1.58288 8.34375,-0.78125 4.09882,-2.08421 6.28937,-3.79041 9.125,-7.1875 1.3982,-1.67506 1.59375,-2.43146 1.59375,-5.84375 0,-3.94894 1.70911,-8.77197 3.28125,-9.25 1.48468,-0.45145 3.69693,2.46673 4.28125,5.625 0.96387,5.20967 0.69688,8.85322 -1.21875,15.53125 -1.611,5.61616 -1.90462,7.64469 -2.3125,17.15625 -0.29338,6.8401 -0.79746,12.06284 -1.40625,14.28125 -1.88859,6.88188 -12.164,24.57286 -17.96875,30.9375 l -3.40625,3.71875 -3.71875,0 c -4.52378,0 -5.5,-0.98782 -5.5,-5.5625 0,-3.48135 -1.85985,-6.8526 -3.96875,-7.15625 -0.72329,-0.10414 -3.05043,0.60831 -5.15625,1.59375 -2.10588,0.98546 -4.25637,1.8135 -4.78125,1.8125 -0.52482,-10e-4 -2.51464,-1.06361 -4.4375,-2.34375 -6.08834,-4.05331 -8.67218,-3.86582 -13.40625,0.90625 -4.215713,4.2495 -5.225743,4.20159 -9.53125,-0.28125 -4.881195,-5.08219 -7.275915,-5.3032 -12.03125,-1.1875 -3.209417,2.77773 -4.946067,2.94514 -9.03125,0.875 -3.549122,-1.79846 -5.306902,-1.34847 -6.90625,1.84375 -1.900245,3.79274 -1.929776,5.00174 -0.28125,6.21875 1.458166,1.07646 1.462281,1.08127 3.96875,-0.71875 1.387657,-0.99656 2.6879,-1.8125 2.875,-1.8125 0.187038,0 1.94728,1.18286 3.90625,2.625 1.95898,1.44214 4.108137,2.59375 4.78125,2.59375 0.673119,0 3.264622,-0.71341 5.75,-1.59375 4.502742,-1.59493 4.519153,-1.57681 7.375,-0.5625 4.023308,1.42893 6.383195,1.25779 11.4375,-0.75 5.09574,-2.02423 7.22479,-2.15462 10.59375,-0.625 3.4866,1.58303 4.64851,3.54298 3.78125,6.4375 -0.8238,2.74973 -3.37038,5.01717 -6.65625,5.90625 -2.12056,0.57379 -3.47102,0.43442 -9.96875,-1.03125 -6.194274,-1.39723 -8.173564,-1.62333 -11.375,-1.28125 -9.063814,0.96846 -11.62668,5.14184 -5,8.15625 2.896515,1.3176 5.001953,1.36036 11.5625,0.15625 4.15121,-0.76191 5.92911,-0.84226 8.9375,-0.34375 7.91855,1.31215 11.25,4.30461 11.25,10.125 0,4.04923 -1.84098,7.66053 -5.1875,10.21875 -4.12079,3.15009 -6.94495,3.65625 -20.4375,3.65625 l -12,0 -4.0625,-1.96875 c -7.076854,-3.43434 -17.691959,-11.65871 -30.65625,-23.71875 -9.073891,-8.441 -10.034623,-7.84032 -4.8125,2.96875 4.799561,9.93438 9.754019,17.03472 16.15625,23.09375 13.51749,12.7929 24.228206,18.12784 39.0625,19.4375 3.481064,0.30734 6.68024,0.84967 7.125,1.21875 1.9676,1.63301 0.46546,5.66643 -5.1875,13.84375 -3.807893,5.50835 -13.537707,15.73155 -17.21875,18.09375 -4.358932,2.7971 -6.02741,2.4067 -14.15625,-3.2188 -16.565564,-11.46385 -27.732929,-24.81585 -37.0625,-44.3437 -3.801425,-7.95682 -3.974616,-11.50274 -1.03125,-22.65625 1.176027,-4.45658 3.174478,-11.06794 4.4375,-14.71875 l 2.3125,-6.65625 -2.875,-6.1875 c -4.980831,-10.74809 -8.357764,-23.64501 -8.09375,-30.90625 0.24426,-6.71705 -1.225698,-7.5325 -4.75,-2.625 -2.582626,3.59621 -3.346246,3.8787 -6.53125,2.5 -3.1815078,-1.37719 -4.3323358,-3.4284 -5.15625,-9.125 C 5.3383957,867.32602 6.188888,863.95321 10.375,861.5 c 1.459796,-0.8555 3.218877,-2.52478 3.9375,-3.6875 1.561591,-2.52675 1.607491,-3.34271 0.875,-31.59375 -0.381949,-14.72874 -0.340702,-20.1465 0.1875,-22.125 0.384979,-1.44214 2.470723,-6.56787 4.65625,-11.375 4.873385,-10.71901 5.504779,-12.84909 5,-17.5625 -0.478911,-4.47224 0.55537,-13.68318 2.125,-18.8125 4.030538,-13.17091 13.615028,-22.47729 26.125,-25.34375 5.268213,-1.20712 21.472356,-2.94405 27.0625,-2.90625 z m 92.71875,18.21875 c 1.327,0.0818 2.86094,0.52187 7.5,1.9375 5.42851,1.6565 6.02037,1.989 9.375,5.34375 3.9292,3.9294 6.8674,9.33718 8.9375,16.40625 1.26855,4.33134 1.45713,5.7013 1.3125,9.1875 -0.0768,1.8514 -0.29542,2.15825 -1.40625,2.15625 -3.50362,-0.006 -7.80829,-4.66327 -12.6875,-13.78125 -3.98439,-7.44589 -6.10777,-10.22233 -11.375,-14.78125 -3.00309,-2.5993 -4.34375,-4.15341 -4.34375,-5.0625 0,-0.95325 0.36104,-1.3249 1.3125,-1.375 0.50914,-0.0268 0.93267,-0.0585 1.375,-0.0312 z m 23,51.5625 c 3.67737,-0.34534 8.31506,2.33217 10.8125,6.59375 2.16018,3.68602 1.57087,5.1935 -2.59375,6.59375 -5.97902,2.01031 -10.15305,7.83359 -10.21875,14.28125 -0.0426,4.18033 1.11588,6.89713 4.375,10.15625 7.15284,7.15287 16.6038,6.92125 22.5625,-0.5625 4.74059,-5.95396 6.30448,-6.06465 9.25,-0.6875 1.37985,2.51903 2.10063,4.69511 2.3125,7.03125 0.30672,3.38315 0.32292,3.36891 -2.09375,5.4375 -1.33936,1.1464 -4.05247,2.59257 -6.0625,3.25 -5.13524,1.67967 -9.39106,2.00861 -13.4375,1 -4.54679,-1.13332 -10.85749,-4.53126 -14.4375,-7.75 -7.55827,-6.79553 -13.6962,-20.57966 -12.21875,-27.46875 1.51818,-7.07903 5.9154,-15.07515 9.40625,-17.125 0.70736,-0.41536 1.49513,-0.67031 2.34375,-0.75 z M 55.125,803.46875 c -10.034362,0.27856 -19.804447,3.92314 -25.34375,9.90625 -3.868554,4.17854 -5.675561,8.47377 -6.09375,14.46875 l -0.28125,4.25 2.53125,2.34375 c 2.346934,2.16684 2.755643,2.31805 5.4375,2.15625 l 2.875,-0.15625 1.875,3.78125 c 2.386087,4.86996 4.110673,6.46878 7.4375,6.84375 2.24776,0.25336 2.834301,0.0719 4.125,-1.21875 1.690423,-1.69046 1.960476,-3.3125 0.5625,-3.3125 -2.870877,0 -6.639872,-5.76556 -5.84375,-8.9375 0.561883,-2.23872 3.611496,-5.15666 5.15625,-4.9375 1.250493,0.17742 1.334549,0.40384 1.15625,3.96875 -0.181389,3.62599 -0.101557,3.9142 1.90625,6.25 2.493477,2.90075 7.625602,5.11347 10.5625,4.5625 2.354387,-0.44169 6.774959,-4.31458 8.09375,-7.09375 0.720614,-1.51804 0.914515,-2.92712 0.6875,-4.84375 -0.439926,-3.71446 0.131277,-4.48894 2.40625,-3.3125 0.975646,0.50454 2.308455,1.62936 2.96875,2.46875 1.117881,1.42115 1.147036,1.64005 0.34375,3.5625 -0.47442,1.13547 -1.80058,3.38629 -2.9375,4.96875 -2.424026,3.37413 -2.042766,4.53125 1.5,4.53125 1.782602,0 2.758022,-0.4969 5.125,-2.625 4.093816,-3.6807 4.971485,-3.55038 4.65625,0.71875 -0.196539,2.6617 -0.742113,4.19717 -2.71875,7.4375 -2.209066,3.62128 -2.450044,4.34797 -2.15625,6.59375 0.377227,2.88386 3.541786,9.28361 6.21875,12.53125 2.163736,2.62501 3.458747,2.5499 4.40625,-0.21875 1.021152,-2.9841 0.9294,-5.80675 -0.46875,-14.25 l -1.25,-7.59375 1.75,-8.3125 c 1.636754,-7.79987 1.710519,-8.57908 1,-11.96875 -1.14981,-5.48517 -1.623902,-6.34222 -5.25,-9.65625 -6.523659,-5.96228 -14.801229,-10.79911 -20.46875,-12 -3.258801,-0.69051 -6.623963,-0.9991 -9.96875,-0.90625 z m -3.90625,5.90625 c 2.229133,-0.0685 4.031349,0.28963 6.46875,1.125 6.62703,2.27124 10.71875,6.03764 10.71875,9.84375 0,2.18172 -0.282621,2.21148 -3.03125,0.34375 -1.316515,-0.89457 -2.947179,-1.46875 -4.25,-1.46875 l -2.125,0 0.375,2.34375 0.40625,2.34375 -2.8125,0 c -1.550404,0.004 -4.268637,0.40189 -6.03125,0.875 -1.762618,0.4731 -3.26363,0.83975 -3.34375,0.84375 -0.08013,0.004 -0.15625,-0.90958 -0.15625,-2.03125 0,-1.90043 -0.128155,-2.03125 -1.84375,-2.03125 -1.43585,0 -2.567118,0.71931 -5.1875,3.21875 -3.847052,3.66941 -5.623874,4.04133 -7.5,1.65625 -1.333703,-1.69555 -1.198157,-3.10978 0.625,-6.75 2.630112,-5.25128 7.223335,-8.67011 13,-9.71875 1.857083,-0.33712 3.35002,-0.55264 4.6875,-0.59375 z m 91.84375,3.6875 c 1.01779,-0.01 1.97271,0.18284 3.46875,0.5625 4.75416,1.20652 7.25209,2.524 9.34375,4.90625 1.598,1.82001 1.78688,2.35714 1.53125,4.625 -0.15983,1.41806 -0.50465,2.76789 -0.78125,3 -0.27654,0.23211 -1.86775,-0.95412 -3.53125,-2.65625 -1.78645,-1.82792 -3.54619,-3.09375 -4.28125,-3.09375 -1.08315,0 -1.22629,0.28579 -1.0625,2.1875 0.21397,2.48312 0.17665,2.47965 -4.125,1.125 -4.38994,-1.38243 -6.27206,-1.24076 -11.8125,0.78125 -5.11712,1.86749 -6.28125,1.85285 -6.28125,0.0312 0,-2.25831 0.79969,-3.11783 4.4375,-4.75 2.68384,-1.20416 3.71875,-1.9702 3.71875,-2.78125 0,-1.63905 1.06695,-2.2844 5.5,-3.3125 1.76862,-0.41019 2.85721,-0.61548 3.875,-0.625 z m -84.15625,13.96875 c 0.471312,0.0248 0.957057,0.15132 1.375,0.375 1.423732,0.76196 1.528563,3.81751 0.21875,5.6875 -2.276197,3.24971 -6.422929,-0.21793 -4.9375,-4.125 0.472895,-1.24378 1.929815,-2.01197 3.34375,-1.9375 z m 80.375,0.5625 c 0.98988,-0.084 2.05823,0.56432 2.9375,1.90625 0.74018,1.12963 0.81302,1.74518 0.3125,2.84375 -0.35008,0.76829 -1.1848,1.67858 -1.84375,2.03125 -0.99447,0.53221 -1.45045,0.39333 -2.65625,-0.8125 -1.72159,-1.72161 -1.81901,-3.248 -0.375,-5.03125 0.48202,-0.59529 1.03107,-0.88708 1.625,-0.9375 z m -22.59375,51 1.65625,0.84375 c 2.26442,1.17097 3.47601,2.66993 3.9375,4.84375 0.4218,1.98687 -0.6521,5.24732 -2.125,6.46875 -0.48077,0.3987 -1.70774,0.89155 -2.71875,1.09375 -1.61165,0.32232 -1.8125,0.20472 -1.8125,-0.90625 0,-0.69693 0.39319,-2.07036 0.90625,-3.0625 0.72118,-1.39461 0.84125,-2.66804 0.53125,-5.5625 l -0.375,-3.71875 z m 57.5,57.25 c 0.1491,0.004 0.31213,0.0336 0.46875,0.0937 1.03927,0.39879 1.64207,3.16225 3.625,16.71875 1.80416,12.33441 1.90354,15.75318 0.5625,19.875 -2.4996,7.68279 -10.25354,20.31093 -16.53125,26.96875 -2.75854,2.92555 -12.82595,9.53275 -19.8125,13.00005 -7.21659,3.5815 -10.32447,3.9003 -14.15625,1.4375 -3.72725,-2.3958 -7.26283,-5.66 -9.28125,-8.5938 -3.16752,-4.6038 -10.53744,-19.3854 -10.34375,-20.75 0.21565,-1.51944 1.63999,-2.07682 10.5625,-4 11.41861,-2.46109 29.9603,-13.13828 39.78125,-22.9375 5.92362,-5.91048 8.95826,-10.25621 11.46875,-16.3125 1.69137,-4.08026 2.61257,-5.52486 3.65625,-5.5 z M 30.125,985.3125 c 0.08441,-0.0164 0.182241,0 0.28125,0 0.66187,0 3.374977,3.11978 7.4375,8.59375 10.699522,14.41695 17.708995,20.99285 28.09375,26.34375 5.469706,2.8184 7.359635,4.9589 11.59375,13.1875 2.747116,5.3387 3.114593,7.6669 1.46875,9.1563 -2.545628,2.3038 -6.196679,1.5499 -15.0625,-3.0626 C 49.786572,1032.1691 39.823583,1018.38 31.71875,994.875 29.269191,987.77093 28.85889,985.55836 30.125,985.3125 z M 3.9375,989.375 c 1.1622779,0 4.1201547,3.42351 6.8125,7.875 1.356836,2.24332 4.222744,6.7015 6.375,9.9062 2.1522,3.2049 6.705934,10.0286 10.125,15.1563 3.419066,5.1276 8.452441,12.355 11.1875,16.0937 3.106051,4.2459 5.02109,7.4374 5.09375,8.4688 0.105521,1.4965 -0.05804,1.648 -1.90625,1.7812 -4.159253,0.2998 -5.402848,-0.9258 -14.28125,-14.375 C 16.80109,1018.3109 8.4177573,1004.6522 4.75,997.46875 2.3188132,992.70718 1.9743798,991.63437 2.53125,990.59375 2.893213,989.91753 3.5309617,989.375 3.9375,989.375 z m 175.03125,4.1875 c 0.15955,0.0114 0.29544,0.0585 0.46875,0.125 0.88667,0.34026 0.99407,1.07157 0.71875,6.3437 -0.20009,3.8316 -0.77892,7.3148 -1.59375,9.75 -3.65965,10.9385 -16.93963,29.4446 -25.1875,35.125 -5.2244,3.5983 -8.35461,3.3572 -13.28125,-1.0937 -2.5387,-2.2936 -4.65625,-5.8356 -4.65625,-7.7187 0,-1.7444 1.66079,-2.7954 6.96875,-4.4063 2.72404,-0.8268 6.66691,-2.481 8.75,-3.6875 8.34873,-4.8355 21.11388,-20.1588 24.4375,-29.3125 1.40514,-3.86989 2.25813,-5.205 3.375,-5.125 z m -71.84375,8.1563 c 1.8394,-0.3735 3.8584,2.8091 4.25,7.6874 0.46463,5.7883 -2.72612,14.9067 -5.96875,17.0313 -1.25346,0.8213 -1.82449,0.859 -4,0.25 -3.164547,-0.8861 -4.856505,-0.135 -8.4375,3.75 -3.212796,3.4855 -3.063215,4.7813 0.71875,6.6563 2.41522,1.1971 3.69174,1.4207 8.96875,1.4687 l 6.1875,0.062 1.375,-2 c 0.74775,-1.1016 1.77298,-3.4672 2.28125,-5.25 1.41621,-4.9669 2.805,-6.9221 5.53125,-7.6562 2.72766,-0.7344 2.66165,-0.7659 6.03125,5.4687 2.48893,4.6051 2.41785,5.7289 -0.59375,9.0625 -3.39716,3.7601 -10.94005,7.1484 -20.21875,9.0625 -4.973785,1.0261 -4.790872,1.0096 -7,0.3437 -6.10168,-1.8393 -12.6875,-13.5275 -12.6875,-22.5 0,-7.2395 3.578817,-9.3384 11.375,-6.6562 5.47064,1.8822 7.65988,1.4417 9.375,-1.875 0.76542,-1.4802 0.87703,-2.7799 0.5625,-6.6562 -0.31249,-3.8511 -0.21686,-5.1785 0.53125,-6.625 0.50651,-0.9795 1.10562,-1.5006 1.71875,-1.625 z"
       id="path2570"
       inkscape:connector-curvature="0" />
    <g
       id="g4405"
       transform="matrix(1,0,0,1.0071263,0,-531.71513)">
      <rect
         style="opacity:0.18769232;color:#000000;fill:#d0dde8;fill-opacity:1;fill-rule:nonzero;stroke:none;stroke-width:0;marker:none;visibility:visible;display:inline;overflow:visible;enable-background:accumulate"
         id="rect4401"
         width="744.09448"
         height="524.40942"
         x="0"
         y="527.95276" />
      <path
         style="fill:#e2e7eb;fill-opacity:1"
         d="m 125.25,661.34375 c -3.73339,0.0718 -8.28842,0.46143 -14.09375,1.125 -15.321827,1.75134 -26.682263,4.33268 -35.40625,8.0625 l -4,1.71875 -3.28125,-1.96875 C 55.990534,662.7112 38.790354,664.06843 17.875,674.25 7.7811918,679.16367 2.9469439,683.81365 0,692.3125 l 0,46.03125 c 8.2531708,-10.58343 25.334761,-23.76999 33.625,-25.5 3.750204,-0.7826 8.604938,-3.73391 11.5,-7.03125 2.200212,-2.50588 2.171703,-3.22369 -0.125,-5.15625 l -1.84375,-1.5625 -7.1875,0.40625 c -6.581465,0.3796 -7.193367,0.33701 -7.5625,-0.625 -0.571841,-1.49023 3.078162,-4.4695 8.84375,-7.25 10.351018,-4.9919 15.665327,-4.53945 26.25,2.34375 3.800841,2.47171 10.932793,4.6699 15.0625,4.625 1.310748,-0.0143 4.976723,-0.50064 8.15625,-1.09375 7.078901,-1.3205 8.967229,-0.926 15.5625,3.40625 7.68576,5.04854 9.041,7.42284 8.5625,14.9375 -0.20848,3.27351 -0.48567,4.01693 -2,5.53125 -1.16945,1.1695 -2.09139,1.62774 -2.75,1.375 -0.89931,-0.34509 -5.0625,-8.18267 -5.0625,-9.53125 0,-0.85617 -6.708931,-5.4458 -11.375,-7.78125 -9.541902,-4.77589 -17.75,-5.129 -17.75,-0.75 0,1.82326 1.607765,3.31583 7.03125,6.53125 5.594046,3.31655 6.776986,5.00145 4.65625,6.71875 -1.882939,1.52469 -3.194375,1.13553 -9.59375,-2.96875 -5.546438,-3.55726 -8.348483,-4.69502 -15.375,-6.15625 -8.169391,-1.69891 -11.889914,-0.89463 -18.375,3.90625 -4.640258,3.4352 -10.953666,11.23313 -11.78125,14.5625 -0.540964,2.1763 -0.794912,2.47526 -2.03125,2.3125 -0.78027,-0.10272 -3.572361,-0.22375 -6.1875,-0.28125 -4.427635,-0.0974 -4.924803,0.0235 -7.25,1.65625 -3.3584688,2.35833 -5.0369342,5.81897 -5.6875,11.75 -0.6158377,5.61473 -1.9140629,8.1114 -5.21875,9.96875 -0.8746926,0.4916 -1.52846031,0.81225 -2.09375,1 l 0,134.40625 c 2.2256441,3.01581 5.5,7.70408 5.5,8 0,0.19983 -2.2872823,2.09584 -5.5,4.59375 l 0,151.6875 328.3125,0 c -3.16921,-7.2424 -7.89804,-14.3137 -12.6875,-18.7812 -10.30056,-9.6086 -30.14102,-20.257 -73.875,-39.6563 -23.65851,-10.49443 -27.09375,-12.18651 -27.09375,-13.25 0,-0.91486 8.03063,-18.99526 16.1875,-36.46875 2.24403,-4.80713 4.6342,-10.55302 5.3125,-12.75 1.426,-4.61836 1.59813,-10.02237 0.40625,-12.875 -2.19625,-5.25628 -10.18629,-11.19447 -27.4375,-20.375 -5.76856,-3.06984 -10.67388,-5.56214 -10.90625,-5.5625 -1.18862,-0.002 5.35981,-10.87532 6.90625,-11.46875 0.3823,-0.14669 4.06951,0.82515 8.1875,2.15625 8.59959,2.77975 15.27628,3.56508 19.75,2.3125 5.3361,-1.49401 13.07728,-8.80762 16.53125,-15.625 4.6487,-9.17563 4.728,-26.18165 0.1875,-36.375 -1.43743,-3.22702 -5.87813,-8.09241 -10.65625,-11.625 -2.37869,-1.75865 -2.28515,-3.41131 0.8125,-13.125 3.22311,-10.10711 3.51441,-12.26992 2.71875,-21.1875 -2.36587,-26.51527 -7.98626,-41.53062 -17.21875,-46 -1.43504,-0.69471 -2.625,-1.44688 -2.625,-1.6875 0,-0.24063 0.54655,-2.4939 1.1875,-5 2.21665,-8.66705 1.09787,-17.85453 -3.25,-27.03125 -4.5793,-9.66519 -12.47585,-18.07175 -20.96875,-22.28125 -4.89908,-2.42818 -5.3369,-2.53125 -10.40625,-2.53125 -4.33947,0 -5.7551,0.22789 -7.90625,1.3125 -2.02832,1.02269 -2.74239,1.16569 -3.09375,0.59375 -0.24985,-0.40665 -1.28045,-2.18736 -2.3125,-3.9375 -1.05804,-1.79416 -2.98042,-3.93909 -4.40625,-4.9375 -2.2925,-1.60526 -2.95373,-1.7691 -7,-1.75 -3.89454,0.0184 -4.93434,0.24232 -8.21875,1.9375 -2.50764,1.29424 -3.84628,1.71122 -4,1.25 -0.58985,-1.76952 -7.38726,-9.51849 -10.21875,-11.65625 -4.54211,-3.42935 -8.7553,-4.8142 -16.96875,-4.65625 z m 37.65625,32.1875 c 0.27165,9.5e-4 0.48841,0.0125 0.6875,0.0625 1.81914,0.45657 2.11499,2.43633 0.4375,2.96875 -1.64479,0.52205 -9.27343,8.73598 -12.46875,13.4375 -4.14265,6.09533 -5.75703,13.52882 -3.40625,15.65625 1.02389,0.92661 1.37021,0.88498 5.96875,-0.4375 6.54324,-1.88173 14.30272,-2.96695 17.625,-2.46875 8.3576,1.2533 17.31678,9.33654 15.75,14.1875 -0.18226,0.56435 -0.43098,1.34921 -0.5625,1.78125 -0.16927,0.55616 -0.81507,0.29496 -2.21875,-0.9375 -2.81436,-2.47103 -7.3168,-3.83957 -11.40625,-3.46875 -3.47926,0.31549 -6.21768,1.48177 -10.875,4.625 -2.31762,1.56412 -3.49255,1.93369 -6.625,2.09375 -3.31389,0.16932 -4.06629,0.006 -5.96875,-1.3125 -2.65104,-1.83781 -3.62823,-3.63418 -4.46875,-8.1875 -0.56042,-3.0357 -1.02203,-3.84119 -3.5,-6.21875 -3.90159,-3.74353 -5.14669,-7.09988 -4.25,-11.375 0.96282,-4.59026 3.10332,-8.85756 5.71875,-11.4375 3.76377,-3.71264 15.48782,-8.98295 19.5625,-8.96875 z m -82.5625,34.5625 c 4.095619,0.0277 5.854015,0.43608 14.375,3.34375 11.0944,3.7858 11.92829,3.84535 26.5625,2.4375 7.43771,-0.71556 9.24595,-0.71266 11.40625,-0.0625 5.0877,1.53118 11.25714,7.00257 13.8125,12.28125 2.19671,4.53784 2.4681,8.67827 1.15625,16.71875 -0.64427,3.94849 -1.1562,7.86435 -1.15625,8.6875 -2.4e-4,3.20937 1.95183,7.709 5.9375,13.75 5.46906,8.2893 6.87635,11.38721 6.84375,15.03125 -0.0291,3.26851 -1.54563,7.77078 -2.90625,8.625 -0.65703,0.4125 -1.66611,0.0601 -3.78125,-1.28125 -6.89448,-4.37234 -15.99565,-5.5162 -24.15625,-3.03125 -6.00233,1.82775 -14.1932,5.93373 -18.28125,9.15625 -4.03217,3.17842 -5.35173,5.72944 -6.25,12.1875 -0.74519,5.35791 -0.42866,8.07544 1.9375,17.78125 1.59859,6.5573 1.73722,7.84791 1.40625,13.09375 -1.18127,18.72552 -1.20886,17.9128 0.15625,23.4375 1.06748,4.32038 1.20481,5.64143 0.6875,7.5625 -1.28446,4.77015 -6.08414,7.49576 -10.1875,5.78125 -2.262733,-0.94542 -2.926596,-1.93881 -3.53125,-5.28125 -0.785981,-4.34477 -3.362493,-7.91125 -5.71875,-7.90625 -0.762558,0.002 -2.818382,1.35619 -4.90625,3.21875 -1.974249,1.76117 -3.725502,3.1875 -3.90625,3.1875 -0.180749,0 -0.743006,-0.80087 -1.25,-1.78125 -0.777704,-1.50399 -1.214537,-1.74574 -2.78125,-1.59375 -1.380377,0.13392 -2.060524,0.62614 -2.65625,1.875 -1.18559,2.48537 -0.07574,5.48466 3.09375,8.40625 3.585308,3.30479 4.949062,3.52478 10.1875,1.65625 3.95904,-1.41215 4.47272,-1.45219 5.6875,-0.65625 0.732662,0.48007 1.901811,1.98751 2.59375,3.34375 2.212329,4.33651 4.818322,5.34626 7.8125,3.0625 2.29787,-1.75267 4.17239,-1.86463 10.46875,-0.5625 5.36762,1.11004 6.56141,0.77416 8.6875,-2.59375 0.80253,-1.27135 2.14876,-2.7914 3,-3.375 2.43876,-1.67203 4.89787,-4.38634 6.125,-6.75 0.92746,-1.78648 1.01362,-2.58593 0.5625,-4.59375 -0.30177,-1.34319 -1.01112,-3.02917 -1.59375,-3.75 -4.80871,-5.94945 -4.42794,-4.91692 -4.9375,-13.25 -0.25836,-4.22516 -0.95488,-9.90096 -1.5625,-12.625 -1.24036,-5.56104 -1.00648,-6.4375 1.875,-6.4375 2.18407,0 4.43714,-1.39978 4.4375,-2.78125 1.7e-4,-0.54266 -1.74005,-2.56462 -3.875,-4.5 -3.39349,-3.07625 -3.83259,-3.70619 -3.5,-5.03125 0.23838,-0.94986 1.41795,-2.20824 3.1875,-3.34375 3.99365,-2.56273 4.78125,-2.41798 4.78125,0.84375 0,4.49236 2.42493,8.11497 6.5625,9.84375 6.94279,2.90089 14.39933,-2.49898 14.625,-10.59375 0.0755,-2.7073 0.5479,-2.97667 2.71875,-1.53125 3.23878,2.15653 3.59321,3.82437 1.65625,7.5 -1.28621,2.44075 -4.23186,5.85652 -5.8125,6.71875 -0.51323,0.27996 -2.82995,0.88995 -5.15625,1.375 -6.24392,1.30189 -7.51085,2.83012 -3.8125,4.59375 2.37205,1.13115 2.41205,1.30412 0.875,3.625 -1.52104,2.29665 -1.49449,3.88671 0.15625,5.4375 1.87262,1.75925 3.69452,1.58288 8.34375,-0.78125 4.09882,-2.08421 6.28937,-3.79041 9.125,-7.1875 1.3982,-1.67506 1.59375,-2.43146 1.59375,-5.84375 0,-3.94894 1.70911,-8.77197 3.28125,-9.25 1.48468,-0.45145 3.69693,2.46673 4.28125,5.625 0.96387,5.20967 0.69688,8.85322 -1.21875,15.53125 -1.611,5.61616 -1.90462,7.64469 -2.3125,17.15625 -0.29338,6.8401 -0.79746,12.06284 -1.40625,14.28125 -1.88859,6.88188 -12.164,24.57286 -17.96875,30.9375 l -3.40625,3.71875 -3.71875,0 c -4.52378,0 -5.5,-0.98782 -5.5,-5.5625 0,-3.48135 -1.85985,-6.8526 -3.96875,-7.15625 -0.72329,-0.10414 -3.05043,0.60831 -5.15625,1.59375 -2.10588,0.98546 -4.25637,1.8135 -4.78125,1.8125 -0.52482,-10e-4 -2.51464,-1.06361 -4.4375,-2.34375 -6.08834,-4.05331 -8.67218,-3.86582 -13.40625,0.90625 -4.215713,4.2495 -5.225743,4.20159 -9.53125,-0.28125 -4.881195,-5.08219 -7.275915,-5.3032 -12.03125,-1.1875 -3.209417,2.77773 -4.946067,2.94514 -9.03125,0.875 -3.549122,-1.79846 -5.306902,-1.34847 -6.90625,1.84375 -1.900245,3.79274 -1.929776,5.00174 -0.28125,6.21875 1.458166,1.07646 1.462281,1.08127 3.96875,-0.71875 1.387657,-0.99656 2.6879,-1.8125 2.875,-1.8125 0.187038,0 1.94728,1.18286 3.90625,2.625 1.95898,1.44214 4.108137,2.59375 4.78125,2.59375 0.673119,0 3.264622,-0.71341 5.75,-1.59375 4.502742,-1.59493 4.519153,-1.57681 7.375,-0.5625 4.023308,1.42893 6.383195,1.25779 11.4375,-0.75 5.09574,-2.02423 7.22479,-2.15462 10.59375,-0.625 3.4866,1.58303 4.64851,3.54298 3.78125,6.4375 -0.8238,2.74973 -3.37038,5.01717 -6.65625,5.90625 -2.12056,0.57379 -3.47102,0.43442 -9.96875,-1.03125 -6.194274,-1.39723 -8.173564,-1.62333 -11.375,-1.28125 -9.063814,0.96846 -11.62668,5.14184 -5,8.15625 2.896515,1.3176 5.001953,1.36036 11.5625,0.15625 4.15121,-0.76191 5.92911,-0.84226 8.9375,-0.34375 7.91855,1.31215 11.25,4.30461 11.25,10.125 0,4.04923 -1.84098,7.66053 -5.1875,10.21875 -4.12079,3.15009 -6.94495,3.65625 -20.4375,3.65625 l -12,0 -4.0625,-1.96875 c -7.076854,-3.43434 -17.691959,-11.65871 -30.65625,-23.71875 -9.073891,-8.441 -10.034623,-7.84032 -4.8125,2.96875 4.799561,9.93438 9.754019,17.03472 16.15625,23.09375 13.51749,12.7929 24.228206,18.12784 39.0625,19.4375 3.481064,0.30734 6.68024,0.84967 7.125,1.21875 1.9676,1.63301 0.46546,5.66643 -5.1875,13.84375 -3.807893,5.50835 -13.537707,15.73155 -17.21875,18.09375 -4.358932,2.7971 -6.02741,2.4067 -14.15625,-3.2188 -16.565564,-11.46385 -27.732929,-24.81585 -37.0625,-44.3437 -3.801425,-7.95682 -3.974616,-11.50274 -1.03125,-22.65625 1.176027,-4.45658 3.174478,-11.06794 4.4375,-14.71875 l 2.3125,-6.65625 -2.875,-6.1875 c -4.980831,-10.74809 -8.357764,-23.64501 -8.09375,-30.90625 0.24426,-6.71705 -1.225698,-7.5325 -4.75,-2.625 -2.582626,3.59621 -3.346246,3.8787 -6.53125,2.5 -3.1815078,-1.37719 -4.3323358,-3.4284 -5.15625,-9.125 C 5.3383957,867.32602 6.188888,863.95321 10.375,861.5 c 1.459796,-0.8555 3.218877,-2.52478 3.9375,-3.6875 1.561591,-2.52675 1.607491,-3.34271 0.875,-31.59375 -0.381949,-14.72874 -0.340702,-20.1465 0.1875,-22.125 0.384979,-1.44214 2.470723,-6.56787 4.65625,-11.375 4.873385,-10.71901 5.504779,-12.84909 5,-17.5625 -0.478911,-4.47224 0.55537,-13.68318 2.125,-18.8125 4.030538,-13.17091 13.615028,-22.47729 26.125,-25.34375 5.268213,-1.20712 21.472356,-2.94405 27.0625,-2.90625 z m 92.71875,18.21875 c 1.327,0.0818 2.86094,0.52187 7.5,1.9375 5.42851,1.6565 6.02037,1.989 9.375,5.34375 3.9292,3.9294 6.8674,9.33718 8.9375,16.40625 1.26855,4.33134 1.45713,5.7013 1.3125,9.1875 -0.0768,1.8514 -0.29542,2.15825 -1.40625,2.15625 -3.50362,-0.006 -7.80829,-4.66327 -12.6875,-13.78125 -3.98439,-7.44589 -6.10777,-10.22233 -11.375,-14.78125 -3.00309,-2.5993 -4.34375,-4.15341 -4.34375,-5.0625 0,-0.95325 0.36104,-1.3249 1.3125,-1.375 0.50914,-0.0268 0.93267,-0.0585 1.375,-0.0312 z m 23,51.5625 c 3.67737,-0.34534 8.31506,2.33217 10.8125,6.59375 2.16018,3.68602 1.57087,5.1935 -2.59375,6.59375 -5.97902,2.01031 -10.15305,7.83359 -10.21875,14.28125 -0.0426,4.18033 1.11588,6.89713 4.375,10.15625 7.15284,7.15287 16.6038,6.92125 22.5625,-0.5625 4.74059,-5.95396 6.30448,-6.06465 9.25,-0.6875 1.37985,2.51903 2.10063,4.69511 2.3125,7.03125 0.30672,3.38315 0.32292,3.36891 -2.09375,5.4375 -1.33936,1.1464 -4.05247,2.59257 -6.0625,3.25 -5.13524,1.67967 -9.39106,2.00861 -13.4375,1 -4.54679,-1.13332 -10.85749,-4.53126 -14.4375,-7.75 -7.55827,-6.79553 -13.6962,-20.57966 -12.21875,-27.46875 1.51818,-7.07903 5.9154,-15.07515 9.40625,-17.125 0.70736,-0.41536 1.49513,-0.67031 2.34375,-0.75 z M 55.125,803.46875 c -10.034362,0.27856 -19.804447,3.92314 -25.34375,9.90625 -3.868554,4.17854 -5.675561,8.47377 -6.09375,14.46875 l -0.28125,4.25 2.53125,2.34375 c 2.346934,2.16684 2.755643,2.31805 5.4375,2.15625 l 2.875,-0.15625 1.875,3.78125 c 2.386087,4.86996 4.110673,6.46878 7.4375,6.84375 2.24776,0.25336 2.834301,0.0719 4.125,-1.21875 1.690423,-1.69046 1.960476,-3.3125 0.5625,-3.3125 -2.870877,0 -6.639872,-5.76556 -5.84375,-8.9375 0.561883,-2.23872 3.611496,-5.15666 5.15625,-4.9375 1.250493,0.17742 1.334549,0.40384 1.15625,3.96875 -0.181389,3.62599 -0.101557,3.9142 1.90625,6.25 2.493477,2.90075 7.625602,5.11347 10.5625,4.5625 2.354387,-0.44169 6.774959,-4.31458 8.09375,-7.09375 0.720614,-1.51804 0.914515,-2.92712 0.6875,-4.84375 -0.439926,-3.71446 0.131277,-4.48894 2.40625,-3.3125 0.975646,0.50454 2.308455,1.62936 2.96875,2.46875 1.117881,1.42115 1.147036,1.64005 0.34375,3.5625 -0.47442,1.13547 -1.80058,3.38629 -2.9375,4.96875 -2.424026,3.37413 -2.042766,4.53125 1.5,4.53125 1.782602,0 2.758022,-0.4969 5.125,-2.625 4.093816,-3.6807 4.971485,-3.55038 4.65625,0.71875 -0.196539,2.6617 -0.742113,4.19717 -2.71875,7.4375 -2.209066,3.62128 -2.450044,4.34797 -2.15625,6.59375 0.377227,2.88386 3.541786,9.28361 6.21875,12.53125 2.163736,2.62501 3.458747,2.5499 4.40625,-0.21875 1.021152,-2.9841 0.9294,-5.80675 -0.46875,-14.25 l -1.25,-7.59375 1.75,-8.3125 c 1.636754,-7.79987 1.710519,-8.57908 1,-11.96875 -1.14981,-5.48517 -1.623902,-6.34222 -5.25,-9.65625 -6.523659,-5.96228 -14.801229,-10.79911 -20.46875,-12 -3.258801,-0.69051 -6.623963,-0.9991 -9.96875,-0.90625 z m -3.90625,5.90625 c 2.229133,-0.0685 4.031349,0.28963 6.46875,1.125 6.62703,2.27124 10.71875,6.03764 10.71875,9.84375 0,2.18172 -0.282621,2.21148 -3.03125,0.34375 -1.316515,-0.89457 -2.947179,-1.46875 -4.25,-1.46875 l -2.125,0 0.375,2.34375 0.40625,2.34375 -2.8125,0 c -1.550404,0.004 -4.268637,0.40189 -6.03125,0.875 -1.762618,0.4731 -3.26363,0.83975 -3.34375,0.84375 -0.08013,0.004 -0.15625,-0.90958 -0.15625,-2.03125 0,-1.90043 -0.128155,-2.03125 -1.84375,-2.03125 -1.43585,0 -2.567118,0.71931 -5.1875,3.21875 -3.847052,3.66941 -5.623874,4.04133 -7.5,1.65625 -1.333703,-1.69555 -1.198157,-3.10978 0.625,-6.75 2.630112,-5.25128 7.223335,-8.67011 13,-9.71875 1.857083,-0.33712 3.35002,-0.55264 4.6875,-0.59375 z m 91.84375,3.6875 c 1.01779,-0.01 1.97271,0.18284 3.46875,0.5625 4.75416,1.20652 7.25209,2.524 9.34375,4.90625 1.598,1.82001 1.78688,2.35714 1.53125,4.625 -0.15983,1.41806 -0.50465,2.76789 -0.78125,3 -0.27654,0.23211 -1.86775,-0.95412 -3.53125,-2.65625 -1.78645,-1.82792 -3.54619,-3.09375 -4.28125,-3.09375 -1.08315,0 -1.22629,0.28579 -1.0625,2.1875 0.21397,2.48312 0.17665,2.47965 -4.125,1.125 -4.38994,-1.38243 -6.27206,-1.24076 -11.8125,0.78125 -5.11712,1.86749 -6.28125,1.85285 -6.28125,0.0312 0,-2.25831 0.79969,-3.11783 4.4375,-4.75 2.68384,-1.20416 3.71875,-1.9702 3.71875,-2.78125 0,-1.63905 1.06695,-2.2844 5.5,-3.3125 1.76862,-0.41019 2.85721,-0.61548 3.875,-0.625 z m -84.15625,13.96875 c 0.471312,0.0248 0.957057,0.15132 1.375,0.375 1.423732,0.76196 1.528563,3.81751 0.21875,5.6875 -2.276197,3.24971 -6.422929,-0.21793 -4.9375,-4.125 0.472895,-1.24378 1.929815,-2.01197 3.34375,-1.9375 z m 80.375,0.5625 c 0.98988,-0.084 2.05823,0.56432 2.9375,1.90625 0.74018,1.12963 0.81302,1.74518 0.3125,2.84375 -0.35008,0.76829 -1.1848,1.67858 -1.84375,2.03125 -0.99447,0.53221 -1.45045,0.39333 -2.65625,-0.8125 -1.72159,-1.72161 -1.81901,-3.248 -0.375,-5.03125 0.48202,-0.59529 1.03107,-0.88708 1.625,-0.9375 z m -22.59375,51 1.65625,0.84375 c 2.26442,1.17097 3.47601,2.66993 3.9375,4.84375 0.4218,1.98687 -0.6521,5.24732 -2.125,6.46875 -0.48077,0.3987 -1.70774,0.89155 -2.71875,1.09375 -1.61165,0.32232 -1.8125,0.20472 -1.8125,-0.90625 0,-0.69693 0.39319,-2.07036 0.90625,-3.0625 0.72118,-1.39461 0.84125,-2.66804 0.53125,-5.5625 l -0.375,-3.71875 z m 57.5,57.25 c 0.1491,0.004 0.31213,0.0336 0.46875,0.0937 1.03927,0.39879 1.64207,3.16225 3.625,16.71875 1.80416,12.33441 1.90354,15.75318 0.5625,19.875 -2.4996,7.68279 -10.25354,20.31093 -16.53125,26.96875 -2.75854,2.92555 -12.82595,9.53275 -19.8125,13.00005 -7.21659,3.5815 -10.32447,3.9003 -14.15625,1.4375 -3.72725,-2.3958 -7.26283,-5.66 -9.28125,-8.5938 -3.16752,-4.6038 -10.53744,-19.3854 -10.34375,-20.75 0.21565,-1.51944 1.63999,-2.07682 10.5625,-4 11.41861,-2.46109 29.9603,-13.13828 39.78125,-22.9375 5.92362,-5.91048 8.95826,-10.25621 11.46875,-16.3125 1.69137,-4.08026 2.61257,-5.52486 3.65625,-5.5 z M 30.125,985.3125 c 0.08441,-0.0164 0.182241,0 0.28125,0 0.66187,0 3.374977,3.11978 7.4375,8.59375 10.699522,14.41695 17.708995,20.99285 28.09375,26.34375 5.469706,2.8184 7.359635,4.9589 11.59375,13.1875 2.747116,5.3387 3.114593,7.6669 1.46875,9.1563 -2.545628,2.3038 -6.196679,1.5499 -15.0625,-3.0626 C 49.786572,1032.1691 39.823583,1018.38 31.71875,994.875 29.269191,987.77093 28.85889,985.55836 30.125,985.3125 z M 3.9375,989.375 c 1.1622779,0 4.1201547,3.42351 6.8125,7.875 1.356836,2.24332 4.222744,6.7015 6.375,9.9062 2.1522,3.2049 6.705934,10.0286 10.125,15.1563 3.419066,5.1276 8.452441,12.355 11.1875,16.0937 3.106051,4.2459 5.02109,7.4374 5.09375,8.4688 0.105521,1.4965 -0.05804,1.648 -1.90625,1.7812 -4.159253,0.2998 -5.402848,-0.9258 -14.28125,-14.375 C 16.80109,1018.3109 8.4177573,1004.6522 4.75,997.46875 2.3188132,992.70718 1.9743798,991.63437 2.53125,990.59375 2.893213,989.91753 3.5309617,989.375 3.9375,989.375 z m 175.03125,4.1875 c 0.15955,0.0114 0.29544,0.0585 0.46875,0.125 0.88667,0.34026 0.99407,1.07157 0.71875,6.3437 -0.20009,3.8316 -0.77892,7.3148 -1.59375,9.75 -3.65965,10.9385 -16.93963,29.4446 -25.1875,35.125 -5.2244,3.5983 -8.35461,3.3572 -13.28125,-1.0937 -2.5387,-2.2936 -4.65625,-5.8356 -4.65625,-7.7187 0,-1.7444 1.66079,-2.7954 6.96875,-4.4063 2.72404,-0.8268 6.66691,-2.481 8.75,-3.6875 8.34873,-4.8355 21.11388,-20.1588 24.4375,-29.3125 1.40514,-3.86989 2.25813,-5.205 3.375,-5.125 z m -71.84375,8.1563 c 1.8394,-0.3735 3.8584,2.8091 4.25,7.6874 0.46463,5.7883 -2.72612,14.9067 -5.96875,17.0313 -1.25346,0.8213 -1.82449,0.859 -4,0.25 -3.164547,-0.8861 -4.856505,-0.135 -8.4375,3.75 -3.212796,3.4855 -3.063215,4.7813 0.71875,6.6563 2.41522,1.1971 3.69174,1.4207 8.96875,1.4687 l 6.1875,0.062 1.375,-2 c 0.74775,-1.1016 1.77298,-3.4672 2.28125,-5.25 1.41621,-4.9669 2.805,-6.9221 5.53125,-7.6562 2.72766,-0.7344 2.66165,-0.7659 6.03125,5.4687 2.48893,4.6051 2.41785,5.7289 -0.59375,9.0625 -3.39716,3.7601 -10.94005,7.1484 -20.21875,9.0625 -4.973785,1.0261 -4.790872,1.0096 -7,0.3437 -6.10168,-1.8393 -12.6875,-13.5275 -12.6875,-22.5 0,-7.2395 3.578817,-9.3384 11.375,-6.6562 5.47064,1.8822 7.65988,1.4417 9.375,-1.875 0.76542,-1.4802 0.87703,-2.7799 0.5625,-6.6562 -0.31249,-3.8511 -0.21686,-5.1785 0.53125,-6.625 0.50651,-0.9795 1.10562,-1.5006 1.71875,-1.625 z"
         id="path4403"
         inkscape:connector-curvature="0" />
    </g>
  </g>
  <g
     inkscape:label="Ebene 1"
     inkscape:groupmode="layer"
     id="layer1"
     transform="translate(0,1.0195312e-5)"
     style="display:inline">
    <g
       id="g4409">
      <text
         sodipodi:linespacing="100%"
         id="text2987"
         y="588.83356"
         x="32.63393"
         style="font-size:40px;font-style:normal;font-weight:normal;line-height:100%;letter-spacing:0px;word-spacing:0px;fill:#000000;fill-opacity:1;stroke:none;font-family:Sans"
         xml:space="preserve"><tspan
           style="font-size:18px;font-style:normal;font-variant:normal;font-weight:normal;font-stretch:normal;line-height:100%;font-family:Arial;-inkscape-font-specification:Arial"
           y="588.83356"
           x="32.63393"
           id="tspan2989"
           sodipodi:role="line">Deine</tspan><tspan
           style="font-size:18px;font-style:normal;font-variant:normal;font-weight:bold;font-stretch:normal;line-height:100%;font-family:Arial;-inkscape-font-specification:Arial Bold"
           id="tspan2991"
           y="606.83356"
           x="32.63393"
           sodipodi:role="line">Webseiten und Online-Plattformen</tspan><tspan
           style="font-size:18px;font-style:normal;font-variant:normal;font-weight:normal;font-stretch:normal;line-height:100%;font-family:Arial;-inkscape-font-specification:Arial"
           id="tspan2993"
           y="624.83356"
           x="32.63393"
           sodipodi:role="line">fürs erste Semester Physik im WS 2015/16</tspan></text>
      <image
         width="147.98055"
         height="80.588448"
         xlink:href="file:///home/koeppel/Dropbox/VM-Shared-Dropbox/Physik-Ersti-Webseiteninfozettel/Logo%20GU.png"
         id="image3071"
         x="569.84546"
         y="548.0332" />
      <image
         width="69.90332"
         height="91.533783"
         xlink:href="file:///home/koeppel/Dropbox/VM-Shared-Dropbox/Physik-Ersti-Webseiteninfozettel/Logo%20PO.png"
         id="image3133"
         x="474.94296"
         y="546.52411" />
      <text
         xml:space="preserve"
         style="font-size:15px;font-style:normal;font-weight:normal;line-height:100%;letter-spacing:0px;word-spacing:0px;fill:#000000;fill-opacity:1;stroke:none;font-family:Sans"
         x="31.538227"
         y="671.24188"
         id="text3975"
         sodipodi:linespacing="100%"><tspan
           sodipodi:role="line"
           x="31.538227"
           y="671.24188"
           id="tspan3981"
           style="font-size:15px;font-style:normal;font-variant:normal;font-weight:normal;font-stretch:normal;line-height:100%;font-family:Arial;-inkscape-font-specification:Arial">PhysikOnline (ILIAS)</tspan></text>
      <text
         sodipodi:linespacing="100%"
         id="text3988"
         y="671.24188"
         x="225.10965"
         style="font-size:15px;font-style:normal;font-weight:normal;line-height:100%;letter-spacing:0px;word-spacing:0px;fill:#00618f;fill-opacity:1;stroke:none;font-family:Sans"
         xml:space="preserve"><tspan
           style="font-size:15px;font-style:normal;font-variant:normal;font-weight:normal;font-stretch:normal;line-height:100%;fill:#00618f;fill-opacity:1;font-family:Arial;-inkscape-font-specification:Arial"
           id="tspan3990"
           y="671.24188"
           x="225.10965"
           sodipodi:role="line">http://elearning.physik.uni-frankfurt.de</tspan></text>
      <text
         xml:space="preserve"
         style="font-size:15px;font-style:normal;font-weight:normal;line-height:100%;letter-spacing:0px;word-spacing:0px;fill:#000000;fill-opacity:1;stroke:none;font-family:Sans"
         x="543.53821"
         y="671.24188"
         id="text3992"
         sodipodi:linespacing="100%"><tspan
           sodipodi:role="line"
           x="543.53821"
           y="671.24188"
           id="tspan3994"
           style="font-size:15px;font-style:normal;font-variant:normal;font-weight:normal;font-stretch:normal;line-height:100%;font-family:Arial;-inkscape-font-specification:Arial">Vorlesungsmaterialien</tspan><tspan
           id="tspan3996"
           sodipodi:role="line"
           x="543.53821"
           y="686.24188"
           style="font-size:15px;font-style:normal;font-variant:normal;font-weight:normal;font-stretch:normal;line-height:100%;font-family:Arial;-inkscape-font-specification:Arial">Theo, Ex, Mathe</tspan></text>
      <text
         sodipodi:linespacing="100%"
         id="text4004"
         y="715.44128"
         x="31.970356"
         style="font-size:15px;font-style:normal;font-weight:normal;line-height:100%;letter-spacing:0px;word-spacing:0px;fill:#000000;fill-opacity:1;stroke:none;font-family:Sans"
         xml:space="preserve"><tspan
           style="font-size:15px;font-style:normal;font-variant:normal;font-weight:normal;font-stretch:normal;line-height:100%;font-family:Arial;-inkscape-font-specification:Arial"
           id="tspan4006"
           y="715.44128"
           x="31.970356"
           sodipodi:role="line">OLAT</tspan></text>
      <text
         xml:space="preserve"
         style="font-size:15px;font-style:normal;font-weight:normal;line-height:100%;letter-spacing:0px;word-spacing:0px;fill:#00618f;fill-opacity:1;stroke:none;font-family:Sans"
         x="225.54178"
         y="715.44128"
         id="text4008"
         sodipodi:linespacing="100%"><tspan
           sodipodi:role="line"
           x="225.54178"
           y="715.44128"
           id="tspan4010"
           style="font-size:15px;font-style:normal;font-variant:normal;font-weight:normal;font-stretch:normal;line-height:100%;fill:#00618f;fill-opacity:1;font-family:Arial;-inkscape-font-specification:Arial">http://olat.server.uni-frankfurt.de</tspan></text>
      <text
         sodipodi:linespacing="100%"
         id="text4012"
         y="715.44128"
         x="543.97034"
         style="font-size:15px;font-style:normal;font-weight:normal;line-height:100%;letter-spacing:0px;word-spacing:0px;fill:#000000;fill-opacity:1;stroke:none;font-family:Sans"
         xml:space="preserve"><tspan
           style="font-size:15px;font-style:normal;font-variant:normal;font-weight:normal;font-stretch:normal;line-height:100%;font-family:Arial;-inkscape-font-specification:Arial"
           id="tspan4014"
           y="715.44128"
           x="543.97034"
           sodipodi:role="line">Vorlesungsmaterialien</tspan><tspan
           style="font-size:15px;font-style:normal;font-variant:normal;font-weight:normal;font-stretch:normal;line-height:100%;font-family:Arial;-inkscape-font-specification:Arial"
           y="730.44128"
           x="543.97034"
           sodipodi:role="line"
           id="tspan4016">Nebenfächer</tspan></text>
      <text
         xml:space="preserve"
         style="font-size:15px;font-style:normal;font-weight:normal;line-height:100%;letter-spacing:0px;word-spacing:0px;fill:#000000;fill-opacity:1;stroke:none;font-family:Sans"
         x="32.050922"
         y="757.69244"
         id="text4018"
         sodipodi:linespacing="100%"><tspan
           sodipodi:role="line"
           x="32.050922"
           y="757.69244"
           id="tspan4020"
           style="font-size:15px;font-style:normal;font-variant:normal;font-weight:normal;font-stretch:normal;line-height:100%;font-family:Arial;-inkscape-font-specification:Arial">QIS/LSF</tspan></text>
      <text
         sodipodi:linespacing="100%"
         id="text4022"
         y="757.69244"
         x="225.62234"
         style="font-size:15px;font-style:normal;font-weight:normal;line-height:100%;letter-spacing:0px;word-spacing:0px;fill:#00618f;fill-opacity:1;stroke:none;font-family:Sans"
         xml:space="preserve"><tspan
           style="font-size:15px;font-style:normal;font-variant:normal;font-weight:normal;font-stretch:normal;line-height:100%;fill:#00618f;fill-opacity:1;font-family:Arial;-inkscape-font-specification:Arial"
           id="tspan4024"
           y="757.69244"
           x="225.62234"
           sodipodi:role="line">http://qis.server.uni-frankfurt.de</tspan></text>
      <text
         xml:space="preserve"
         style="font-size:15px;font-style:normal;font-weight:normal;line-height:100%;letter-spacing:0px;word-spacing:0px;fill:#000000;fill-opacity:1;stroke:none;font-family:Sans"
         x="544.0509"
         y="757.69244"
         id="text4026"
         sodipodi:linespacing="100%"><tspan
           id="tspan4030"
           sodipodi:role="line"
           x="544.0509"
           y="757.69244"
           style="font-size:15px;font-style:normal;font-variant:normal;font-weight:normal;font-stretch:normal;line-height:100%;font-family:Arial;-inkscape-font-specification:Arial">Vorlesungsverzeichnis,</tspan><tspan
           sodipodi:role="line"
           x="544.0509"
           y="772.69244"
           style="font-size:15px;font-style:normal;font-variant:normal;font-weight:normal;font-stretch:normal;line-height:100%;font-family:Arial;-inkscape-font-specification:Arial"
           id="tspan4061">Module &amp; Noten</tspan></text>
      <text
         sodipodi:linespacing="100%"
         id="text4065"
         y="800.00952"
         x="31.538227"
         style="font-size:15px;font-style:normal;font-weight:normal;line-height:100%;letter-spacing:0px;word-spacing:0px;fill:#000000;fill-opacity:1;stroke:none;font-family:Sans"
         xml:space="preserve"><tspan
           style="font-size:15px;font-style:normal;font-variant:normal;font-weight:normal;font-stretch:normal;line-height:100%;font-family:Arial;-inkscape-font-specification:Arial"
           id="tspan4067"
           y="800.00952"
           x="31.538227"
           sodipodi:role="line">Portalseite vom HRZ</tspan></text>
      <text
         xml:space="preserve"
         style="font-size:15px;font-style:normal;font-weight:normal;line-height:100%;letter-spacing:0px;word-spacing:0px;fill:#00618f;fill-opacity:1;stroke:none;font-family:Sans"
         x="225.10965"
         y="800.00952"
         id="text4069"
         sodipodi:linespacing="100%"><tspan
           sodipodi:role="line"
           x="225.10965"
           y="800.00952"
           id="tspan4071"
           style="font-size:15px;font-style:normal;font-variant:normal;font-weight:normal;font-stretch:normal;line-height:100%;fill:#00618f;fill-opacity:1;font-family:Arial;-inkscape-font-specification:Arial">http://go.uni-frankfurt.de</tspan></text>
      <text
         sodipodi:linespacing="100%"
         id="text4073"
         y="800.00952"
         x="543.53821"
         style="font-size:15px;font-style:normal;font-weight:normal;line-height:100%;letter-spacing:0px;word-spacing:0px;fill:#000000;fill-opacity:1;stroke:none;font-family:Sans"
         xml:space="preserve"><tspan
           id="tspan4077"
           style="font-size:15px;font-style:normal;font-variant:normal;font-weight:normal;font-stretch:normal;line-height:100%;font-family:Arial;-inkscape-font-specification:Arial"
           y="800.00952"
           x="543.53821"
           sodipodi:role="line">Direktlinks zu WLAN,</tspan><tspan
           style="font-size:15px;font-style:normal;font-variant:normal;font-weight:normal;font-stretch:normal;line-height:100%;font-family:Arial;-inkscape-font-specification:Arial"
           y="815.00952"
           x="543.53821"
           sodipodi:role="line"
           id="tspan4081">deiner Mailaddresse, ...</tspan></text>
      <text
         xml:space="preserve"
         style="font-size:15px;font-style:normal;font-weight:normal;line-height:100%;letter-spacing:0px;word-spacing:0px;fill:#000000;fill-opacity:1;stroke:none;font-family:Sans"
         x="31.516254"
         y="844.2016"
         id="text4085"
         sodipodi:linespacing="100%"><tspan
           sodipodi:role="line"
           x="31.516254"
           y="844.2016"
           id="tspan4087"
           style="font-size:15px;font-style:normal;font-variant:normal;font-weight:normal;font-stretch:normal;line-height:100%;font-family:Arial;-inkscape-font-specification:Arial">UB</tspan></text>
      <text
         sodipodi:linespacing="100%"
         id="text4089"
         y="844.2016"
         x="225.08768"
         style="font-size:15px;font-style:normal;font-weight:normal;line-height:100%;letter-spacing:0px;word-spacing:0px;fill:#00618f;fill-opacity:1;stroke:none;font-family:Sans"
         xml:space="preserve"><tspan
           style="font-size:15px;font-style:normal;font-variant:normal;font-weight:normal;font-stretch:normal;line-height:100%;fill:#00618f;fill-opacity:1;font-family:Arial;-inkscape-font-specification:Arial"
           id="tspan4091"
           y="844.2016"
           x="225.08768"
           sodipodi:role="line">http://ub.uni-frankfurt.de</tspan></text>
      <text
         xml:space="preserve"
         style="font-size:15px;font-style:normal;font-weight:normal;line-height:100%;letter-spacing:0px;word-spacing:0px;fill:#000000;fill-opacity:1;stroke:none;font-family:Sans"
         x="543.51624"
         y="844.2016"
         id="text4093"
         sodipodi:linespacing="100%"><tspan
           sodipodi:role="line"
           x="543.51624"
           y="844.2016"
           style="font-size:15px;font-style:normal;font-variant:normal;font-weight:normal;font-stretch:normal;line-height:100%;font-family:Arial;-inkscape-font-specification:Arial"
           id="tspan4095">Universitätsbibliothek</tspan><tspan
           id="tspan4097"
           sodipodi:role="line"
           x="543.51624"
           y="859.2016"
           style="font-size:15px;font-style:normal;font-variant:normal;font-weight:normal;font-stretch:normal;line-height:100%;font-family:Arial;-inkscape-font-specification:Arial">(BNat), Literatursuche</tspan></text>
      <text
         sodipodi:linespacing="100%"
         id="text4105"
         y="889.42639"
         x="31.464985"
         style="font-size:15px;font-style:normal;font-weight:normal;line-height:100%;letter-spacing:0px;word-spacing:0px;fill:#000000;fill-opacity:1;stroke:none;font-family:Sans"
         xml:space="preserve"><tspan
           style="font-size:15px;font-style:normal;font-variant:normal;font-weight:normal;font-stretch:normal;line-height:100%;font-family:Arial;-inkscape-font-specification:Arial"
           id="tspan4107"
           y="889.42639"
           x="31.464985"
           sodipodi:role="line">Fachschaft</tspan></text>
      <text
         xml:space="preserve"
         style="font-size:15px;font-style:normal;font-weight:normal;line-height:100%;letter-spacing:0px;word-spacing:0px;fill:#00618f;fill-opacity:1;stroke:none;font-family:Sans"
         x="225.03641"
         y="889.42639"
         id="text4109"
         sodipodi:linespacing="100%"><tspan
           sodipodi:role="line"
           x="225.03641"
           y="889.42639"
           id="tspan4111"
           style="font-size:15px;font-style:normal;font-variant:normal;font-weight:normal;font-stretch:normal;line-height:100%;fill:#00618f;fill-opacity:1;font-family:Arial;-inkscape-font-specification:Arial">http://fachschaft.physik.uni-frankfurt.de</tspan></text>
      <text
         sodipodi:linespacing="100%"
         id="text4113"
         y="889.42639"
         x="543.46497"
         style="font-size:15px;font-style:normal;font-weight:normal;line-height:100%;letter-spacing:0px;word-spacing:0px;fill:#000000;fill-opacity:1;stroke:none;font-family:Sans"
         xml:space="preserve"><tspan
           style="font-size:15px;font-style:normal;font-variant:normal;font-weight:normal;font-stretch:normal;line-height:100%;font-family:Arial;-inkscape-font-specification:Arial"
           y="889.42639"
           x="543.46497"
           sodipodi:role="line"
           id="tspan4117">Praktikumsprotokolle, ...</tspan></text>
      <text
         xml:space="preserve"
         style="font-size:15px;font-style:normal;font-weight:normal;line-height:100%;letter-spacing:0px;word-spacing:0px;fill:#000000;fill-opacity:1;stroke:none;font-family:Sans"
         x="32.146137"
         y="919.65118"
         id="text4123"
         sodipodi:linespacing="100%"><tspan
           sodipodi:role="line"
           x="32.146137"
           y="919.65118"
           id="tspan4125"
           style="font-size:15px;font-style:normal;font-variant:normal;font-weight:normal;font-stretch:normal;line-height:100%;font-family:Arial;-inkscape-font-specification:Arial">eLectures</tspan><tspan
           sodipodi:role="line"
           x="32.146137"
           y="934.65118"
           style="font-size:15px;font-style:normal;font-variant:normal;font-weight:normal;font-stretch:normal;line-height:100%;font-family:Arial;-inkscape-font-specification:Arial"
           id="tspan4135">HRZ Videoportal</tspan></text>
      <text
         sodipodi:linespacing="100%"
         id="text4127"
         y="919.65118"
         x="225.71756"
         style="font-size:15px;font-style:normal;font-weight:normal;line-height:100%;letter-spacing:0px;word-spacing:0px;fill:#00618f;fill-opacity:1;stroke:none;font-family:Sans"
         xml:space="preserve"><tspan
           style="font-size:15px;font-style:normal;font-variant:normal;font-weight:normal;font-stretch:normal;line-height:100%;fill:#00618f;fill-opacity:1;font-family:Arial;-inkscape-font-specification:Arial"
           id="tspan4129"
           y="919.65118"
           x="225.71756"
           sodipodi:role="line">http://electure.studiumdigitale.uni-frankfurt.de</tspan><tspan
           style="font-size:15px;font-style:normal;font-variant:normal;font-weight:normal;font-stretch:normal;line-height:100%;fill:#00618f;fill-opacity:1;font-family:Arial;-inkscape-font-specification:Arial"
           y="934.65118"
           x="225.71756"
           sodipodi:role="line"
           id="tspan4137">http://uni-frankfurt.de/videoportal</tspan></text>
      <text
         xml:space="preserve"
         style="font-size:15px;font-style:normal;font-weight:normal;line-height:100%;letter-spacing:0px;word-spacing:0px;fill:#000000;fill-opacity:1;stroke:none;font-family:Sans"
         x="544.14612"
         y="919.65118"
         id="text4131"
         sodipodi:linespacing="100%"><tspan
           id="tspan4133"
           sodipodi:role="line"
           x="544.14612"
           y="919.65118"
           style="font-size:15px;font-style:normal;font-variant:normal;font-weight:normal;font-stretch:normal;line-height:100%;font-family:Arial;-inkscape-font-specification:Arial">Vorlesungsaufzeichnungen</tspan></text>
      <text
         xml:space="preserve"
         style="font-size:15px;font-style:normal;font-weight:normal;line-height:100%;letter-spacing:0px;word-spacing:0px;fill:#000000;fill-opacity:1;stroke:none;font-family:Sans"
         x="31.538227"
         y="964.7002"
         id="text4207"
         sodipodi:linespacing="100%"><tspan
           sodipodi:role="line"
           x="31.538227"
           y="964.7002"
           id="tspan4209"
           style="font-size:15px;font-style:normal;font-variant:normal;font-weight:normal;font-stretch:normal;line-height:100%;font-family:Arial;-inkscape-font-specification:Arial">Podcast-Wiki Physik,</tspan><tspan
           id="tspan4256"
           sodipodi:role="line"
           x="31.538227"
           y="979.7002"
           style="font-size:15px;font-style:normal;font-variant:normal;font-weight:normal;font-stretch:normal;line-height:100%;font-family:Arial;-inkscape-font-specification:Arial">RiedbergTV</tspan></text>
      <text
         sodipodi:linespacing="100%"
         id="text4211"
         y="964.7002"
         x="225.10965"
         style="font-size:15px;font-style:normal;font-weight:normal;line-height:100%;letter-spacing:0px;word-spacing:0px;fill:#00618f;fill-opacity:1;stroke:none;font-family:Sans"
         xml:space="preserve"><tspan
           style="font-size:15px;font-style:normal;font-variant:normal;font-weight:normal;font-stretch:normal;line-height:100%;fill:#00618f;fill-opacity:1;font-family:Arial;-inkscape-font-specification:Arial"
           id="tspan4213"
           y="964.7002"
           x="225.10965"
           sodipodi:role="line">http://podcast-wiki.physik.uni-frankfurt.de</tspan><tspan
           id="tspan4254"
           style="font-size:15px;font-style:normal;font-variant:normal;font-weight:normal;font-stretch:normal;line-height:100%;fill:#00618f;fill-opacity:1;font-family:Arial;-inkscape-font-specification:Arial"
           y="979.7002"
           x="225.10965"
           sodipodi:role="line">http://riedberg.tv</tspan></text>
      <text
         xml:space="preserve"
         style="font-size:15px;font-style:normal;font-weight:normal;line-height:100%;letter-spacing:0px;word-spacing:0px;fill:#000000;fill-opacity:1;stroke:none;font-family:Sans"
         x="543.53821"
         y="964.7002"
         id="text4215"
         sodipodi:linespacing="100%"><tspan
           id="tspan4217"
           sodipodi:role="line"
           x="543.53821"
           y="964.7002"
           style="font-size:15px;font-style:normal;font-variant:normal;font-weight:normal;font-stretch:normal;line-height:100%;font-family:Arial;-inkscape-font-specification:Arial">Infos über Arbeitsgruppen,</tspan><tspan
           id="tspan4219"
           sodipodi:role="line"
           x="543.53821"
           y="979.7002"
           style="font-size:15px;font-style:normal;font-variant:normal;font-weight:normal;font-stretch:normal;line-height:100%;font-family:Arial;-inkscape-font-specification:Arial">Praktika, Kurzinterviews</tspan></text>
      <text
         sodipodi:linespacing="100%"
         id="text4221"
         y="1009.925"
         x="31.50893"
         style="font-size:15px;font-style:normal;font-weight:normal;line-height:100%;letter-spacing:0px;word-spacing:0px;fill:#000000;fill-opacity:1;stroke:none;font-family:Sans"
         xml:space="preserve"><tspan
           style="font-size:15px;font-style:normal;font-variant:normal;font-weight:normal;font-stretch:normal;line-height:100%;font-family:Arial;-inkscape-font-specification:Arial"
           id="tspan4223"
           y="1009.925"
           x="31.50893"
           sodipodi:role="line">Ersti-Hilfe Physik</tspan></text>
      <text
         xml:space="preserve"
         style="font-size:15px;font-style:normal;font-weight:normal;line-height:100%;letter-spacing:0px;word-spacing:0px;fill:#00618f;fill-opacity:1;stroke:none;font-family:Sans"
         x="225.08035"
         y="1009.925"
         id="text4225"
         sodipodi:linespacing="100%"><tspan
           sodipodi:role="line"
           x="225.08035"
           y="1009.925"
           id="tspan4227"
           style="font-size:15px;font-style:normal;font-variant:normal;font-weight:normal;font-stretch:normal;line-height:100%;fill:#00618f;fill-opacity:1;font-family:Arial;-inkscape-font-specification:Arial">http://goethe.link/ersti-hilfe</tspan></text>
      <text
         sodipodi:linespacing="100%"
         id="text4229"
         y="1009.925"
         x="543.50891"
         style="font-size:15px;font-style:normal;font-weight:normal;line-height:100%;letter-spacing:0px;word-spacing:0px;fill:#000000;fill-opacity:1;stroke:none;font-family:Sans"
         xml:space="preserve"><tspan
           style="font-size:15px;font-style:normal;font-variant:normal;font-weight:normal;font-stretch:normal;line-height:100%;font-family:Arial;-inkscape-font-specification:Arial"
           y="1009.925"
           x="543.50891"
           sodipodi:role="line"
           id="tspan4233">Studentisches Mentoring</tspan></text>
    </g>
    <use
       x="0"
       y="0"
       xlink:href="#g4409"
       id="use4490"
       transform="translate(0,-524.26917)"
       width="744.09448"
       height="1052.3622" />
  </g>
</svg>
