<?xml version="1.0" encoding="UTF-8" standalone="no"?>
<!-- Generator: Adobe Illustrator 15.1.0, SVG Export Plug-In . SVG Version: 6.00 Build 0)  -->

<svg
   xmlns:dc="http://purl.org/dc/elements/1.1/"
   xmlns:cc="http://creativecommons.org/ns#"
   xmlns:rdf="http://www.w3.org/1999/02/22-rdf-syntax-ns#"
   xmlns:svg="http://www.w3.org/2000/svg"
   xmlns="http://www.w3.org/2000/svg"
   xmlns:xlink="http://www.w3.org/1999/xlink"
   xmlns:sodipodi="http://sodipodi.sourceforge.net/DTD/sodipodi-0.dtd"
   xmlns:inkscape="http://www.inkscape.org/namespaces/inkscape"
   version="1.1"
   id="Ebene_1"
   x="0px"
   y="0px"
   width="555px"
   height="568px"
   viewBox="0 0 555 568"
   enable-background="new 0 0 555 568"
   xml:space="preserve"
   inkscape:version="0.48.4 r9939"
   sodipodi:docname="POKAL Cup aus PS.svg"><metadata
     id="metadata9"><rdf:RDF><cc:Work
         rdf:about=""><dc:format>image/svg+xml</dc:format><dc:type
           rdf:resource="http://purl.org/dc/dcmitype/StillImage" /></cc:Work></rdf:RDF></metadata><defs
     id="defs7" /><sodipodi:namedview
     pagecolor="#ffffff"
     bordercolor="#666666"
     borderopacity="1"
     objecttolerance="10"
     gridtolerance="10"
     guidetolerance="10"
     inkscape:pageopacity="0"
     inkscape:pageshadow="2"
     inkscape:window-width="1335"
     inkscape:window-height="837"
     id="namedview5"
     showgrid="false"
     inkscape:zoom="0.51519084"
     inkscape:cx="1258.5707"
     inkscape:cy="136.8019"
     inkscape:window-x="369"
     inkscape:window-y="175"
     inkscape:window-maximized="0"
     inkscape:current-layer="Ebene_1" /><image
     y="357.65369"
     x="707.32245"
     id="image3762"
     xlink:href="file:///home/sven/Dropbox/elearning/POKAL/POKAL-Logo/pokal-bootstrap-logo.png"
     height="259.88983"
     width="926.94037" /><path
     clip-rule="evenodd"
     stroke-miterlimit="10"
     d="m 773.03644,398.76648 c -2.86026,-1.77092 -6.8491,-3.54214 -10.59197,-3.54214 -15.60484,0 -28.24456,12.78743 -28.24456,28.5837 0,22.84221 24.25542,30.99098 38.83653,42.25315 v 5.31246 c 0,21.42721 15.14615,39.27814 35.30576,43.38741 v 25.67791 c 0,3.89476 -3.17692,7.08399 -7.0612,7.08399 h -19.41812 c -4.87205,0 -8.82644,3.96756 -8.82644,8.8549 0,4.88733 3.95439,8.85429 8.82644,8.85429 h 70.61186 c 4.87174,0 8.82583,-3.96696 8.82583,-8.85429 0,-4.88734 -3.95438,-8.8549 -8.82583,-8.8549 h -19.41843 c -3.88369,0 -7.0612,-3.18923 -7.0612,-7.08399 v -25.67791 c 20.1599,-4.10958 35.30576,-21.9602 35.30576,-43.38741 v -5.31246 c 14.58111,-11.26217 38.83683,-19.41094 38.83683,-42.25315 0,-15.79657 -12.64002,-28.5837 -28.24486,-28.5837 -3.74257,0 -7.73171,1.77092 -10.59197,3.54214 h -88.26443 z m 31.77531,24.79289 v 42.50182 c 0,3.89446 -3.17723,7.08338 -7.06121,7.08338 -3.88427,0 -7.0615,-3.18892 -7.0615,-7.08338 v -42.50182 c 0,-3.89476 3.17723,-7.08398 7.0615,-7.08398 3.88398,0 7.06121,3.18922 7.06121,7.08398 z m -52.95925,0.24867 c 0,-5.91466 4.73035,-10.73249 10.59197,-10.73249 5.85953,0 10.59197,4.81814 10.59197,10.73249 v 21.78374 C 762.8687,439.14414 751.8525,434.85569 751.8525,423.80804 z m 130.63202,0 c 0,11.04765 -11.0159,15.3361 -21.18395,21.78374 v -21.78374 c 0,-5.91466 4.73064,-10.73249 10.59197,-10.73249 5.86162,0 10.59198,4.81814 10.59198,10.73249 z"
     id="path3"
     style="fill:#000000;fill-opacity:1;fill-rule:evenodd;stroke:none"
     inkscape:connector-curvature="0" /><text
     xml:space="preserve"
     style="font-size:248.04971313px;font-style:normal;font-variant:normal;font-weight:normal;font-stretch:normal;line-height:125%;letter-spacing:0px;word-spacing:0px;fill:#000000;fill-opacity:1;stroke:none;font-family:Dustismo;-inkscape-font-specification:Dustismo"
     x="934.3913"
     y="351.4238"
     id="text2983"
     sodipodi:linespacing="125%"><tspan
       sodipodi:role="line"
       id="tspan2985"
       x="934.3913"
       y="351.4238"
       style="font-style:normal;font-variant:normal;font-weight:600;font-stretch:normal;font-family:Myriad Pro;-inkscape-font-specification:Myriad Pro Semi-Bold;font-size:248.04971312999998645px;text-anchor:start;text-align:start;writing-mode:lr;line-height:125%">POKAL</tspan></text>
</svg>