<?xml version="1.0" encoding="UTF-8" standalone="no"?>
<!-- Created with Inkscape (http://www.inkscape.org/) -->

<svg
   xmlns:dc="http://purl.org/dc/elements/1.1/"
   xmlns:cc="http://creativecommons.org/ns#"
   xmlns:rdf="http://www.w3.org/1999/02/22-rdf-syntax-ns#"
   xmlns:svg="http://www.w3.org/2000/svg"
   xmlns="http://www.w3.org/2000/svg"
   xmlns:sodipodi="http://sodipodi.sourceforge.net/DTD/sodipodi-0.dtd"
   xmlns:inkscape="http://www.inkscape.org/namespaces/inkscape"
   width="165.93779"
   height="170.00781"
   id="svg3000"
   version="1.1"
   inkscape:version="0.48.4 r9939"
   sodipodi:docname="Neues Dokument 2">
  <defs
     id="defs3002" />
  <sodipodi:namedview
     id="base"
     pagecolor="#ffffff"
     bordercolor="#666666"
     borderopacity="1.0"
     inkscape:pageopacity="0.0"
     inkscape:pageshadow="2"
     inkscape:zoom="1.2263672"
     inkscape:cx="100.09265"
     inkscape:cy="101.31224"
     inkscape:document-units="px"
     inkscape:current-layer="layer1"
     showgrid="false"
     fit-margin-top="0"
     fit-margin-left="0"
     fit-margin-right="0"
     fit-margin-bottom="0"
     inkscape:window-width="1855"
     inkscape:window-height="1056"
     inkscape:window-x="65"
     inkscape:window-y="24"
     inkscape:window-maximized="1" />
  <metadata
     id="metadata3005">
    <rdf:RDF>
      <cc:Work
         rdf:about="">
        <dc:format>image/svg+xml</dc:format>
        <dc:type
           rdf:resource="http://purl.org/dc/dcmitype/StillImage" />
        <dc:title></dc:title>
      </cc:Work>
    </rdf:RDF>
  </metadata>
  <g
     inkscape:label="Ebene 1"
     inkscape:groupmode="layer"
     id="layer1"
     transform="translate(-267.0311,-447.35828)">
    <path
       inkscape:connector-curvature="0"
       style="fill:#000000;fill-opacity:1;fill-rule:evenodd;stroke:none"
       id="path2987"
       d="m 305.86763,450.90042 c -2.86026,-1.77092 -6.8491,-3.54214 -10.59197,-3.54214 -15.60484,0 -28.24456,12.78743 -28.24456,28.5837 0,22.84221 24.25542,30.99098 38.83653,42.25315 v 5.31246 c 0,21.42721 15.14615,39.27814 35.30576,43.38741 v 25.67791 c 0,3.89476 -3.17692,7.08399 -7.0612,7.08399 h -19.41812 c -4.87205,0 -8.82644,3.96756 -8.82644,8.8549 0,4.88733 3.95439,8.85429 8.82644,8.85429 h 70.61186 c 4.87174,0 8.82583,-3.96696 8.82583,-8.85429 0,-4.88734 -3.95438,-8.8549 -8.82583,-8.8549 H 365.8875 c -3.88369,0 -7.0612,-3.18923 -7.0612,-7.08399 V 566.895 c 20.1599,-4.10958 35.30576,-21.9602 35.30576,-43.38741 v -5.31246 c 14.58111,-11.26217 38.83683,-19.41094 38.83683,-42.25315 0,-15.79657 -12.64002,-28.5837 -28.24486,-28.5837 -3.74257,0 -7.73171,1.77092 -10.59197,3.54214 h -88.26443 z m 31.77531,24.79289 v 42.50182 c 0,3.89446 -3.17723,7.08338 -7.06121,7.08338 -3.88427,0 -7.0615,-3.18892 -7.0615,-7.08338 v -42.50182 c 0,-3.89476 3.17723,-7.08398 7.0615,-7.08398 3.88398,0 7.06121,3.18922 7.06121,7.08398 z m -52.95925,0.24867 c 0,-5.91466 4.73035,-10.73249 10.59197,-10.73249 5.85953,0 10.59197,4.81814 10.59197,10.73249 v 21.78374 c -10.16774,-6.44764 -21.18394,-10.73609 -21.18394,-21.78374 z m 130.63202,0 c 0,11.04765 -11.0159,15.3361 -21.18395,21.78374 v -21.78374 c 0,-5.91466 4.73064,-10.73249 10.59197,-10.73249 5.86162,0 10.59198,4.81814 10.59198,10.73249 z"
       stroke-miterlimit="10"
       clip-rule="evenodd" />
  </g>
</svg>
