<?xml version="1.0" encoding="utf-8"?>
<!-- Generator: Adobe Illustrator 15.1.0, SVG Export Plug-In . SVG Version: 6.00 Build 0)  -->
<!DOCTYPE svg PUBLIC "-//W3C//DTD SVG 1.1//EN" "http://www.w3.org/Graphics/SVG/1.1/DTD/svg11.dtd">
<svg version="1.1" xmlns="http://www.w3.org/2000/svg" xmlns:xlink="http://www.w3.org/1999/xlink" x="0px" y="0px"
	 width="595.275px" height="841.89px" viewBox="0 0 595.275 841.89" enable-background="new 0 0 595.275 841.89"
	 xml:space="preserve">
<g id="Grid">
</g>
<g id="Ebene_1" display="none">
</g>
<g id="Desktop" display="none">
</g>
<g id="Guides" display="none">
</g>
<g id="Page_1">
	<g id="Ebene_1_1_">
		<g>
			<path fill-rule="evenodd" clip-rule="evenodd" fill="#EDEDED" d="M290.161,530.77c-48.229-0.054-184.282,9.735-187.378-106.039
				c36.518-15.294,38.369-15.986,53.769-21.731c-2.743-24.691-36.708-55.521-26.256-78.642c14.239-8.884,30.698-21.164,45.46-24.429
				c-0.392-2.612-0.392-2.612-7.838-13.586c-14.108,1.567-24.56,7.969-40.235,1.699c-23.514-20.641-29.131-52.124-1.698-71.588
				c0.13-1.697,0.261-3.265,0.392-4.832c-8.752-24.82-6.401-44.024,0-68.19c6.532-12.15,8.36-12.671,9.144-14.763
				c0.653,0,1.307,0,1.83,0c0-0.652,0-1.306,0-1.828c2.221-1.175,4.441-2.352,6.532-3.396c-9.145-32.921,8.229-57.349,38.928-65.186
				c9.536,0.913,13.063,2.612,15.284,2.222c7.968-22.47,18.812-7.448,31.483-9.668c6.532-9.145,10.319-13.324,19.594-14.762
				c0-4.746,35.535-0.652,40.863-0.214l-0.034,41.753c-6.326,3.485-10.256,9.783-9.01,21.295c0.653,0.784,1.306,1.699,1.829,2.612
				c4.703,0.367,7.17-4.68,7.187-2.636l0.119,14.652c-9.988,1.267-20.287,1.713-34.868,1.569
				c-23.644,7.185-18.812,28.087-18.812,49.38c-5.748,9.536-18.681,24.299-11.365,37.621c6.533,0.654,13.063-4.048,18.812-5.747
				c39.32,0,52.122,16.198,42.456,52.906c0.914,15.284,0,30.045,0,46.245c1.714,1.428,3.034,2.347,3.831,2.865l-0.095,11.016
				c-11.41,0.387-16.172,14.208-22.678-7.351c-14.761-5.355-8.491-15.676-3.004-23.905c1.829-19.335,1.829-19.335,3.918-31.482
				c-5.487-1.177-6.923-1.307-8.752-6.141c2.613-1.567,5.226-3.003,7.838-4.44c0-2.351,0-4.704,0-6.924
				c-4.31-2.221-4.31-2.221-8.752-2.612c-0.784,4.702-1.306,7.054-4.31,12.278c-13.848,2.614-18.42,1.438-21.817-12.278
				c-13.454,1.175-3.265,12.801,3.528,16.982c3.397,0.391,6.793,0.783,10.059,1.306c0,1.438,0,2.874,0,4.441
				c-1.046,0.522-2.091,1.045-3.136,1.698c1.306,2.612,1.306,2.612,0.915,9.144c-17.636,3.527-22.077-13.062-24.56-25.734
				c-4.311,0.394-4.311,0.394-6.923,1.699c-2.613,16.198,3.396,36.446,4.833,54.212c3.527,12.148,21.032,52.645,37.623,42.848
				c3.526-20.771,6.923-10.059,19.594-10.059c8.252-4.451,12.712-4.728,15.607-3.422l0.019,11.027
				c-12.126-0.785-21.406,1.272-14.32,11.205c5.299,1.933,9.996,2.411,14.338,2.379l-0.066,7.715
				c-7.718,0.271-13.356,3.659-13.356,16.948c2.258,5.103,7.267,8.064,13.383,9.492l0.002,47.984
				c-1.368,0.263-2.805,0.263-4.241,0.263c-2.746,9.433-3.964,19.738,4.245,26.393l0.008,15.23
				c-4.436-1.711-6.877-7.529-12.091-15.889c-1.959,0-4.05,0-6.14,0c-14.244,14.246,3.391,21.534,18.225,24.663L290.161,530.77
				L290.161,530.77z"/>
			<path fill-rule="evenodd" clip-rule="evenodd" fill="#1D1D1B" d="M290.063,35.771c3.488,0.358,6.995,0.745,10.609,1.176
				c27.172,7.839,21.293,8.23,41.932,0c35.011,0,67.669,7.056,77.336,42.457c26.648,12.148,36.969,19.333,39.712,49.378
				c21.685,14.108,13.716,29.394,10.058,54.604c12.803,18.942,15.808,30.178,2.613,49.771c0,1.828,0,1.828,10.581,23.645
				c1.568,31.351-13.063,50.815-47.68,41.411c-5.096-2.744-9.406-6.924-15.808-6.924c-3.266,3.657-6.271,5.618-7.315,11.888
				c15.415,10.712,32.397,20.899,41.934,37.491c3.527,21.686-27.042,38.536-24.951,59.829c15.415,6.074,30.731,12.541,45.884,19.237
				c-2.963,112.445-128.076,111.807-184.905,111.771L290.063,35.771L290.063,35.771z"/>
			<path fill-rule="evenodd" clip-rule="evenodd" fill="#FFFFFF" d="M289.643,98.516l1.859-5.657
				c0.653-0.132,1.175-0.261,1.698-0.391c0-0.915,0-1.831,0-2.614c1.176-0.262,2.351-0.522,3.528-0.784c0-0.651,0-1.306,0-1.828
				c8.229-4.05,21.293-12.017,29.653-7.446c0,1.567,0,3.135,0,4.834c-1.437,0.522-2.873,1.177-4.31,1.828c0,0.522,0,1.045,0,1.699
				c-1.438,0.391-2.875,0.784-4.442,1.307c-0.261,0.653-0.522,1.438-0.783,2.221c-1.438,0.392-2.875,0.784-4.442,1.175
				c-1.176,10.19,13.325-0.132,16.59-0.391c2.744-6.924,22.208-6.533,27.957-6.533c12.67,5.096,20.378,11.888,26.256,24.429
				c10.059-0.652,17.375-1.437,23.253,6.662c1.306,10.712,1.306,19.596,14.369,19.596c0.653-0.132,1.177-0.261,1.699-0.393
				c1.306-19.987-26.258-33.964-40.235-43.37c-7.707-1.436-22.6-6.27-23.515-15.153c6.662-3.267,15.938-2.351,22.338-2.612
				c0.132-0.915,0.263-1.828,0.394-2.612c-20.641-12.149-26.52-12.411-49.902-0.522c-12.317,1.653-30.859-0.67-41.973,5.28
				C289.636,84.332,289.64,91.423,289.643,98.516L289.643,98.516z"/>
			<path fill-rule="evenodd" clip-rule="evenodd" fill="#FFFFFF" d="M227.337,125.464c8.23-5.879,7.707-15.544,12.279-16.983
				c0-0.651,0-1.306,0-1.828c6.401-2.611,5.748-10.581,5.748-14.892c-8.36-15.807-17.244-18.289-34.618-19.986
				c0.523,0.783,1.045,1.697,1.437,2.611c12.671,8.753,21.032,16.852,19.595,34.095c-15.937-3.134-45.198-11.624-47.55,13.979
				c1.176,0.394,1.176,0.394,7.316-3.135C208.395,118.148,213.359,125.464,227.337,125.464L227.337,125.464z"/>
			<path fill-rule="evenodd" clip-rule="evenodd" fill="#FFFFFF" d="M289.642,378.188c13.147,3.474,31.566,0.696,40.267-0.812
				c0-0.654,0-1.177,0-1.699c9.274-5.095,15.415-14.369,21.815-17.504c0-0.654,0-1.177,0-1.699
				c6.14-3.135,18.42-11.887,21.816-13.193c-12.279,35.793-39.32,55.519-78.642,59.83c-6.922,7.707,20.379,35.139,28.872,38.406
				c2.351,0,4.702,0,7.054,0c9.667-5.879,27.825-15.285,31.352-24.82c0.653,0,1.306,0,1.828,0c0-0.654,0-1.177,0-1.697
				c0.915,0,1.829,0,2.612,0c1.83-3.267,3.528-6.533,5.226-9.668c0.653,0,1.176,0,1.699,0c19.202-30.177,15.807-35.271,5.747-65.578
				c-1.567-17.504,9.275-37.229,11.757-54.995c7.055,4.572,5.748,4.963,14.893,5.225c8.883-21.555,3.789-19.333-6.532-34.096
				c-0.261-20.378-0.522-40.758-0.914-61.136c-3.788-8.752-7.576-17.504-11.365-26.256c-2.09-52.254-24.167-59.831-73.807-59.831
				c-8.757,2.01-16.004,3.441-23.437,4.509l-0.014,184.921c2.899,1.341,4.982,1.033,9.472,1.033
				c3.92-4.834,3.658-6.924,4.312-11.757c0.652,0,1.307,0,1.829,0c0-0.654,0-1.177,0-1.699c2.09-0.262,4.18-0.391,6.14-0.522
				c3.266,3.267,9.274,10.451,10.45,2.222c7.185,0.783,6.009,5.095,4.312,11.364c-11.235,5.617-9.667,3.135-21.816,1.306
				c-4.703,4.704-3.396,16.982-13.979,8.753c-0.284,0-0.565,0.008-0.906,0.02l-0.036,10.373c4.808,1.875,5.697,7.46,12.308,5.283
				c12.149-10.32,10.06-7.837,21.817-1.697c5.225,0,9.666-1.829,13.192-1.307c3.006,6.141,3.006,6.141,3.397,10.451
				c-3.789-0.785-7.577-1.569-11.365-2.221c-1.96,1.436-4.05,2.873-6.141,4.44c-3.636,0-20.056-3.474-33.17-4.032l0.036,13.827
				c8.742-0.092,16.753-2.136,27.125,0.264c0,1.96,0,4.05,0,6.14c-8.554,2.897-19.089,0.375-27.258,1.392L289.642,378.188
				L289.642,378.188z"/>
			<path fill-rule="evenodd" clip-rule="evenodd" fill="#FFFFFF" d="M171.426,170.794c9.013-2.352,13.063-13.718,16.59-20.38
				c0.653,0,1.306,0,1.829,0c1.568-4.833,11.104-14.5,14.5-15.806c-0.131-0.783-0.262-1.568-0.523-2.221
				c-25.735,0-32.528,12.802-35.402,37.229C169.728,170.794,169.728,170.794,171.426,170.794L171.426,170.794z"/>
			
				<path fill-rule="evenodd" clip-rule="evenodd" fill="#53668D" stroke="#53668D" stroke-width="0.216" stroke-miterlimit="2.4142" d="
				M280.425,175.184l-2.875-9.101c-0.319-0.854-0.771-1.546-1.357-2.078c-0.586-0.53-1.81-0.932-3.673-1.196
				c-1.862-0.268-4.577-0.453-8.144-0.561c-3.567-0.105-8.491-0.157-14.771-0.157c-8.304,0-14.798,0.052-19.482,0.157
				c-4.684,0.107-8.171,0.347-10.46,0.72c-2.288,0.373-3.752,0.878-4.391,1.518c-0.638,0.639-1.118,1.489-1.437,2.555l-2.396,8.144
				h-2.235c0-4.471-0.08-8.863-0.239-13.173c-0.16-4.313-0.506-8.65-1.039-13.016c0.533,0.105,1.731,0.214,3.594,0.319
				c1.863,0.105,4.019,0.213,6.468,0.319c2.449,0.105,5.083,0.185,7.905,0.239c2.821,0.054,5.456,0.079,7.904,0.079h31.938
				c3.939,0,6.787-0.318,8.543-0.957c1.757-0.64,2.955-2.023,3.594-4.151l2.554-7.984h2.235c-0.319,3.3-0.611,6.601-0.878,9.9
				c-0.265,3.301-0.399,6.601-0.399,9.9c0,3.193,0.134,6.361,0.399,9.502c0.267,3.139,0.56,6.148,0.878,9.021H280.425
				L280.425,175.184z"/>
			
				<path fill-rule="evenodd" clip-rule="evenodd" fill="#53668D" stroke="#53668D" stroke-width="0.216" stroke-miterlimit="2.4142" d="
				M264.136,230.756v-1.757c2.875-0.639,5.563-1.569,8.065-2.794c2.501-1.225,4.019-2.155,4.55-2.794
				c0.853-1.064,1.598-2.477,2.237-4.233c0.638-1.757,0.957-3.751,0.957-5.988c0-2.021-0.266-3.964-0.798-5.826
				c-0.532-1.865-1.331-3.514-2.396-4.952c-1.063-1.438-2.422-2.608-4.072-3.514s-3.646-1.355-5.988-1.355
				c-3.3,0-6.041,0.877-8.224,2.634s-4.099,3.967-5.749,6.627c-1.65,2.662-3.194,5.51-4.631,8.545
				c-1.437,3.032-3.061,5.88-4.871,8.542s-3.938,4.87-6.387,6.627s-5.589,2.634-9.421,2.634c-2.236,0-4.578-0.53-7.027-1.595
				c-2.449-1.065-4.71-2.716-6.787-4.952c-2.076-2.235-3.806-5.11-5.189-8.622c-1.384-3.514-2.076-7.771-2.076-12.776
				c0-0.957,0.054-2.207,0.16-3.751c0.106-1.545,0.266-3.141,0.479-4.792c0.212-1.65,0.426-3.194,0.639-4.63
				c0.212-1.438,0.425-2.582,0.638-3.434l16.768,0.957v1.757l-5.749,2.395c-1.065,0.534-2.129,1.093-3.194,1.677
				c-1.065,0.587-1.996,1.385-2.794,2.396c-0.799,1.013-1.437,2.317-1.917,3.914c-0.479,1.596-0.719,3.672-0.719,6.228
				c0,4.044,1.224,7.239,3.673,9.58c2.449,2.343,5.27,3.514,8.464,3.514c3.194,0,5.775-0.878,7.744-2.635
				c1.97-1.757,3.7-3.966,5.191-6.626c1.491-2.662,2.927-5.51,4.311-8.545c1.384-3.033,3.007-5.881,4.871-8.543
				c1.864-2.662,4.152-4.869,6.867-6.626c2.715-1.757,6.202-2.637,10.46-2.637c2.448,0,4.95,0.453,7.505,1.358
				c2.554,0.905,4.924,2.555,7.106,4.951c2.183,2.396,3.965,5.642,5.349,9.741c1.385,4.098,2.077,9.341,2.077,15.729
				c0,2.979-0.186,5.615-0.559,7.903c-0.372,2.289-0.665,4.498-0.878,6.628L264.136,230.756L264.136,230.756z"/>
			<path fill-rule="evenodd" clip-rule="evenodd" fill="#FFFFFF" d="M154.835,252.048c8.099-2.353,22.208-8.492,23.644-16.068
				c0.654,0,1.176,0,1.698,0c10.19-20.509,10.843-26.779-2.612-44.154c-8.099,0-18.68,0.783-17.505,13.063
				c28.87,11.757,15.154,42.455-13.063,31.482c-4.571-5.095-4.571-7.837-11.364-7.837c-3.919,5.094-5.618,8.359-5.618,16.198
				C137.461,252.177,145.953,252.048,154.835,252.048L154.835,252.048z"/>
			
				<path fill-rule="evenodd" clip-rule="evenodd" fill="#1D1D1B" stroke="#000000" stroke-width="0.5" stroke-miterlimit="2.4142" d="
				M311.62,272.087c14.369-22.208,3.526-16.983,2.612-36.317c6.793,0.785,6.923,4.965,15.283,4.442
				c0-7.315-12.671-13.585,1.307-15.676c1.568,24.168,29.654,17.636,26.127,0c10.581,2.352,10.974,11.496,0.522,15.676
				c0,8.753,11.234,3.136,13.978,1.699c1.307-3.005,2.613-5.879,3.92-8.753c18.811-1.045,14.107-15.546,5.747-26.127
				c-23.383-18.941-57.87-13.455-75.244,12.149c0,9.667,1.828,17.505,2.612,31.481c-1.437,7.447-2.221,12.935,0,21.033
				C309.53,271.824,310.574,271.956,311.62,272.087L311.62,272.087z"/>
			
				<path fill-rule="evenodd" clip-rule="evenodd" fill="#FFFFFF" stroke="#000000" stroke-width="0.5" stroke-miterlimit="2.4142" d="
				M376.283,222.186c0.783-0.392,1.567-0.785,2.22-1.177c0-24.297-45.852-22.6-44.283-5.748c3.265-0.783,6.531-1.437,9.667-2.089
				c0.392,1.566,0.652,3.135,0.914,4.703c4.702,0.651,9.405,1.437,13.978,2.22c0.262-1.437,0.521-2.874,0.783-4.311
				C367.008,218.526,369.229,222.186,376.283,222.186L376.283,222.186z"/>
			<path fill-rule="evenodd" clip-rule="evenodd" fill="#FFFFFF" d="M246.67,232.451c0.261-2.089,0.522-4.048,0.784-6.008
				c-2.221,0-4.572,0-6.923,0c-0.392,3.396-0.392,3.396,0.784,5.616C243.143,232.191,244.972,232.322,246.67,232.451L246.67,232.451
				z"/>
			
				<path fill-rule="evenodd" clip-rule="evenodd" fill="#FFFFFF" stroke="#000000" stroke-width="0.5" stroke-miterlimit="2.4142" d="
				M348.197,229.239c0.261-1.96,0.392-3.788,0.522-5.617c-1.829-0.262-3.789-0.392-5.749-0.522
				C338.922,228.064,344.017,229.239,348.197,229.239L348.197,229.239z"/>
			
				<path fill-rule="evenodd" clip-rule="evenodd" fill="#FFFFFF" stroke="#000000" stroke-width="0.5" stroke-miterlimit="2.4142" d="
				M454.924,268.56c11.104-8.359,8.491-13.716,4.311-25.343c-1.698-0.131-3.396-0.261-5.226-0.392
				c-1.437,25.082-13.978,1.046-25.342,5.226C431.933,260.068,442.514,268.56,454.924,268.56L454.924,268.56z"/>
			<path fill-rule="evenodd" clip-rule="evenodd" fill="#FFFFFF" d="M272.797,298.944c-1.176-3.527-1.176-3.527-0.784-13.194
				c-7.316,1.176-6.532,2.481-6.14,10.975C268.486,298.422,268.486,298.422,272.797,298.944L272.797,298.944z"/>
			<path fill-rule="evenodd" clip-rule="evenodd" fill="#FFFFFF" d="M258.035,442.64c12.802-10.452,21.554-19.595,24.951-35.403
				c-18.941-5.485-54.604-17.243-65.185-34.878c-4.965-1.959-11.104-15.152-13.978-19.726c-1.175-0.131-2.351-0.261-3.527-0.392
				c-2.221,14.369-6.793,29.653-3.005,45.46c4.964,9.145,12.671,17.637,19.203,26.126C230.21,435.324,240.661,442.64,258.035,442.64
				L258.035,442.64z"/>
			
				<path fill-rule="evenodd" clip-rule="evenodd" fill="#FFFFFF" stroke="#000000" stroke-width="0.5" stroke-miterlimit="2.4142" d="
				M369.229,479.139c10.973-2.352,13.717-10.32,18.289-18.289c0.652-0.131,1.306-0.262,1.828-0.392
				c4.703-7.969,9.406-15.806,13.978-23.645c0.653,0,1.176,0,1.698,0c4.572-8.099,11.104-16.198,10.582-24.036
				c-0.914,0-1.829,0-2.744,0c-3.004,3.005-3.004,3.005-13.063,20.508c-0.522,0-1.045,0-1.698,0
				c-16.982,24.428-16.982,24.428-17.505,26.258c-0.522,0-1.045,0-1.698,0C378.111,461.765,364.265,477.703,369.229,479.139
				L369.229,479.139z"/>
			
				<path fill-rule="evenodd" clip-rule="evenodd" fill="#FFFFFF" stroke="#000000" stroke-width="0.5" stroke-miterlimit="2.4142" d="
				M332.521,473c30.438-8.101,44.154-38.799,50.686-65.055c-7.707,1.177-21.292,26.387-35.009,33.18c0,0.523,0,1.175,0,1.829
				c-5.227,2.22-10.451,4.573-15.677,6.924c0,0.522,0,1.175,0,1.829c-5.879,2.874-10.059,13.063-9.667,21.293
				C326.12,473,329.386,473,332.521,473L332.521,473z"/>
			<path fill-rule="evenodd" clip-rule="evenodd" fill="#FFFFFF" d="M239.616,479.347c5.225-3.526,5.225-3.526,7.054-3.92
				c0-0.651,0-1.306,0-1.828c0.654,0,1.176,0,1.698,0c2.221-5.226,2.221-5.226,2.221-8.622c-1.306-1.437-12.671-4.963-24.951-11.887
				c-9.667-7.447-21.685-21.946-27.041-33.18c-0.784-0.132-1.698-0.261-2.613-0.392C194.679,440.289,217.54,479.347,239.616,479.347
				L239.616,479.347z"/>
			<path fill-rule="evenodd" clip-rule="evenodd" fill="#FFFFFF" d="M289.609,476.702c4.337,0.806,8.44,1.315,11.429,1.523
				c15.153-5.879,15.938-19.726,13.978-32.66c-7.968-3.396-18.158,4.573-23.905-3.525c-0.392-5.227-0.916-10.451-1.466-15.655
				l0.007,26.43c0.816,0.718,1.68,1.324,2.634,1.896c9.406,0,13.717,0.522,15.807,10.059c-9.411,4.261-14.613,5.198-18.425,3.663
				L289.609,476.702L289.609,476.702z"/>
			
				<path fill-rule="evenodd" clip-rule="evenodd" fill="#53668D" stroke="#53668D" stroke-width="0.216" stroke-miterlimit="2.4142" d="
				M229.484,478.435c0.213-2.341,0.319-4.285,0.319-5.829c0-1.543,0-3.221,0-5.029c0-4.046-0.585-7.639-1.756-10.78
				c-1.171-3.141-2.715-5.749-4.631-7.824c-1.916-2.076-4.153-3.646-6.707-4.71c-2.555-1.065-5.27-1.598-8.144-1.598
				c-7.666,0-13.282,2.155-16.847,6.467c-3.566,4.312-5.35,9.821-5.35,16.529c0,2.341,0.027,4.551,0.081,6.626
				c0.053,2.076,0.133,4.126,0.239,6.148H229.484L229.484,478.435z M280.426,509.255l-4.152-12.297
				c-0.32-1.063-0.693-1.917-1.119-2.555c-0.426-0.639-1.091-1.145-1.996-1.518c-0.904-0.373-2.235-0.638-3.992-0.798
				c-1.757-0.159-4.179-0.239-7.266-0.239h-57.808c-3.726,0-6.68,0.054-8.863,0.16c-2.183,0.105-3.833,0.293-4.951,0.558
				c-1.118,0.268-1.889,0.666-2.315,1.198c-0.426,0.533-0.799,1.225-1.118,2.076l-4.471,13.414h-2.236
				c0.319-3.089,0.612-6.067,0.878-8.943c0.266-2.873,0.398-5.695,0.398-8.463c0-5.11-0.212-10.22-0.638-15.331
				c-0.426-5.11-0.639-10.22-0.639-15.33c0-3.726,0.453-7.584,1.357-11.576c0.905-3.992,2.45-7.64,4.631-10.939
				c2.183-3.3,5.03-6.015,8.543-8.144c3.513-2.13,7.878-3.195,13.094-3.195c5.11,0,9.422,1.173,12.935,3.514
				c3.514,2.344,6.334,5.322,8.464,8.944c2.129,3.619,3.646,7.583,4.551,11.895c0.905,4.313,1.358,8.437,1.358,12.377
				c0,2.235,0,4.577,0,7.027c0,2.447-0.107,4.896-0.32,7.345H252c5.536,0,9.821-0.026,12.855-0.08
				c3.034-0.054,5.324-0.213,6.867-0.479c1.543-0.268,2.501-0.586,2.875-0.959c0.373-0.371,0.665-0.878,0.877-1.518l4.952-14.372
				h2.235c-0.107,1.703-0.24,3.62-0.4,5.749c-0.16,2.13-0.319,4.232-0.479,6.308c-0.16,2.078-0.266,4.101-0.319,6.07
				c-0.054,1.968-0.08,3.646-0.08,5.029c0,4.046,0.133,8.277,0.399,12.694c0.266,4.419,0.559,8.545,0.878,12.377H280.426
				L280.426,509.255z"/>
			
				<text transform="matrix(8.201668e-015 -1.4993 1 6.008430e-014 197.8984 392.6216)" fill="#B41F21" font-family="'TimesNewRomanPSMT'" font-size="62.211">onlin</text>
			
				<path fill-rule="evenodd" clip-rule="evenodd" fill="#53668D" stroke="#53668D" stroke-width="0.216" stroke-miterlimit="2.4142" d="
				M191.797,117.695c-3.407,0-6.387,0.134-8.942,0.399c-2.554,0.267-4.099,0.506-4.63,0.72c-0.746,0.319-1.331,1.171-1.757,2.555
				l-3.034,9.422h-2.235c0-4.473-0.08-8.864-0.24-13.175c-0.159-4.312-0.505-8.65-1.038-13.016c5.43,0.213,10.859,0.427,16.289,0.64
				c5.429,0.212,10.858,0.319,16.288,0.319h63.237c3.939,0,6.733-0.268,8.383-0.798c1.651-0.532,2.901-2.023,3.754-4.473
				l2.554-7.825h2.235c-0.319,3.195-0.611,6.441-0.878,9.741c-0.265,3.301-0.399,6.601-0.399,9.901c0,3.194,0.134,6.361,0.399,9.502
				c0.267,3.141,0.56,6.201,0.878,9.183h-2.235l-2.554-7.506c-0.853-2.449-2.103-3.992-3.754-4.63
				c-1.65-0.641-4.444-0.96-8.383-0.96H191.797L191.797,117.695z"/>
			
				<path fill-rule="evenodd" clip-rule="evenodd" fill="#53668D" stroke="#53668D" stroke-width="0.216" stroke-miterlimit="2.4142" d="
				M280.425,84.001l-1.596-6.387c-0.534-2.449-1.278-3.673-2.236-3.673c-0.638,0-1.65,0.558-3.034,1.677
				c-1.384,1.116-3.619,3.007-6.707,5.669l-27.147,23.475l-22.996-29.543c-0.212-0.213-0.479-0.48-0.798-0.799
				c-0.32-0.319-0.692-0.479-1.118-0.479c-0.746,0-1.49,0.851-2.236,2.554l-2.395,6.868h-2.236c0.32-2.768,0.613-5.456,0.879-8.064
				c0.267-2.608,0.399-5.296,0.399-8.064c0-2.768-0.132-5.457-0.399-8.065c-0.266-2.608-0.559-5.297-0.879-8.064h2.236
				c0.533,2.768,1.384,5.483,2.555,8.144c1.171,2.662,2.556,5.111,4.153,7.347l18.684,25.869l38.006-32.895
				c0.958-0.852,1.783-1.705,2.476-2.557c0.691-0.852,1.277-1.757,1.757-2.714c0.479-0.959,0.931-2.05,1.357-3.274
				s0.852-2.634,1.277-4.231h2.235c-0.319,2.981-0.611,5.963-0.878,8.943c-0.265,2.981-0.399,5.961-0.399,8.942
				c0,3.3,0.134,6.548,0.399,9.741c0.267,3.194,0.56,6.387,0.878,9.581H280.425L280.425,84.001z"/>
			
				<path fill-rule="evenodd" clip-rule="evenodd" fill="#53668D" stroke="#53668D" stroke-width="0.216" stroke-miterlimit="2.4142" d="
				M280.425,420.627c-1.17-3.725-2.209-6.894-3.114-9.5c-0.905-2.608-1.943-4.021-3.114-4.233c-0.533-0.105-2.501-0.186-5.91-0.239
				c-3.406-0.052-7.637-0.08-12.694-0.08s-10.62-0.025-16.688-0.079c-6.068-0.055-12.056-0.08-17.965-0.08s-11.445,0-16.608,0
				s-9.341,0-12.536,0c-3.407,0-6.387,0.134-8.942,0.398c-2.554,0.268-4.099,0.507-4.63,0.72c-0.746,0.319-1.331,1.171-1.757,2.555
				l-3.034,9.422h-2.235c0-4.473-0.08-8.863-0.24-13.175c-0.159-4.312-0.505-8.648-1.038-13.014
				c5.43,0.212,10.859,0.399,16.289,0.559c5.429,0.159,10.858,0.293,16.288,0.398l17.247,0.319v-0.319
				c-4.685-3.3-8.091-7.292-10.221-11.977c-2.129-4.684-3.194-9.741-3.194-15.171c0-2.555,0.239-5.242,0.719-8.064
				c0.479-2.821,1.384-5.43,2.714-7.824c1.331-2.396,3.247-4.365,5.749-5.909c2.501-1.543,5.776-2.314,9.821-2.314
				c2.449,0,5.883,0.054,10.301,0.159s10.299,0.159,17.646,0.159c4.258,0,7.666,0,10.22,0c2.554,0,4.604-0.054,6.147-0.159
				s2.715-0.266,3.514-0.479c0.798-0.214,1.517-0.479,2.156-0.8c0.639-0.319,1.223-0.957,1.757-1.914
				c0.532-0.959,0.984-2.078,1.357-3.354c0.373-1.278,0.719-2.582,1.038-3.912c0.319-1.33,0.639-2.528,0.958-3.594h2.235
				c-0.106,2.022-0.239,3.807-0.399,5.351c-0.16,1.543-0.319,3.033-0.479,4.471c-0.16,1.438-0.265,2.981-0.319,4.63
				c-0.053,1.651-0.08,3.594-0.08,5.829c0,2.13,0.027,4.046,0.08,5.749c0.054,1.703,0.159,3.328,0.319,4.872
				c0.161,1.543,0.319,3.112,0.479,4.71c0.16,1.597,0.292,3.354,0.399,5.271h-2.235c-1.065-4.047-1.917-7.107-2.554-9.184
				c-0.639-2.075-1.65-3.485-3.034-4.231c-0.534-0.318-1.625-0.532-3.274-0.64c-1.65-0.105-4.045-0.212-7.186-0.317
				c-3.141-0.107-7.133-0.161-11.977-0.161c-4.845,0-10.779,0-17.806,0c-2.875,0-5.615,0.241-8.224,0.72s-4.951,1.355-7.026,2.634
				s-3.726,3.087-4.95,5.431c-1.225,2.341-1.837,5.43-1.837,9.263c0,6.387,2.05,11.443,6.149,15.169
				c4.098,3.727,9.341,5.589,15.729,5.589h21.079c1.597,0,3.433-0.025,5.51-0.079c2.075-0.054,4.072-0.105,5.987-0.16
				c1.917-0.054,3.621-0.188,5.111-0.398c1.49-0.213,2.395-0.48,2.715-0.8c0.638-0.532,1.223-1.355,1.756-2.475
				c0.532-1.116,1.038-2.315,1.517-3.594c0.479-1.277,0.905-2.528,1.278-3.753c0.373-1.224,0.719-2.314,1.038-3.271h2.235
				c-0.319,3.405-0.611,6.706-0.878,9.9c-0.265,3.192-0.399,6.493-0.399,9.9c0,3.62,0.134,7.186,0.399,10.699
				c0.267,3.513,0.56,6.973,0.878,10.379H280.425L280.425,420.627z"/>
			
				<text transform="matrix(2.648454e-014 -1.4477 1 3.834101e-014 258.9224 325.9087)" fill="#53668D" font-family="'TimesNewRomanPSMT'" font-size="109.9022">y</text>
			<g>
				
					<circle fill-rule="evenodd" clip-rule="evenodd" fill="#FFFFFF" stroke="#312783" stroke-width="0.5102" stroke-miterlimit="2.4142" cx="180.714" cy="156.211" r="19.022"/>
				
					<radialGradient id="SVGID_1_" cx="55.1558" cy="935.8901" r="112.1242" gradientTransform="matrix(7.011831e-015 -0.2648 0.2648 7.011831e-015 -56.4017 157.4908)" gradientUnits="userSpaceOnUse">
					<stop  offset="0" style="stop-color:#A1DAF8"/>
					<stop  offset="1" style="stop-color:#2C2F87"/>
				</radialGradient>
				<path fill="url(#SVGID_1_)" d="M166.49,157.491c0,1.243,0.295,2.294,0.885,3.154c0.59,0.86,1.322,1.565,2.196,2.114
					c0.874,0.55,1.846,0.956,2.917,1.219s2.064,0.395,2.982,0.395h0.394v-3.011c0-2.15-0.066-4.074-0.197-5.771
					c-0.131-1.696-0.218-3.095-0.262-4.193h-1.049c-0.917,0-1.846,0.083-2.785,0.251c-0.939,0.167-1.781,0.489-2.523,0.968
					c-0.743,0.478-1.355,1.11-1.835,1.899C166.73,155.305,166.49,156.297,166.49,157.491L166.49,157.491z M193.056,170.717
					c0.987-1.239,1.784-2.66,2.404-4.248c0.83-2.127,1.245-4.48,1.245-7.062c0-2.867-0.448-5.663-1.344-8.387
					c-0.896-2.724-2.174-5.161-3.834-7.313l-1.77,1.22c0.743,1.194,1.3,2.557,1.671,4.086s0.557,3.034,0.557,4.516
					c0,1.96-0.404,3.704-1.213,5.233c-0.808,1.529-1.824,2.819-3.047,3.871c-1.224,1.051-2.545,1.852-3.965,2.401
					c-1.42,0.55-2.742,0.824-3.965,0.824h-1.18v-19.068c0-1.146-0.011-2.055-0.033-2.724c-0.021-0.669-0.109-1.195-0.262-1.577
					c-0.153-0.383-0.393-0.634-0.721-0.753s-0.797-0.18-1.409-0.18c-2.054,0-3.856,0.467-5.407,1.398
					c-1.551,0.932-2.851,2.15-3.899,3.656c-1.049,1.505-1.835,3.237-2.36,5.196c-0.524,1.96-0.786,3.943-0.786,5.95
					c0,2.677,0.415,5.161,1.245,7.455c0.591,1.634,1.336,3.115,2.262,4.444c-3.534-3.72-5.553-8.147-5.553-13.44
					c0-10.391,8.548-19.028,19.029-19.028c10.48,0,19.029,8.548,19.029,19.028C199.75,162.007,197.143,167.206,193.056,170.717
					L193.056,170.717z"/>
			</g>
		</g>
	</g>
</g>
</svg>
