<?xml version="1.0" encoding="utf-8"?>
<!-- Generator: Adobe Illustrator 15.0.2, SVG Export Plug-In . SVG Version: 6.00 Build 0)  -->
<!DOCTYPE svg PUBLIC "-//W3C//DTD SVG 1.1//EN" "http://www.w3.org/Graphics/SVG/1.1/DTD/svg11.dtd">
<svg version="1.1" id="Ebene_1" xmlns="http://www.w3.org/2000/svg" xmlns:xlink="http://www.w3.org/1999/xlink" x="0px" y="0px"
	 width="253.264px" height="342px" viewBox="0 0 253.264 342" enable-background="new 0 0 253.264 342" xml:space="preserve">
<g>
	<g>
		<path fill="#DADADA" d="M125.719,134.466c0-1.922-0.267-6.14-1.381-9.141c-0.402-1.083-0.912-2.012-1.563-2.612
			c-4.958-4.565-16.245-10.238-25.249-10.238c-0.908,0-6.562,1.273-9.384,2.557c-0.861,0.354-3.581,2.495-4.844,2.759
			c-1.851-1.5-3.051-5.493-3.051-7.799c0-8.065,10.55-14.227,10.55-23.403c0-0.888-1.822-10.815-1.822-11.704
			c0-0.887,0.323-2.729,0.502-4.103c1.006-6.961,9.597-14.338,15.506-14.338c0.908,0,15.461,1.419,16.371,1.419
			c1.036,0,2.024-0.083,2.984-0.215v-8.888c-0.209,0.142-0.417,0.236-0.621,0.236c-1.635,0-3.818-2.616-3.818-4.255
			c0-0.887-0.363-3.369-0.363-4.256c0-0.885,0.398-3.385,1.264-4.539c0.769-1.012,2.041-2.178,3.539-3.319V1.517
			c-5.422-0.711-10.815-1.149-15.886-1.457c-10.51-0.64-15.194,3.928-20.975,11.5l-1.417,2.303
			c-10.246-6.707-16.856-4.093-20.907,6.056C48.14,7.613,18.991,39.238,29.68,61.765l-0.614,1.3
			c-13.58,3.412-15.23,30.462-16.115,40.724c-0.721,8.274,4.23,14.564,4.724,21.632c0.064,0.901-1.436,1.873-2.021,2.353
			c-6.276,5.099-7.962,6.05-9.979,13.959c-2.109,8.244-1.659,19.296,3.804,26.563c11.279,15.017,19.552,9.176,34.157,5.166
			c1.463,1.939,5.853,7.678,6.056,9.762c-44.324,22.18-35.887,19.496-17.311,61.07c0.466,1.045,3.835,8.435,3.852,8.967
			c0.012,0.527-1.108,1.035-1.455,1.233c-3.861,2.184-18.658,8.203-34.776,15.389h0.369c-0.017,0.476-0.032,0.952-0.032,1.431
			C0.337,310.353,26.004,342,124.311,342c0.009,0,0.018,0,0.027,0v-36.103c-6.782-1.619-16.807-5.351-16.807-10.963
			c0-1.682,4.325-8.192,4.466-8.321h1.229c1.414,0.331,2.124,0.487,2.846,0.806c3.688,3.283,2.575,8.794,6.252,11.598
			c0,0,0.892,0.071,2.015,0.097v-9.534c-3.315-2.335-5.166-9.642-5.166-12.198c0-1.864,0.662-7.397,3.459-8.157
			c0.631-0.004,1.216,0.316,1.707,0.843v-32.482c-4.836-1.41-9.531-4.819-9.531-10.919c0-5.617,4.934-7.618,9.531-8.246v-3.845
			c-1.063,0.233-1.848,0.389-2.076,0.389c-3.408,0-8.548-1.993-8.548-7.092c0-2.792,4.593-4.61,7.276-4.61
			c1.086,0,2.202,0.316,3.347,0.742v-7.174c-0.515-0.187-1.077-0.302-1.71-0.302c-3.73,0-7.41,4.248-9.459,4.248
			c-2.09,0-4.274-2.836-8.003-2.836c-0.911,0-2.236,1.96-2.599,3.072c-0.318,1.018,0.008,2.071,0.008,3.136
			s-0.418,2.387-1.009,2.961c-0.502,0.489-0.582,1.117-1.495,1.117h-4.317c-5,0-18.002-24.334-18.273-25.31
			c-0.682-2.438-1.599-6.43-1.599-7.316c0-0.886-0.681-4.796-0.363-10.468c0.319-6.473-3.273-11.25-3.273-17.721
			c0-0.887,0.412-4.303,0.87-6.072c0.542-2.042,2.711-3.6,4.023-2.953c0.467,0.233,2.38,3.261,2.38,4.768
			c0,0.887-0.287,4.316,0.486,5.957c1.727,3.723,9.43,8.406,12.611,8.406c0.957,0,2.91-0.576,2.91-3.191
			c0-0.885-1.818-2.483-1.818-3.368c0-1.464,1.22-1.169,2.931-2.205c0,0,0.683-0.346,0-1.243c-2.456-1-4.972-1.301-7.519-1.832
			c-2.545-0.533-7.055-6.557-7.055-9.259c0-0.934,2.549-3.728,4.729-3.728c0.908,0,0.626,0.474,0.626,0.474
			c-0.494,2.445,1.123,6.969,3.31,8.652c1.315,1.02,3.341,1.872,4.249,1.872c0.91,0,2.561-0.188,2.971-0.31
			c4.956-1.458,6.305-5.367,6.305-8.734c0-1.152-0.464-0.725,0.493-1.944c0.974,0.267,6.782,2.785,6.782,5.312
			c0,1.995-6.18,5.319-6.18,6.737c0,3.681,5.816,0.756,5.816,3.902c0,0.889-2.181,9.886-2.181,10.773v5.408
			c0,7.933-5.458,5.669-5.458,12.899c0,1.462,3.361,5.69,4.496,6.134c1.094,0.4,1.616,1.011,2.521,1.765
			c0.749,0.963,0.633,1.075,1.414,2.382c1.248,2.073,2.896,1.894,4.41,1.607c3.504-0.648,5.215-1.233,7.968-1.295v-5.062
			c-1.689-1.384-2.618-3.567-2.618-6.063c0-0.885,1.815-7.093,1.815-7.979c0-0.889,0.009-0.49-0.09-0.876
			c0.09-1.089,0.096-2.169,0.23-2.832c-0.129-0.309-1.23-11.896-1.23-12.783c0-3.354,0.998-6.641,1.892-9.979
			C125.062,140.043,125.719,137.303,125.719,134.466z M58.426,133.518c-1.312,2.775-3.141,5.896-5.23,8.331
			c-5.048,5.852-13.237,9.285-18.97,9.285c-1.5,0-13.641-1.952-13.641-7.27c0-3.325,0.994-6.137,4.075-10.071
			c4.048-1.532,5.702,4.376,8.932,6.238c2,1.109,4.792,1.968,5.701,1.968c0.913,0,2.795-0.203,3.979-0.729
			c5.59-2.493,8.962-6.317,8.962-11.238c0-4.478-3.473-10.994-10.023-11.66c-0.59-0.043-1.615-1.372-1.615-2.35
			c0-3.546,5.816-8.51,9.457-8.51c6.276,0,10.913,12.678,10.913,16.668C60.966,126.44,59.91,130.379,58.426,133.518z M90.613,306.46
			c-7.64,0-19.436-17.686-21.486-21.145c-2.133-3.591-5.525-9.705-5.601-14.563c-0.221-2.918-0.221-0.656-0.1-4.955
			c0-0.715-0.244-2.896,0.853-2.93c0.761-0.024,1.064,0.163,1.643,0.485c1.005,0.563,1.989,5.131,3.149,7.013
			c5.048,8.164,11.885,17.318,21.251,21.438c1.688,0.711,3.568,1.275,5.434,1.765c1.862,0.485,4.865,1.41,4.865,3.494
			C100.621,299.905,94.936,306.46,90.613,306.46z M108.147,251.375c3.046,1.286,11.599,2.646,11.962,2.693
			c0.772,0.132,2.336,1.235,2.336,2.57c0,0.884-1.977,4.294-3.158,6.463c-1.686,3.105-3.389,6.65-5.709,9.961
			c-1.65,2.364-8.109,8.563-12.048,8.22c-5.55-0.478-19.293-9.5-20.143-10.119c-4.461-3.254-9.573-10.224-12.256-14.568
			c-2.002-3.284-5.619-10.599-5.619-14.676c0-0.887,1.807-15.546,3.414-22.911c0.318-1.447,0.709-1.523,1.842-1.914
			c1.251,0.74,1.966,1.588,2.285,2.605C76.053,235.171,94.277,245.526,108.147,251.375z M72.245,68.504
			c-0.104,1.281-2.312,2.656-2.962,3.222c-2.121,1.846-4.668,3.972-6.395,6.279c-2.958,4.034-4.601,8.962-7.783,12.773
			c-2.547,3.016-4.505,4.676-6.689,4.676c-0.91,0-1.053-0.85-1.053-0.85c-0.398-1.488-0.43-2.528-0.43-3.416
			c0-0.886,0.276-1.882,0.487-2.678c1.826-6.852,5.573-17.469,14.78-19.782c2.265-0.567,6.044-2,6.954-2
			c0.908,0,2.113-0.026,2.698,0.436C72.146,67.395,72.305,67.779,72.245,68.504z M67.513,57.864c-0.909,0-3.931,0.682-5.574,1.497
			c-1.112,0.55-3.054,3.388-3.8,2.373c-0.777-1.053-0.809-2.274-0.809-3.163c0-5.405,9.641-10.635,15.462-10.635
			c0.905,0,6.582,0.845,9.855,1.508c1.775,0.355,4.877,1.681,5.786,1.681c1.319,0,2.001-1.551,2.001-3.012
			c0-0.888-0.713-3.896-1.459-6.031c-0.729-2.098-9.33-13.37-12.981-14.507c-0.391-0.235-0.479-0.522-0.502-0.93
			c-0.017-0.447,0.079-0.646,0.502-1.039c0.813-0.58,1.343-0.724,2.253-0.724c2.865,0,12.352,4.549,13.582,5.457
			c4.168,3.059,5.763,6.216,7.046,11.462c0.362,1.472,0.101,2.857-0.171,3.874c-0.411,1.419-1.355,2.948-2.221,3.969
			c-0.908,1.063-2.795,1.958-3.386,3.156c-1.185,2.349-0.614,5.396-2.069,7.124c-2.861,3.459-4.78,3.614-7.507,3.614
			C77.38,63.539,76.336,57.864,67.513,57.864z M96.617,137.657c-0.908,0-2.959-1.605-2.91-3.013
			c0.049-1.419,1.363-3.371,3.457-3.371c1.315,0,2.384,2.128,2.364,2.836C99.484,135.551,98.301,137.657,96.617,137.657z
			 M106.983,130.919c-1.093,0-6-2.836-9.819-2.836c-2.186,0-6.004,1.771-6.551,1.771c-0.909,0-0.857-0.408-1.269-0.857
			c0.38-0.815,0.723-1.091,0.723-1.977c0-0.887-0.312-0.408-0.599-0.722h-0.977c-2.125,1.743-3.932,3.859-5.546,5.329
			c-0.861-1.515-1.247-3.191-1.247-4.077c0-3.899,5.801-6.825,8.894-7.177c1.185-0.135,2.022-0.8,2.931-0.8
			c0.91,0,2.728,0.708,3.641,0.708c0.136,0,4.545,0.665,4.545,2.305c0,3.193,6.914,2.128,6.914,6.382
			C108.623,129.854,107.893,130.919,106.983,130.919z M116.628,182.663c-0.338,0.389-0.366,0.383-1.276,0.383
			c-2.639,0-4.911-2.303-4.911-5.141c0-3.591,1.476-4.682,5.386-6.17c-0.294,3.354-0.637,4.378-0.656,5.996
			c-0.012,0.887,1.455,2.438,1.432,3.324C116.602,181.054,117.047,182.185,116.628,182.663z"/>
		<path d="M170.479,144.141c1.179,2.461,2.031,2.736,3.804,2.736c6.865,0,6.052-8.866,9.097-8.866c0.91,0,1.819,0.712,2.727,0.712
			c0.91,0,2.666-1.638,3.479-2.304c1.506-1.197,1.252-2.532,1.252-3.371c0-12.28-10.271-19.372-24.562-20.215
			c-2.935,0.356-3.269,0-3.644,0c-2.927,0.356-6.53,0.553-9.17,1.882c-4.546,2.262-11.331,6.382-15.198,10.948
			c-0.639,0.755-1.994,6.233-1.994,7.916c0,0.887,2.553,10.745,2.546,13.655c0,2.095-1.819,10.282-1.819,11.169
			c0,1.817-0.238,4.846,1.563,7.255c1.603-0.208,7.169-8.893,7.169-12.042c0-4.654-4.369-5.41-4.369-11.703
			c0-1.153,0.23-2.128,1.458-2.128c0.91,0,4.768,4.256,5.688,4.25c0,0,1.943,0.586,2.9-0.006c0.408-0.255,0.87-0.867,0.87-0.867
			c-1.522-2.451-4.362-5.771-4.362-7.809c0-1.42,3.837-4.212,4.864-4.081c2.218,0.701,0.542,3.749,0.726,5.169
			c0.455,3.19,4.777,7.6,8.046,7.6c1.596,0,5.677-1.738,6.594-2.672c3.82-3.944,1.954-4.508,1.954-7.967
			c0-0.887,0.367-0.53,0.32-1.115c0.23,0.051,0.23-0.303,1.138-0.303c2.409,0,4.73,3.723,4.73,5.142
			C176.284,139.828,174.474,143.246,170.479,144.141z M162.642,137.301c-1.452,0-2.729-1.905-2.729-3.546
			c0-0.664,0.097-2.836,2.553-2.836c2.13,0,3.269,1.064,3.269,3.19C165.733,135.264,165.28,137.301,162.642,137.301z
			 M173.373,127.02c-0.909,0-0.782-0.054-1.101,0.243c0.008,0.996,0.008,2.063-0.063,3.263c-4.513-0.986-6.539-1.914-10.414-1.422
			c-0.063-0.491-0.431-0.491-0.431-1.376c0-0.886,0.735-0.886,0.735-1.773s0.047-0.408-0.248-0.715h-2.441
			c-0.907,0.004-3.315,2.488-4.226,2.488c-0.909,0-1.094-0.886-1.094-1.773c0-4.831,7.601-7.975,11.444-8.865
			c1.147-0.151,2.488-0.228,5.486,0c1.841,0.357,3.787,0.593,5.159,1.168c3.811,1.683,8.467,7.076,8.467,10.888
			c0,1.242-1.091,3.191-3.275,3.191C178.469,132.337,176.284,127.02,173.373,127.02z M124.337,299.114v-9.534
			c0.65,0.456,1.351,0.742,2.111,0.742c0.909,0,2.182-0.882,3.09-0.882c2.181,0,6.731,4.432,6.731,5.85
			c0,2.747-5.18,3.202-8.928,3.713C126.444,299.124,125.305,299.135,124.337,299.114z M215.148,252.424l0.424-1.108
			c0.422-5.016,18.698-29.714,18.915-35.818c0.412-11.626-28.867-26.862-29.099-29.788c2.114-2.72,4.242-5.464,6.1-8.362
			c2.106-0.111,10.103,8.183,20.453,8.183c25.947,0,24.96-30.202,14.188-45.923c14.847-29.109-2.498-28.631-1.452-36.171
			c1.061-7.699,3.3-13.54,3.27-21.723c0,0,0.184-4.41-0.472-6.014c-3.028-7.424-9.465-5.031-9.354-14.11
			c0.2-15.444-13.332-21.814-25.205-27.957c-2.258-1.166-0.287-14.36-12.719-21.05c-14.506-7.805-33.873-14.382-48.107-3.657
			c-8.232-3.965-18.041-6.132-27.752-7.408v31.111c3.55-2.705,8.397-5.264,11.023-5.264c0.137,0,9.681,1.773,11.276,1.773
			c0.907,0,5.979-0.874,8.658-1.894c2.051-0.752,3.797-2.336,5.433-3.309c1.954-1.155,6.283-2.952,7.192-2.952
			c0.907,0,2.359-0.354,3.269-0.354c2.911,0,10.23,3.012,13.045,5.129c1.029,0.768,3.325,1.696,3.325,3.38
			c0,0.887-0.248,1.224-0.415,1.368c-0.94,0.164-11.746-0.304-11.746-0.304c-1.061,0.346-2.75,1.774-2.75,2.661
			c0,2.084,6.618,6.399,7.527,6.798c1.683,0.753,4.242,0.624,5.838,1.422c9.679,4.966,18.61,12.063,25.061,20.04
			c1.499,1.863,3.525,5.638,3.773,6.494c0.254,0.892,0.357,1.595,0.357,2.483c0,1.417-1.723,3.369-4.361,3.369
			c-0.908,0-3.597-1.437-4.544-2.544c-1.277-1.463-2.234-3.571-2.234-5.436c0-6.647-2.958-11.88-10.686-11.88
			c-0.907,0-4.543,1.064-5.453,1.064c-0.909,0-0.853-3.278-1.873-4.681c-4.059-5.57-9.18-11.105-15.43-12.695
			c-0.344,0.001-1.029-0.102-5.423,0c-3.612,0.707-7.671,1.54-11.22,2.915c-1.181,0.441-7.567,5.597-10.07,5.597
			c-0.735,0-2.91-0.842-2.91-2.129c0-3.986,10.548-5.584,10.548-9.574c0-1.906-3.365-2.128-3.819-2.128
			c-5.326,0-15.691,5.171-19.012,8.808c-0.572,0.596-2.535,6.732-4.379,7.978v8.888c7.389-1.022,12.878-5.46,21.574-5.46
			c0.909,0,9.879,1.197,14.56,1.506c20.008,1.376,29.998,15.429,29.998,34.665c0,0.89-0.502,4.126-0.094,5.811
			c2.318,8.953,8.467,15.248,8.467,23.271l-1.093,33.509c0.726,10.055,7.998,4.703,7.998,14.19c0,0.885-0.365,5.396-0.82,7.83
			c-0.271,1.462-1.214,3.048-1.85,3.846c-0.368,0.484-3.509,1.974-4.419,1.974c-2.503,0-3.947-4.674-5.845-5.32
			c-2.041,0.567-0.549,5.231-0.86,7.634c-0.639,4.954-3.789,14.643-4.124,15.643c-0.599,1.774-1.282,2.944-1.833,4.275
			c-0.86,2.125-2.8,5.254-2.8,6.14c0,0.078-0.038,0.2-0.093,0.34c0.501,1.885,3.571,9.267,3.571,10.084
			c0,0.887,3.269,11.523,3.269,12.414c0,0.888,0.367,3.191,0.367,4.078c0,4.74-6.125,14.586-8.852,19.063
			c-5.135,8.334-13.946,17.797-22.494,23.211c-2.743,1.737-6.811,5.247-9.945,5.247c-5.821,0-22.734-20.172-22.734-25.355
			c0-0.893,0.402-1.532,0.944-2.19c1.547-0.466,2.875-0.737,3.964-0.737c6.775-0.045,15.316-2.23,21.863-6.354
			c4.958-3.148,12.375-8.962,16.105-13.529c3.182-3.856,6.118-8.702,8.343-13.088c1.004-1.996,2.981-5.422,2.981-6.306
			c0-0.394,0.22-1.686,0.471-3.018c-0.808,1.171-1.524,2.146-1.524,2.146c-2.121,1.756-26.298,25.038-35.666,25.2h-14.181
			c-1.611,0-3.439-0.256-5.249-0.784v32.482c0.767,0.819,1.299,2.148,1.381,3.594c0.05,0.882-0.729,3.721-0.729,4.608
			c0,1.861,0.956,5.496,4.365,5.496c0.912,0,6.914-2.13,7.824-2.13c3.771,0,5.637,2.707,5.637,6.74
			c0,4.524-4.322,18.441-12.915,18.441c-0.93,0-3.021-0.313-5.564-0.919V342c98.285-0.006,123.947-31.651,123.947-70.686
			c0-0.479-0.015-2.497-0.032-2.973C248.252,268.342,228.153,259.076,215.148,252.424z M216.847,152.261
			c1.572-0.418,3.255-1.487,4.162-1.487c0.542,0,4.092,6.383,8.183,6.383c0.917,0,1.609-0.35,2.305-0.475
			c2.878-1.802,1.459-5.655,2.878-7.571c1.197-0.55,2.455-0.464,3.469-0.437c1.388,2.914,2.633,7.197,2.633,10.255
			c0,2.662-2.911,8.516-7.282,8.516c-0.907,0-2.885-0.285-4.249-0.86c-1.141-0.444-2.329-1.034-2.918-1.423
			c-1.317-0.867-8.925-10.029-9.18-11.065C216.553,152.936,216.847,152.261,216.847,152.261z M158.557,300.108
			c-1.633,0.802-7.216,3.478-9.177,3.478c-0.997,0-4.546-0.088-4.546-3.19c0-3.192,5.279-11.514,7.471-13.692
			c1.589-1.55,4.141-2.603,6.229-3.582c10.916-5.092,18.26-16.696,26.051-26.667c0,0,1.107-0.303,1.676,0.01
			c0.934,0.507,0.415,2.636,0.415,2.636C182.393,272.743,175.072,291.776,158.557,300.108z M181.49,305.553
			c-2.225,2.134-4.824,1.937-5.731,1.937c-0.91,0-0.735-0.173-1.07-0.482c-0.717-0.672-0.017-2.49-0.017-2.49
			c-0.007-0.882,11.388-15.073,15.432-21.765c1.914-3.191,9.097-13.305,9.822-14.455c0.917-1.421,4.938-8.683,7.122-8.683
			c0.9,0,1.817,1.236,1.817,2.125C208.865,265.949,183.293,303.829,181.49,305.553z M183.104,207.503
			c-0.288,0.742-1.268,2.243-2.146,3.52c0.313-1.669,0.674-3.403,0.71-3.517l1.361-0.382
			C183.028,207.197,183.06,207.336,183.104,207.503z M133.718,180.921c0-2.263,1.826-5.877,3.19-6.677
			c0.59-0.354,0.997-0.416,1.907-0.416c0.907,0,4.081,3.872,6.354,5.317c1.873-0.954,1.221-3.111,3.087-3.111
			c2.55,0,2.56,2.888,2.56,3.111c0,3.104-4.091,7.092-7.457,7.092c-0.909,0-5.844-2.221-6.754-2.221
			c-2.727,0-4.289,4.854-4.741,5.299c-0.823,0.84-2.142,1.364-3.051,1.364c-0.908,0-3.094-2.37-4.003-2.37
			c-0.166,0-0.314,0.009-0.472,0.013v-5.062c1.191,0.976,2.758,1.559,4.659,1.559C131.173,184.82,133.718,183.045,133.718,180.921z
			 M146.206,207.12c-1.636,0.049-7.591-2.685-8.501-2.685c-0.909,0-4.841,1.843-5.748,1.843c-2.679,0-5.216-1.383-7.62-2.274v-7.174
			c3.219,1.163,4.417,5.373,7.198,5.373c3.962,0,4.367-6.029,9.465-6.029c4.313,0,3.771,4.251,8.905,4.251
			c0.91,0,4.162-2.333,5.072-2.333c3.644,0,4.107,5.408,4.378,6.037c-0.639,0.261-0.902,1.282-1.803,1.282
			c-0.909,0-3.739-2.589-4.649-2.589C151.996,202.822,147.648,207.079,146.206,207.12z M128.267,218.16
			c-1.182,0-2.541,0.068-3.929,0.26v-3.845c3.189-0.697,8.883-2.095,9.564-2.095c1.914,0,10.009,0.49,10.009,3.55
			c0,2.13-5.416,3.591-6.372,3.545C135.584,219.476,129.172,218.16,128.267,218.16z"/>
	</g>
	<g>
		<path fill="#44537E" d="M117.356,328.663l-2.777-8.224c-0.961-2.777-1.389-3.418-9.613-3.418H66.3
			c-10.041,0-10.788,0.32-11.536,2.67l-2.991,8.972h-1.496c0.428-4.165,0.854-7.903,0.854-11.642c0-6.836-0.854-13.672-0.854-20.508
			c0-9.934,4.486-22.645,18.479-22.645c13.779,0,18.265,13.992,18.265,24.566c0,2.991,0,6.302-0.213,9.613h11.536
			c14.74,0,15.167-0.32,15.701-2.029l3.312-9.613h1.495c-0.427,4.593-0.854,11.749-0.854,15.488c0,5.447,0.427,11.642,0.854,16.769
			H117.356z M83.283,308.048c0.214-3.098,0.214-4.913,0.214-7.263c0-10.896-6.623-16.663-14.206-16.663
			c-10.254,0-14.847,6.409-14.847,15.381c0,3.098,0.106,5.875,0.213,8.545H83.283z M117.356,269.384
			c-1.603-4.913-2.563-8.973-4.166-9.186c-2.136-0.321-42.404-0.321-55.115-0.321c-4.486,0-8.331,0.428-9.079,0.748
			c-0.534,0.214-0.961,0.961-1.175,1.709l-2.029,6.302h-1.496c0-5.874-0.213-11.749-0.854-17.517
			c7.264,0.213,14.526,0.534,21.79,0.641l11.535,0.214v-0.214c-6.195-4.379-8.972-10.895-8.972-18.158
			c0-6.729,1.815-16.128,12.71-16.128c3.311,0,8.865,0.213,18.692,0.213c11.322,0,12.924,0,14.74-0.961
			c1.709-0.854,2.67-5.768,3.418-8.545h1.495c-0.427,5.447-0.854,7.584-0.854,13.565c0,5.66,0.427,8.651,0.854,13.778h-1.495
			c-1.389-5.341-1.923-8.011-3.739-8.972c-1.495-0.748-8.224-0.748-26.917-0.748c-7.583,0-14.74,1.923-14.74,12.069
			c0,8.438,6.088,13.886,14.633,13.886h14.099c4.166,0,12.07-0.106,12.924-0.961c1.602-1.496,2.991-6.303,3.739-8.759h1.495
			c-0.427,4.486-0.854,8.759-0.854,13.244c0,4.807,0.427,9.507,0.854,14.1H117.356z M118.158,197.716l-1.336-6.194
			c-0.52-2.563-1.559-3.738-3.49-5.021l-9.502-6.622l-18.188,10.254c-3.192,1.709-12.695,7.049-13.883,9.292
			c-0.297,0.642-0.667,1.282-1.039,2.457l-0.816,2.67h-1.04c0.297-3.631,0.594-7.37,0.594-11.108c0-4.379-0.297-8.331-0.594-13.564
			h1.04l1.708,6.408c0.297,0.962,0.668,1.923,1.188,1.923c0.668,0,3.935-1.815,8.241-4.379l15.367-9.187l-12.249-7.69
			c-7.127-4.486-10.914-5.875-11.953-5.875c-0.371,0-0.594,0.961-0.817,1.709l-1.484,5.447h-1.04
			c0.297-3.418,0.594-6.836,0.594-10.254c0-2.563-0.297-5.127-0.594-7.584h1.04c1.188,3.418,3.34,5.127,5.568,6.623
			c7.052,4.7,36.525,24.781,39.42,24.781c1.263,0,1.633-1.067,2.079-3.205l1.188-5.127h1.039c-0.297,3.846-0.594,7.691-0.594,11.537
			c0,4.272,0.296,8.438,0.594,12.71H118.158z M106.461,142.391v-1.175c3.845-0.854,7.797-2.884,8.438-3.739
			c1.175-1.388,2.136-3.845,2.136-6.836c0-5.34-2.67-10.467-8.865-10.467c-13.352,0-11.108,23.819-26.276,23.819
			c-5.875,0-14.099-5.447-14.099-18.692c0-2.563,0.748-8.972,1.281-11.108l11.215,0.641v1.175l-3.845,1.602
			c-2.991,1.282-5.768,2.777-5.768,9.506c0,5.447,3.845,8.758,8.118,8.758c12.71,0,9.292-23.819,26.382-23.819
			c6.409,0,14.74,4.272,14.74,21.255c0,3.952-0.641,6.943-0.961,9.72L106.461,142.391z M117.356,105.223l-1.923-6.088
			c-0.748-2.35-1.923-2.67-18.692-2.67c-22.324,0-23.071,0.534-23.926,3.311l-1.602,5.448h-1.496c0-5.875-0.213-11.75-0.854-17.517
			c1.496,0.213,10.681,0.641,17.303,0.641h21.362c5.234,0,7.264-0.534,8.118-3.418l1.709-5.34h1.495
			c-0.427,4.379-0.854,8.865-0.854,13.245c0,4.272,0.427,8.545,0.854,12.39H117.356z M58.075,66.771
			c-4.486,0-8.331,0.427-9.079,0.748c-0.534,0.213-0.961,0.961-1.175,1.709l-2.029,6.302h-1.496c0-5.875-0.213-11.75-0.854-17.517
			c7.264,0.213,14.526,0.641,21.79,0.641h42.297c5.234,0,7.05-0.213,8.118-3.525l1.709-5.233h1.495
			c-0.427,4.272-0.854,8.758-0.854,13.138c0,4.272,0.427,8.545,0.854,12.497h-1.495l-1.709-5.021
			c-1.068-3.311-2.884-3.738-8.118-3.738H58.075z M117.356,44.234l-1.068-4.272c-0.427-1.816-0.748-2.457-1.495-2.457
			c-0.854,0-2.457,1.388-6.516,4.913L90.119,58.12l-15.381-19.76c-0.213-0.321-0.748-0.854-1.282-0.854
			c-0.427,0-0.961,0.427-1.495,1.709l-1.602,4.593h-1.496c0.427-3.631,0.854-7.156,0.854-10.788c0-3.631-0.427-7.156-0.854-10.788
			h1.496c0.748,3.631,2.35,7.37,4.486,10.36l12.497,17.304l25.421-22.003c2.67-2.35,3.311-4.166,4.593-8.545h1.495
			c-0.427,3.952-0.854,8.011-0.854,11.963c0,4.379,0.427,8.652,0.854,12.924H117.356z"/>
		<path fill="#8D151B" d="M63.116,233.246c0,8.589-4.291,14.19-10.138,14.19c-5.932,0-10.391-5.975-10.391-15
			c0-8.402,4.081-13.88,9.676-13.88C57.605,218.556,63.116,223.598,63.116,233.246z M62.233,232.436
			c0-6.598-5.385-8.277-9.087-8.277s-9.676,2.116-9.676,8.962c0,6.286,3.912,8.714,8.792,8.714
			C57.815,241.834,62.233,238.598,62.233,232.436z M43.344,214.328c0-3.361-0.168-6.784-0.336-10.146l3.113,0.187v-0.124
			c-2.44-2.552-3.534-6.349-3.534-10.519c0-3.983,0.715-9.461,5.006-9.461c1.304,0,3.492,0.125,7.362,0.125
			c4.459,0,5.09,0,5.805-0.561c0.673-0.498,1.052-3.361,1.346-4.979h0.589c-0.168,3.175-0.336,4.419-0.336,7.905
			c0,3.298,0.168,5.041,0.336,8.028h-0.589c-0.547-3.111-0.757-4.668-1.472-5.228c-0.589-0.437-3.239-0.437-10.602-0.437
			c-2.987,0-5.805,1.121-5.805,7.033c0,4.917,2.398,8.092,5.763,8.092h5.553c1.641,0,4.753-0.063,5.09-0.561
			c0.631-0.871,1.178-3.672,1.472-5.104h0.589c-0.168,2.614-0.336,5.104-0.336,7.718c0,2.801,0.168,5.539,0.336,8.216h-0.589
			c-0.631-2.863-1.01-5.229-1.641-5.353c-0.841-0.187-2.062-0.187-7.825-0.187c-7.152,0-7.825,0.373-8.161,2.24l-0.547,3.112H43.344
			z M38.758,171.387c-1.767,0-3.281,0.249-3.576,0.436c-0.21,0.125-0.378,0.56-0.463,0.996l-0.799,3.672h-0.589
			c0-3.423-0.084-6.846-0.336-10.207c2.861,0.125,5.721,0.374,8.582,0.374h16.659c2.061,0,2.776-0.125,3.197-2.054l0.673-3.05h0.589
			c-0.168,2.489-0.336,5.104-0.336,7.655c0,2.49,0.168,4.979,0.336,7.282h-0.589l-0.673-2.925c-0.421-1.929-1.136-2.178-3.197-2.178
			H38.758z M36.487,148.919c1.262,0,2.314,1.494,2.314,3.361s-1.052,3.361-2.272,3.361c-1.262,0-2.271-1.494-2.271-3.361
			S35.267,148.919,36.487,148.919z M62.106,159.188l-0.757-3.548c-0.294-1.369-0.757-1.556-7.362-1.556
			c-8.792,0-9.087,0.311-9.423,1.929l-0.631,3.174h-0.589c0-3.423-0.084-6.846-0.336-10.208c0.589,0.125,4.207,0.374,6.815,0.374
			h8.414c2.061,0,2.86-0.311,3.197-1.992l0.673-3.112h0.589c-0.168,2.552-0.336,5.166-0.336,7.718c0,2.489,0.168,4.979,0.336,7.22
			H62.106z M43.344,141.701c0-3.361-0.168-6.784-0.336-10.146l3.113,0.187v-0.125c-2.44-2.552-3.534-6.349-3.534-10.519
			c0-3.983,0.715-9.461,5.006-9.461c1.304,0,3.492,0.125,7.362,0.125c4.459,0,5.09,0,5.805-0.56
			c0.673-0.498,1.052-3.361,1.346-4.979h0.589c-0.168,3.174-0.336,4.419-0.336,7.904c0,3.299,0.168,5.042,0.336,8.029h-0.589
			c-0.547-3.112-0.757-4.668-1.472-5.229c-0.589-0.436-3.239-0.436-10.602-0.436c-2.987,0-5.805,1.12-5.805,7.033
			c0,4.917,2.398,8.091,5.763,8.091h5.553c1.641,0,4.753-0.063,5.09-0.56c0.631-0.872,1.178-3.672,1.472-5.104h0.589
			c-0.168,2.614-0.336,5.104-0.336,7.718c0,2.801,0.168,5.54,0.336,8.216h-0.589c-0.631-2.863-1.01-5.228-1.641-5.353
			c-0.841-0.187-2.062-0.187-7.825-0.187c-7.152,0-7.825,0.374-8.161,2.241l-0.547,3.112H43.344z"/>
		
			<radialGradient id="SVGID_1_" cx="571.6123" cy="168.9829" r="18.6762" fx="572.0991" fy="169.5704" gradientTransform="matrix(1.192488e-008 -1 1 1.192488e-008 -111.2172 658.4703)" gradientUnits="userSpaceOnUse">
			<stop  offset="0" style="stop-color:#99BADF"/>
			<stop  offset="0.0976" style="stop-color:#95B5DB"/>
			<stop  offset="0.2312" style="stop-color:#89A7D1"/>
			<stop  offset="0.3856" style="stop-color:#778FC0"/>
			<stop  offset="0.5558" style="stop-color:#5F70A9"/>
			<stop  offset="0.7363" style="stop-color:#434C90"/>
			<stop  offset="0.9059" style="stop-color:#202D7B"/>
		</radialGradient>
		<path fill="url(#SVGID_1_)" d="M52.641,79.132c8.095,0,14.656,6.562,14.656,14.656c0,4.902-2.415,9.23-6.111,11.891
			c2.538-2.256,3.966-5.815,3.799-10.766c-0.154-4.603-1.665-8.377-4.37-10.794l-0.968,0.987c1.083,1.639,1.713,3.603,1.713,5.713
			c0,6.375-4.551,10.281-10.281,10.281c0-14.441,0-14.417,0-17.063c0-1.063-0.344-1.602-1.59-1.602
			c-6.754,0-9.941,6.164-9.941,12.477c0,3.775,1.087,7.192,3.209,9.674c-2.926-2.68-4.771-6.519-4.771-10.799
			C37.985,85.693,44.546,79.132,52.641,79.132z M41.766,94.616c0.103,2.958,2.875,5.359,7.156,5.359l-0.47-9.905
			C43.203,90.07,41.672,91.913,41.766,94.616z"/>
	</g>
</g>
</svg>
