<?xml version="1.0" encoding="utf-8"?>
<!-- Generator: Adobe Illustrator 15.1.0, SVG Export Plug-In . SVG Version: 6.00 Build 0)  -->
<!DOCTYPE svg PUBLIC "-//W3C//DTD SVG 1.1//EN" "http://www.w3.org/Graphics/SVG/1.1/DTD/svg11.dtd">
<svg version="1.1" id="Ebene_1" xmlns="http://www.w3.org/2000/svg" xmlns:xlink="http://www.w3.org/1999/xlink" x="0px" y="0px"
	 width="254.4px" height="333.121px" viewBox="0 0 254.4 333.121" enable-background="new 0 0 254.4 333.121" xml:space="preserve">
<g id="Logo">
	<g id="Ebene_1_2_">
		<g>
			<path fill="#EDEDED" d="M125.437,332.707C93.151,332.67,2.071,339.222,0,261.719c24.446-10.239,25.686-10.702,35.995-14.548
				c-1.836-16.529-24.573-37.168-17.577-52.646c9.532-5.946,20.551-14.167,30.434-16.354c-0.263-1.749-0.263-1.749-5.247-9.095
				c-9.443,1.048-16.44,5.334-26.936,1.137c-15.741-13.817-19.501-34.895-1.136-47.924c0.086-1.136,0.174-2.187,0.262-3.235
				c-5.858-16.615-4.284-29.471,0-45.649c4.373-8.134,5.597-8.481,6.121-9.884c0.437,0,0.875,0,1.226,0c0-0.436,0-0.874,0-1.224
				c1.486-0.786,2.974-1.574,4.372-2.273c-6.121-22.038,5.509-38.391,26.062-43.637c6.384,0.61,8.744,1.748,10.231,1.487
				c5.333-15.042,12.593-4.986,21.075-6.473c4.373-6.123,6.908-8.92,13.117-9.882c0-3.177,23.788-0.437,27.354-0.144l-0.021,27.95
				c-4.236,2.333-6.867,6.55-6.032,14.257c0.438,0.523,0.874,1.137,1.225,1.749c3.148,0.246,4.801-3.134,4.813-1.766l0.079,9.81
				c-6.687,0.848-13.581,1.146-23.342,1.05c-15.828,4.811-12.595,18.802-12.595,33.057c-3.848,6.384-12.506,16.268-7.607,25.186
				c4.374,0.438,8.746-2.71,12.595-3.849c26.321,0,34.894,10.845,28.422,35.419c0.611,10.231,0,20.112,0,30.958
				c1.146,0.956,2.029,1.571,2.563,1.918l-0.063,7.374c-7.639,0.259-10.826,9.511-15.182-4.922
				c-9.882-3.585-5.686-10.493-2.011-16.003c1.225-12.942,1.225-12.942,2.623-21.075c-3.675-0.788-4.636-0.875-5.859-4.111
				c1.749-1.049,3.498-2.01,5.247-2.973c0-1.574,0-3.148,0-4.636c-2.885-1.485-2.885-1.485-5.858-1.748
				c-0.524,3.147-0.874,4.723-2.885,8.22c-9.271,1.75-12.333,0.963-14.606-8.22c-9.006,0.787-2.185,8.569,2.362,11.368
				c2.274,0.263,4.548,0.524,6.733,0.874c0,0.963,0,1.924,0,2.975c-0.7,0.35-1.399,0.698-2.1,1.137
				c0.874,1.749,0.874,1.749,0.612,6.121c-11.807,2.36-14.779-8.744-16.441-17.228c-2.887,0.264-2.887,0.264-4.636,1.138
				c-1.748,10.844,2.274,24.398,3.236,36.292c2.361,8.133,14.079,35.242,25.187,28.684c2.36-13.904,4.636-6.734,13.116-6.734
				c5.524-2.979,8.511-3.165,10.449-2.291l0.012,7.383c-8.117-0.525-14.329,0.851-9.586,7.501c3.548,1.295,6.691,1.612,9.6,1.593
				l-0.044,5.165c-5.168,0.182-8.941,2.449-8.941,11.345c1.512,3.417,4.865,5.398,8.959,6.354l0.002,32.123
				c-0.916,0.177-1.878,0.177-2.84,0.177c-1.839,6.313-2.653,13.213,2.842,17.667l0.006,10.197c-2.97-1.146-4.604-5.041-8.095-10.64
				c-1.313,0-2.711,0-4.11,0c-9.535,9.537,2.271,14.417,12.201,16.512L125.437,332.707L125.437,332.707z"/>
			<path fill="#1D1D1B" d="M125.372,1.334c2.335,0.238,4.684,0.499,7.102,0.787c18.19,5.247,14.255,5.51,28.071,0
				c23.438,0,45.301,4.724,51.771,28.423c17.839,8.133,24.749,12.941,26.585,33.056c14.518,9.445,9.183,19.677,6.733,36.555
				c8.571,12.681,10.582,20.202,1.749,33.318c0,1.225,0,1.225,7.083,15.83c1.05,20.987-8.744,34.017-31.919,27.723
				c-3.41-1.837-6.297-4.637-10.582-4.637c-2.188,2.449-4.198,3.762-4.896,7.959c10.319,7.171,21.688,13.99,28.071,25.1
				c2.361,14.518-18.103,25.797-16.702,40.051c10.318,4.065,20.572,8.396,30.717,12.878c-1.983,75.275-85.739,74.848-123.783,74.824
				V1.334L125.372,1.334z"/>
			<path fill="#FFFFFF" d="M125.091,43.338l1.244-3.787c0.438-0.088,0.787-0.174,1.138-0.261c0-0.613,0-1.227,0-1.75
				c0.786-0.177,1.574-0.351,2.361-0.525c0-0.437,0-0.874,0-1.224c5.509-2.711,14.255-8.044,19.852-4.985c0,1.049,0,2.099,0,3.236
				c-0.963,0.35-1.923,0.789-2.886,1.224c0,0.35,0,0.699,0,1.137c-0.962,0.263-1.925,0.525-2.975,0.875
				c-0.174,0.438-0.35,0.963-0.523,1.487c-0.962,0.262-1.925,0.525-2.974,0.787c-0.787,6.821,8.92-0.088,11.105-0.262
				c1.837-4.637,14.866-4.374,18.716-4.374c8.481,3.41,13.643,7.958,17.575,16.354c6.735-0.437,11.634-0.961,15.567,4.46
				c0.874,7.171,0.874,13.118,9.619,13.118c0.438-0.088,0.789-0.175,1.138-0.263c0.875-13.38-17.578-22.737-26.936-29.034
				c-5.158-0.962-15.129-4.198-15.741-10.146c4.46-2.187,10.67-1.573,14.954-1.749c0.088-0.611,0.176-1.224,0.264-1.749
				c-13.818-8.133-17.754-8.308-33.406-0.35c-8.246,1.107-20.657-0.449-28.099,3.535C125.086,33.842,125.089,38.589,125.091,43.338
				L125.091,43.338z"/>
			<path fill="#FFFFFF" d="M83.38,61.377C88.89,57.44,88.54,50.97,91.6,50.008c0-0.437,0-0.875,0-1.225
				c4.286-1.749,3.849-7.083,3.849-9.969c-5.598-10.583-11.544-12.244-23.176-13.38c0.352,0.524,0.7,1.136,0.964,1.748
				c8.481,5.859,14.078,11.281,13.116,22.824c-10.669-2.099-30.257-7.781-31.831,9.357c0.786,0.265,0.786,0.265,4.896-2.099
				C70.701,56.479,74.023,61.377,83.38,61.377L83.38,61.377z"/>
			<path fill="#FFFFFF" d="M125.09,230.561c8.802,2.325,21.132,0.467,26.957-0.543c0-0.438,0-0.789,0-1.138
				c6.208-3.411,10.319-9.619,14.604-11.718c0-0.438,0-0.788,0-1.138c4.109-2.099,12.331-7.958,14.604-8.833
				c-8.22,23.962-26.323,37.167-52.647,40.054c-4.633,5.159,13.644,23.521,19.329,25.71c1.574,0,3.147,0,4.723,0
				c6.471-3.937,18.628-10.232,20.987-16.615c0.438,0,0.874,0,1.225,0c0-0.438,0-0.787,0-1.137c0.612,0,1.225,0,1.749,0
				c1.225-2.187,2.361-4.372,3.498-6.473c0.438,0,0.788,0,1.138,0c12.854-20.2,10.582-23.61,3.847-43.898
				c-1.049-11.719,6.21-24.924,7.871-36.817c4.724,3.062,3.849,3.322,9.97,3.498c5.947-14.429,2.537-12.941-4.373-22.825
				c-0.174-13.643-0.35-27.285-0.61-40.927c-2.536-5.859-5.071-11.718-7.608-17.577c-1.398-34.979-16.179-40.053-49.409-40.053
				c-5.861,1.345-10.713,2.304-15.689,3.018l-0.009,123.795c1.939,0.897,3.335,0.691,6.341,0.691
				c2.624-3.236,2.448-4.635,2.887-7.872c0.438,0,0.875,0,1.226,0c0-0.438,0-0.787,0-1.137c1.398-0.175,2.799-0.262,4.109-0.349
				c2.188,2.188,6.209,6.996,6.995,1.487c4.812,0.524,4.023,3.41,2.888,7.607c-7.521,3.761-6.472,2.099-14.604,0.875
				c-3.148,3.147-2.273,11.368-9.357,5.859c-0.189,0-0.378,0.006-0.606,0.014l-0.023,6.943c3.219,1.255,3.814,4.993,8.239,3.537
				c8.134-6.909,6.735-5.247,14.604-1.136c3.498,0,6.472-1.225,8.831-0.875c2.014,4.111,2.014,4.111,2.274,6.996
				c-2.537-0.524-5.072-1.05-7.609-1.487c-1.312,0.962-2.71,1.923-4.109,2.974c-2.435,0-13.428-2.326-22.205-2.7l0.023,9.257
				c5.853-0.063,11.217-1.431,18.158,0.176c0,1.313,0,2.71,0,4.109c-5.727,1.939-12.779,0.251-18.248,0.932L125.09,230.561
				L125.09,230.561z"/>
			<path fill="#FFFFFF" d="M45.952,91.723c6.033-1.574,8.745-9.184,11.105-13.645c0.438,0,0.874,0,1.226,0
				c1.049-3.234,7.434-9.706,9.707-10.58c-0.09-0.524-0.177-1.051-0.352-1.487c-17.229,0-21.776,8.57-23.699,24.922
				C44.815,91.723,44.815,91.723,45.952,91.723L45.952,91.723z"/>
			<path fill="#53668D" stroke="#53668D" stroke-width="0.216" stroke-miterlimit="2.4142" d="M118.92,94.662l-1.925-6.093
				c-0.213-0.57-0.517-1.035-0.908-1.391c-0.393-0.354-1.212-0.624-2.459-0.8c-1.246-0.181-3.064-0.304-5.452-0.376
				c-2.388-0.07-5.685-0.105-9.889-0.105c-5.56,0-9.905,0.035-13.042,0.105c-3.135,0.071-5.471,0.231-7.002,0.481
				c-1.532,0.249-2.513,0.588-2.939,1.017c-0.427,0.428-0.748,0.997-0.962,1.71l-1.604,5.453h-1.497c0-2.994-0.054-5.935-0.16-8.818
				c-0.105-2.888-0.339-5.791-0.695-8.714c0.356,0.069,1.159,0.143,2.406,0.213s2.689,0.143,4.33,0.213
				c1.64,0.07,3.401,0.124,5.292,0.16c1.889,0.037,3.653,0.053,5.291,0.053h21.381c2.637,0,4.544-0.213,5.72-0.64
				c1.175-0.429,1.979-1.354,2.405-2.779l1.709-5.345h1.497c-0.214,2.209-0.41,4.418-0.588,6.627
				c-0.178,2.21-0.269,4.419-0.269,6.627c0,2.138,0.091,4.259,0.269,6.361c0.178,2.101,0.374,4.115,0.588,6.04H118.92L118.92,94.662
				z"/>
			<path fill="#53668D" stroke="#53668D" stroke-width="0.216" stroke-miterlimit="2.4142" d="M108.015,131.865v-1.177
				c1.925-0.427,3.725-1.05,5.399-1.871c1.674-0.818,2.689-1.441,3.045-1.869c0.57-0.713,1.07-1.658,1.498-2.833
				c0.427-1.178,0.641-2.513,0.641-4.01c0-1.354-0.178-2.653-0.534-3.899c-0.355-1.249-0.891-2.353-1.604-3.315
				c-0.711-0.962-1.621-1.745-2.726-2.352c-1.104-0.607-2.44-0.908-4.009-0.908c-2.21,0-4.044,0.587-5.507,1.764
				c-1.461,1.177-2.743,2.656-3.849,4.438c-1.104,1.781-2.139,3.688-3.101,5.72c-0.962,2.029-2.049,3.938-3.261,5.718
				c-1.212,1.783-2.636,3.262-4.275,4.438c-1.641,1.176-3.741,1.763-6.307,1.763c-1.498,0-3.065-0.354-4.705-1.066
				c-1.639-0.714-3.151-1.819-4.543-3.315c-1.39-1.496-2.549-3.421-3.474-5.772c-0.928-2.352-1.392-5.202-1.392-8.553
				c0-0.641,0.036-1.478,0.108-2.511c0.07-1.034,0.178-2.104,0.32-3.208s0.284-2.139,0.428-3.101
				c0.142-0.962,0.284-1.728,0.427-2.298l11.226,0.642v1.176l-3.849,1.603c-0.713,0.357-1.425,0.732-2.139,1.123
				c-0.713,0.394-1.336,0.927-1.87,1.604s-0.963,1.552-1.284,2.62c-0.319,1.067-0.479,2.458-0.479,4.169
				c0,2.708,0.818,4.847,2.459,6.414c1.64,1.568,3.526,2.353,5.666,2.353c2.138,0,3.865-0.588,5.185-1.765
				c1.318-1.176,2.478-2.655,3.474-4.437c0.999-1.781,1.961-3.688,2.888-5.721c0.927-2.03,2.013-3.938,3.261-5.719
				c1.248-1.782,2.779-3.261,4.598-4.437c1.817-1.176,4.151-1.765,7.003-1.765c1.639,0,3.313,0.303,5.023,0.909
				c1.71,0.604,3.296,1.71,4.757,3.313c1.462,1.604,2.654,3.777,3.581,6.521s1.392,6.253,1.392,10.53
				c0,1.993-0.125,3.759-0.375,5.29c-0.25,1.532-0.444,3.012-0.589,4.438L108.015,131.865L108.015,131.865z"/>
			<path fill="#FFFFFF" d="M34.844,146.118c5.423-1.575,14.866-5.685,15.829-10.756c0.437,0,0.786,0,1.136,0
				c6.821-13.729,7.26-17.929-1.749-29.56c-5.421,0-12.504,0.523-11.717,8.745c19.326,7.871,10.144,28.422-8.746,21.076
				c-3.061-3.411-3.061-5.247-7.607-5.247c-2.623,3.41-3.761,5.596-3.761,10.844C23.214,146.205,28.899,146.118,34.844,146.118
				L34.844,146.118z"/>
			<path fill="#1D1D1B" stroke="#000000" stroke-width="0.5" stroke-miterlimit="2.4142" d="M139.802,159.533
				c9.62-14.867,2.361-11.369,1.749-24.313c4.548,0.525,4.635,3.324,10.232,2.973c0-4.896-8.483-9.095,0.873-10.493
				c1.051,16.179,19.853,11.806,17.49,0c7.084,1.574,7.347,7.695,0.351,10.493c0,5.86,7.521,2.101,9.356,1.139
				c0.875-2.013,1.75-3.937,2.624-5.86c12.594-0.7,9.443-10.407,3.849-17.49c-15.654-12.68-38.74-9.007-50.372,8.134
				c0,6.472,1.224,11.719,1.749,21.074c-0.962,4.986-1.486,8.66,0,14.081C138.405,159.356,139.102,159.446,139.802,159.533
				L139.802,159.533z"/>
			<path fill="#FFFFFF" stroke="#000000" stroke-width="0.5" stroke-miterlimit="2.4142" d="M183.092,126.127
				c0.523-0.263,1.049-0.525,1.485-0.788c0-16.266-30.695-15.129-29.646-3.848c2.187-0.523,4.372-0.961,6.472-1.398
				c0.264,1.049,0.438,2.099,0.611,3.148c3.148,0.436,6.297,0.962,9.357,1.485c0.176-0.962,0.349-1.924,0.523-2.886
				C176.883,123.677,178.37,126.127,183.092,126.127L183.092,126.127z"/>
			<path fill="#FFFFFF" d="M96.323,132.999c0.176-1.398,0.35-2.71,0.524-4.022c-1.485,0-3.061,0-4.634,0
				c-0.263,2.273-0.263,2.273,0.524,3.761C93.962,132.826,95.186,132.913,96.323,132.999L96.323,132.999z"/>
			<path fill="#FFFFFF" stroke="#000000" stroke-width="0.5" stroke-miterlimit="2.4142" d="M164.29,130.848
				c0.174-1.312,0.262-2.536,0.35-3.76c-1.225-0.175-2.537-0.262-3.849-0.349C158.08,130.061,161.492,130.848,164.29,130.848
				L164.29,130.848z"/>
			<path fill="#FFFFFF" stroke="#000000" stroke-width="0.5" stroke-miterlimit="2.4142" d="M235.738,157.172
				c7.434-5.595,5.685-9.181,2.886-16.965c-1.137-0.088-2.272-0.175-3.498-0.263c-0.963,16.791-9.358,0.7-16.966,3.498
				C220.345,151.488,227.429,157.172,235.738,157.172L235.738,157.172z"/>
			<path fill="#FFFFFF" d="M113.813,177.512c-0.787-2.361-0.787-2.361-0.523-8.833c-4.898,0.787-4.373,1.662-4.11,7.348
				C110.927,177.164,110.927,177.164,113.813,177.512L113.813,177.512z"/>
			<path fill="#FFFFFF" d="M103.931,273.709c8.569-6.997,14.429-13.117,16.703-23.7c-12.68-3.672-36.555-11.544-43.639-23.35
				c-3.323-1.313-7.434-10.145-9.356-13.205c-0.787-0.088-1.573-0.175-2.361-0.264c-1.485,9.62-4.548,19.852-2.012,30.434
				c3.323,6.123,8.482,11.809,12.855,17.49C85.303,268.81,92.3,273.709,103.931,273.709L103.931,273.709z"/>
			<path fill="#FFFFFF" stroke="#000000" stroke-width="0.5" stroke-miterlimit="2.4142" d="M178.37,298.142
				c7.346-1.575,9.183-6.908,12.244-12.243c0.436-0.087,0.874-0.176,1.224-0.263c3.146-5.335,6.296-10.582,9.356-15.829
				c0.438,0,0.787,0,1.138,0c3.061-5.422,7.433-10.844,7.084-16.091c-0.612,0-1.226,0-1.837,0
				c-2.013,2.012-2.013,2.012-8.745,13.729c-0.351,0-0.7,0-1.137,0c-11.369,16.354-11.369,16.354-11.72,17.578
				c-0.35,0-0.698,0-1.137,0C184.315,286.511,175.046,297.18,178.37,298.142L178.37,298.142z"/>
			<path fill="#FFFFFF" stroke="#000000" stroke-width="0.5" stroke-miterlimit="2.4142" d="M153.796,294.033
				c20.376-5.423,29.559-25.975,33.93-43.552c-5.158,0.789-14.253,17.665-23.436,22.213c0,0.351,0,0.786,0,1.226
				c-3.499,1.486-6.996,3.061-10.494,4.635c0,0.35,0,0.787,0,1.225c-3.936,1.925-6.734,8.745-6.472,14.257
				C149.51,294.033,151.698,294.033,153.796,294.033L153.796,294.033z"/>
			<path fill="#FFFFFF" d="M91.6,298.282c3.497-2.36,3.497-2.36,4.723-2.624c0-0.437,0-0.875,0-1.225c0.438,0,0.787,0,1.138,0
				c1.486-3.499,1.486-3.499,1.486-5.771c-0.874-0.962-8.482-3.322-16.702-7.957c-6.473-4.986-14.519-14.692-18.104-22.214
				c-0.524-0.088-1.138-0.175-1.75-0.263C61.518,272.134,76.823,298.282,91.6,298.282L91.6,298.282z"/>
			<path fill="#FFFFFF" d="M125.069,296.511c2.902,0.54,5.648,0.88,7.65,1.021c10.145-3.937,10.67-13.206,9.357-21.864
				c-5.335-2.273-12.156,3.061-16.003-2.36c-0.264-3.499-0.614-6.996-0.982-10.479l0.005,17.692
				c0.546,0.479,1.125,0.888,1.764,1.271c6.298,0,9.184,0.35,10.582,6.732c-6.3,2.854-9.781,3.479-12.335,2.451L125.069,296.511
				L125.069,296.511z"/>
			<path fill="#53668D" stroke="#53668D" stroke-width="0.216" stroke-miterlimit="2.4142" d="M84.819,297.671
				c0.142-1.566,0.214-2.869,0.214-3.901s0-2.155,0-3.366c0-2.711-0.394-5.113-1.178-7.217c-0.782-2.104-1.816-3.85-3.101-5.237
				c-1.282-1.391-2.778-2.44-4.489-3.153c-1.71-0.713-3.526-1.069-5.451-1.069c-5.132,0-8.893,1.441-11.277,4.329
				c-2.389,2.887-3.582,6.574-3.582,11.065c0,1.566,0.019,3.046,0.054,4.435c0.036,1.392,0.09,2.764,0.161,4.116L84.819,297.671
				L84.819,297.671z M118.92,318.303l-2.779-8.231c-0.214-0.712-0.463-1.284-0.749-1.712c-0.285-0.427-0.729-0.766-1.336-1.015
				c-0.604-0.25-1.496-0.429-2.673-0.536c-1.176-0.104-2.797-0.158-4.864-0.158H67.821c-2.495,0-4.474,0.035-5.935,0.106
				c-1.461,0.07-2.564,0.196-3.313,0.372c-0.748,0.181-1.265,0.447-1.551,0.804c-0.284,0.356-0.534,0.82-0.748,1.391l-2.992,8.979
				h-1.497c0.213-2.069,0.409-4.063,0.589-5.987c0.178-1.924,0.266-3.813,0.266-5.665c0-3.423-0.143-6.843-0.427-10.265
				c-0.285-3.42-0.428-6.841-0.428-10.262c0-2.494,0.303-5.077,0.906-7.751c0.606-2.672,1.643-5.113,3.102-7.321
				c1.462-2.21,3.367-4.026,5.72-5.452c2.353-1.427,5.273-2.14,8.766-2.14c3.421,0,6.309,0.786,8.659,2.353
				c2.353,1.569,4.24,3.563,5.665,5.987c1.428,2.423,2.441,5.077,3.048,7.964c0.605,2.887,0.909,5.646,0.909,8.286
				c0,1.495,0,3.063,0,4.703c0,1.638-0.072,3.277-0.215,4.917h11.548c3.706,0,6.574-0.019,8.605-0.054
				c2.03-0.035,3.563-0.144,4.598-0.32c1.032-0.18,1.673-0.394,1.924-0.642c0.25-0.249,0.445-0.59,0.587-1.017l3.315-9.622h1.496
				c-0.071,1.141-0.161,2.424-0.269,3.85c-0.106,1.426-0.214,2.834-0.32,4.224s-0.179,2.744-0.215,4.063
				c-0.034,1.318-0.053,2.44-0.053,3.366c0,2.71,0.089,5.542,0.268,8.499c0.178,2.958,0.374,5.72,0.589,8.286H118.92L118.92,318.303
				z"/>
			<g enable-background="new    ">
				<path fill="#B41F21" d="M43.119,222.459c0-4.652,1.07-8.389,3.213-11.208c1.83-2.394,3.932-3.591,6.304-3.591
					c1.667,0,3.355,0.66,5.063,1.98s2.996,3.138,3.863,5.453c0.868,2.315,1.302,4.894,1.302,7.734c0,4.631-1.118,8.312-3.355,11.041
					c-1.884,2.304-3.999,3.456-6.345,3.456c-1.708,0-3.406-0.699-5.094-2.098c-1.688-1.397-2.935-3.238-3.741-5.52
					C43.522,227.426,43.119,225.01,43.119,222.459z M44.44,223.5c0,1.186,0.214,2.377,0.641,3.573
					c0.427,1.197,1.177,2.165,2.247,2.903c1.071,0.738,2.447,1.107,4.128,1.107c2.712,0,5.051-0.89,7.016-2.668
					c1.966-1.779,2.949-4.122,2.949-7.03c0-2.17-0.542-3.96-1.627-5.369c-1.085-1.41-2.949-2.114-5.593-2.114
					c-3.308,0-5.91,1.175-7.809,3.523C45.091,219.014,44.44,221.039,44.44,223.5z"/>
				<path fill="#B41F21" d="M47.063,194.171c-2.63-3.602-3.944-7.035-3.944-10.302c0-1.679,0.254-3.121,0.762-4.329
					c0.509-1.208,1.346-2.17,2.512-2.886c0.813-0.492,2.061-0.738,3.742-0.738h7.951c1.179,0,1.979-0.156,2.399-0.47
					c0.339-0.246,0.604-0.644,0.793-1.191s0.284-1.561,0.284-3.037h0.732v15.201h-0.732v-0.638c0-1.432-0.132-2.433-0.396-3.003
					c-0.264-0.57-0.653-0.968-1.169-1.191c-0.203-0.089-0.841-0.135-1.911-0.135H50.46c-1.694,0-2.925,0.364-3.691,1.091
					c-0.766,0.728-1.148,1.952-1.148,3.675c0,2.662,0.881,5.313,2.644,7.953h9.822c1.261,0,2.04-0.123,2.338-0.369
					c0.394-0.313,0.682-0.743,0.864-1.292c0.184-0.548,0.274-1.661,0.274-3.339h0.732v15.201h-0.732v-0.671
					c0-1.565-0.24-2.623-0.722-3.171c-0.48-0.548-1.399-0.822-2.755-0.822h-6.914c-2.237,0-3.6,0.084-4.088,0.252
					c-0.488,0.167-0.82,0.425-0.996,0.771s-0.265,0.811-0.265,1.393c0,0.627,0.102,1.376,0.305,2.248l-0.731,0.504l-2.277-9.262
					v-1.443H47.063z"/>
				<path fill="#B41F21" d="M33.378,158.197h24.708c1.166,0,1.938-0.14,2.317-0.42c0.38-0.279,0.668-0.71,0.864-1.292
					c0.197-0.581,0.295-1.666,0.295-3.255h0.732v15.068h-0.732c0-1.411-0.088-2.372-0.264-2.886
					c-0.177-0.515-0.468-0.918-0.875-1.209c-0.406-0.29-1.186-0.436-2.338-0.436H41.167c-2.102,0-3.393,0.078-3.874,0.234
					c-0.481,0.157-0.811,0.409-0.986,0.755c-0.176,0.348-0.265,0.789-0.265,1.326c0,0.582,0.108,1.321,0.325,2.215l-0.712,0.57
					l-2.277-9.162V158.197z"/>
				<path fill="#B41F21" d="M33.378,141.854c0-0.939,0.2-1.739,0.6-2.399c0.4-0.659,0.885-0.989,1.454-0.989s1.058,0.33,1.465,0.989
					c0.406,0.66,0.609,1.46,0.609,2.399s-0.203,1.745-0.609,2.416c-0.407,0.672-0.896,1.007-1.465,1.007s-1.054-0.329-1.454-0.989
					C33.578,143.627,33.378,142.817,33.378,141.854z M43.119,139.069h14.967c1.166,0,1.941-0.14,2.328-0.419
					c0.386-0.28,0.675-0.693,0.864-1.242c0.189-0.548,0.284-1.549,0.284-3.003h0.732v14.933h-0.732c0-1.498-0.088-2.505-0.264-3.02
					c-0.177-0.515-0.468-0.923-0.875-1.226c-0.406-0.302-1.186-0.453-2.338-0.453h-7.179c-2.02,0-3.328,0.101-3.925,0.303
					c-0.434,0.156-0.735,0.402-0.905,0.738c-0.169,0.335-0.254,0.794-0.254,1.375c0,0.627,0.102,1.388,0.305,2.282l-0.731,0.47
					l-2.277-9.262V139.069z"/>
				<path fill="#B41F21" d="M47.063,121.619c-2.63-3.602-3.944-7.035-3.944-10.302c0-1.678,0.254-3.121,0.762-4.329
					c0.509-1.208,1.346-2.17,2.512-2.886c0.813-0.492,2.061-0.738,3.742-0.738h7.951c1.179,0,1.979-0.156,2.399-0.47
					c0.339-0.246,0.604-0.643,0.793-1.191c0.189-0.548,0.284-1.56,0.284-3.037h0.732v15.201h-0.732v-0.638
					c0-1.431-0.132-2.433-0.396-3.003c-0.264-0.571-0.653-0.968-1.169-1.191c-0.203-0.089-0.841-0.134-1.911-0.134H50.46
					c-1.694,0-2.925,0.364-3.691,1.091c-0.766,0.727-1.148,1.952-1.148,3.674c0,2.662,0.881,5.313,2.644,7.953h9.822
					c1.261,0,2.04-0.123,2.338-0.369c0.394-0.313,0.682-0.743,0.864-1.292c0.184-0.548,0.274-1.661,0.274-3.339h0.732v15.201h-0.732
					v-0.671c0-1.565-0.24-2.623-0.722-3.171c-0.48-0.548-1.399-0.822-2.755-0.822h-6.914c-2.237,0-3.6,0.084-4.088,0.252
					c-0.488,0.167-0.82,0.425-0.996,0.771s-0.265,0.811-0.265,1.393c0,0.627,0.102,1.376,0.305,2.248l-0.731,0.504l-2.277-9.262
					v-1.443H47.063z"/>
			</g>
			<path fill="#53668D" stroke="#53668D" stroke-width="0.216" stroke-miterlimit="2.4142" d="M59.589,56.177
				c-2.28,0-4.276,0.089-5.985,0.268c-1.711,0.179-2.745,0.338-3.101,0.481c-0.499,0.213-0.891,0.784-1.177,1.71l-2.03,6.308H45.8
				c0-2.995-0.054-5.934-0.161-8.819c-0.105-2.887-0.338-5.791-0.695-8.714c3.637,0.143,7.271,0.286,10.904,0.429
				c3.636,0.142,7.271,0.213,10.905,0.213h42.333c2.637,0,4.507-0.18,5.612-0.534c1.104-0.356,1.94-1.354,2.513-2.995l1.709-5.238
				h1.497c-0.214,2.14-0.41,4.313-0.588,6.521c-0.179,2.21-0.269,4.419-0.269,6.628c0,2.138,0.09,4.258,0.269,6.361
				c0.178,2.103,0.374,4.15,0.588,6.146h-1.497l-1.709-5.024c-0.571-1.64-1.408-2.673-2.513-3.101
				c-1.105-0.429-2.977-0.642-5.612-0.642L59.589,56.177L59.589,56.177z"/>
			<path fill="#53668D" stroke="#53668D" stroke-width="0.216" stroke-miterlimit="2.4142" d="M118.92,33.62l-1.068-4.274
				c-0.356-1.64-0.854-2.458-1.497-2.458c-0.427,0-1.104,0.373-2.029,1.122c-0.928,0.748-2.424,2.013-4.49,3.795L91.661,47.519
				L76.265,27.742c-0.142-0.143-0.319-0.32-0.534-0.535c-0.214-0.214-0.464-0.32-0.748-0.32c-0.499,0-0.996,0.569-1.496,1.709
				l-1.604,4.598h-1.497c0.215-1.853,0.411-3.651,0.59-5.398c0.178-1.745,0.267-3.545,0.267-5.398s-0.089-3.653-0.267-5.398
				c-0.179-1.745-0.375-3.547-0.59-5.398h1.497c0.357,1.853,0.927,3.67,1.711,5.452s1.711,3.421,2.78,4.919l12.508,17.317
				l25.442-22.021c0.642-0.57,1.192-1.142,1.656-1.712s0.855-1.176,1.178-1.817c0.32-0.643,0.624-1.373,0.907-2.19
				c0.285-0.819,0.569-1.765,0.854-2.833h1.497c-0.215,1.996-0.41,3.992-0.589,5.986c-0.177,1.996-0.268,3.99-0.268,5.986
				c0,2.209,0.091,4.383,0.268,6.521c0.179,2.139,0.375,4.275,0.589,6.414L118.92,33.62L118.92,33.62z"/>
			<path fill="#53668D" stroke="#53668D" stroke-width="0.216" stroke-miterlimit="2.4142" d="M118.92,258.972
				c-0.783-2.495-1.479-4.616-2.085-6.359c-0.605-1.746-1.3-2.691-2.085-2.834c-0.356-0.07-1.673-0.124-3.955-0.16
				c-2.28-0.035-5.112-0.054-8.499-0.054c-3.385,0-7.108-0.018-11.171-0.054c-4.063-0.036-8.07-0.054-12.026-0.054
				c-3.957,0-7.662,0-11.118,0c-3.457,0-6.254,0-8.393,0c-2.28,0-4.276,0.09-5.985,0.267c-1.711,0.181-2.745,0.34-3.1,0.482
				c-0.5,0.213-0.893,0.783-1.178,1.71l-2.029,6.308h-1.497c0-2.994-0.054-5.933-0.161-8.818c-0.104-2.888-0.338-5.789-0.695-8.714
				c3.638,0.144,7.271,0.27,10.905,0.377c3.635,0.104,7.271,0.194,10.904,0.265l11.545,0.214v-0.214
				c-3.135-2.208-5.415-4.881-6.842-8.019c-1.425-3.135-2.14-6.521-2.14-10.154c0-1.712,0.16-3.51,0.481-5.399
				c0.321-1.889,0.927-3.635,1.816-5.237c0.892-1.604,2.175-2.923,3.849-3.954c1.675-1.033,3.867-1.551,6.575-1.551
				c1.64,0,3.938,0.035,6.896,0.106s6.896,0.106,11.813,0.106c2.851,0,5.133,0,6.842,0s3.082-0.035,4.115-0.106
				c1.032-0.071,1.816-0.178,2.352-0.32c0.534-0.144,1.017-0.319,1.444-0.536c0.428-0.213,0.817-0.641,1.176-1.28
				c0.356-0.643,0.659-1.392,0.909-2.245c0.249-0.855,0.479-1.729,0.692-2.619c0.216-0.89,0.43-1.692,0.643-2.406h1.497
				c-0.071,1.354-0.16,2.548-0.269,3.583c-0.106,1.033-0.213,2.03-0.319,2.993c-0.106,0.962-0.179,1.996-0.214,3.099
				c-0.035,1.106-0.055,2.407-0.055,3.903c0,1.425,0.02,2.708,0.055,3.848c0.035,1.141,0.106,2.229,0.214,3.263
				c0.107,1.032,0.213,2.083,0.319,3.151c0.107,1.07,0.195,2.246,0.269,3.529h-1.497c-0.712-2.709-1.282-4.758-1.709-6.147
				c-0.428-1.389-1.104-2.333-2.031-2.832c-0.355-0.213-1.088-0.356-2.19-0.429c-1.104-0.071-2.708-0.143-4.812-0.212
				c-2.103-0.072-4.775-0.107-8.019-0.107c-3.242,0-7.216,0-11.92,0c-1.926,0-3.759,0.161-5.505,0.482
				c-1.746,0.32-3.314,0.907-4.704,1.764c-1.39,0.854-2.494,2.065-3.313,3.636c-0.82,1.566-1.229,3.635-1.229,6.202
				c0,4.274,1.372,7.659,4.114,10.153c2.744,2.496,6.255,3.742,10.531,3.742h14.11c1.068,0,2.298-0.018,3.688-0.054
				c1.391-0.035,2.728-0.069,4.009-0.106c1.283-0.036,2.425-0.126,3.422-0.266c0.997-0.144,1.604-0.322,1.816-0.536
				c0.428-0.355,0.818-0.908,1.175-1.657c0.357-0.746,0.695-1.55,1.018-2.405c0.32-0.854,0.605-1.691,0.854-2.514
				c0.25-0.817,0.481-1.548,0.694-2.188h1.497c-0.215,2.278-0.41,4.488-0.589,6.626c-0.178,2.139-0.268,4.348-0.268,6.628
				c0,2.424,0.09,4.811,0.268,7.162c0.179,2.354,0.375,4.669,0.589,6.948h-1.498v-0.005H118.92z"/>
			<path fill="#53668D" d="M71.619,194.938V172.73h1.33v1.094c0,1.56,0.231,2.729,0.699,3.51c0.469,0.778,1.049,1.17,1.742,1.17
				c0.936,0,2.229-0.573,3.88-1.717l16.599-11.598L77.69,154.528c-0.981-0.59-1.951-0.885-2.91-0.885
				c-0.432,0-0.754,0.122-0.97,0.364c-0.264,0.278-0.474,0.711-0.63,1.3c-0.153,0.59-0.231,1.631-0.231,3.122h-1.33V142.93h1.33
				c0.096,1.284,0.288,2.271,0.573,2.965c0.288,0.694,0.826,1.456,1.616,2.288c0.336,0.313,1.259,0.902,2.768,1.77l32.834,19.398
				c3.187,1.873,5.593,4.326,7.223,7.358c1.627,3.035,2.442,5.956,2.442,8.765c0,2.046-0.408,3.728-1.223,5.044
				c-0.813,1.318-1.748,1.976-2.802,1.976c-1.006,0-1.813-0.477-2.426-1.43c-0.61-0.952-0.915-2.264-0.915-3.928
				c0-1.144,0.263-2.704,0.79-4.68c0.358-1.387,0.538-2.254,0.538-2.602c0-1.041-0.371-2.176-1.113-3.407
				c-0.742-1.23-2.18-2.471-4.311-3.719l-5.712-3.38l-24.824,17.11c-0.741,0.521-1.663,1.354-2.767,2.498
				c-0.838,0.867-1.401,1.578-1.688,2.131c-0.383,0.799-0.718,2.082-1.006,3.85H71.619L71.619,194.938z"/>
			<g id="e_im_Kreis">
				
					<circle display="none" fill="#FFFFFF" stroke="#312783" stroke-width="0.5102" stroke-miterlimit="2.4142" cx="53.034" cy="84.33" r="14.27"/>
				
					<radialGradient id="SVGID_1_" cx="-84.4998" cy="1760.9871" r="84.1137" gradientTransform="matrix(7.011831e-015 -0.2648 0.2648 7.011831e-015 -405.2432 51.9568)" gradientUnits="userSpaceOnUse">
					<stop  offset="0" style="stop-color:#A1DAF8"/>
					<stop  offset="1" style="stop-color:#2C2F87"/>
				</radialGradient>
				<path fill="url(#SVGID_1_)" d="M42.364,85.291c0,0.933,0.221,1.722,0.664,2.366c0.441,0.645,0.99,1.174,1.646,1.585
					c0.655,0.413,1.384,0.718,2.188,0.915c0.805,0.197,1.55,0.296,2.236,0.296h0.297v-2.259c0-1.612-0.051-3.057-0.147-4.33
					c-0.099-1.271-0.163-2.321-0.196-3.146h-0.787c-0.688,0-1.384,0.063-2.089,0.188s-1.336,0.367-1.894,0.727
					c-0.558,0.358-1.017,0.833-1.376,1.425C42.543,83.651,42.364,84.394,42.364,85.291L42.364,85.291z M62.294,95.213
					c0.738-0.93,1.336-1.995,1.802-3.187c0.623-1.596,0.935-3.36,0.935-5.298c0-2.151-0.336-4.249-1.009-6.292
					c-0.672-2.044-1.631-3.872-2.876-5.487l-1.328,0.916c0.559,0.896,0.977,1.918,1.255,3.065c0.277,1.146,0.417,2.275,0.417,3.387
					c0,1.472-0.303,2.78-0.908,3.926c-0.607,1.146-1.369,2.114-2.287,2.903c-0.917,0.789-1.909,1.39-2.974,1.802
					c-1.066,0.412-2.059,0.618-2.977,0.618h-0.886V77.261c0-0.859-0.008-1.542-0.024-2.043c-0.016-0.502-0.08-0.897-0.195-1.184
					s-0.295-0.476-0.539-0.564c-0.248-0.089-0.601-0.134-1.06-0.134c-1.541,0-2.893,0.35-4.056,1.048
					c-1.163,0.7-2.139,1.613-2.925,2.742c-0.787,1.129-1.377,2.429-1.771,3.898c-0.393,1.47-0.589,2.958-0.589,4.463
					c0,2.01,0.313,3.871,0.933,5.593c0.444,1.227,1.002,2.337,1.697,3.334c-2.649-2.79-4.165-6.112-4.165-10.083
					c0-7.796,6.412-14.275,14.276-14.275c7.861,0,14.272,6.413,14.272,14.275C67.313,88.678,65.359,92.58,62.294,95.213
					L62.294,95.213z"/>
			</g>
		</g>
	</g>
</g>
</svg>
