<?xml version="1.0" encoding="UTF-8" standalone="no"?>
<!-- Created with Inkscape (http://www.inkscape.org/) -->

<svg
   xmlns:dc="http://purl.org/dc/elements/1.1/"
   xmlns:cc="http://creativecommons.org/ns#"
   xmlns:rdf="http://www.w3.org/1999/02/22-rdf-syntax-ns#"
   xmlns:svg="http://www.w3.org/2000/svg"
   xmlns="http://www.w3.org/2000/svg"
   xmlns:sodipodi="http://sodipodi.sourceforge.net/DTD/sodipodi-0.dtd"
   xmlns:inkscape="http://www.inkscape.org/namespaces/inkscape"
   width="37.910679"
   height="95.893257"
   id="svg3124"
   version="1.1"
   inkscape:version="0.48.4 r9939"
   sodipodi:docname="Neues Dokument 5">
  <defs
     id="defs3126" />
  <sodipodi:namedview
     id="base"
     pagecolor="#ffffff"
     bordercolor="#666666"
     borderopacity="1.0"
     inkscape:pageopacity="0.0"
     inkscape:pageshadow="2"
     inkscape:zoom="0.35"
     inkscape:cx="18.95534"
     inkscape:cy="47.946627"
     inkscape:document-units="px"
     inkscape:current-layer="layer1"
     showgrid="false"
     fit-margin-top="0"
     fit-margin-left="0"
     fit-margin-right="0"
     fit-margin-bottom="0"
     inkscape:window-width="486"
     inkscape:window-height="415"
     inkscape:window-x="1114"
     inkscape:window-y="457"
     inkscape:window-maximized="0" />
  <metadata
     id="metadata3129">
    <rdf:RDF>
      <cc:Work
         rdf:about="">
        <dc:format>image/svg+xml</dc:format>
        <dc:type
           rdf:resource="http://purl.org/dc/dcmitype/StillImage" />
        <dc:title></dc:title>
      </cc:Work>
    </rdf:RDF>
  </metadata>
  <g
     inkscape:label="Ebene 1"
     inkscape:groupmode="layer"
     id="layer1"
     transform="translate(-331.04466,-484.41555)">
    <path
       d="m 361.66063,508.25862 h -0.7158 c 2.17421,-2.52945 3.49899,-5.80724 3.49899,-9.39587 0,-7.96713 -6.48252,-14.4472 -14.44617,-14.4472 -7.96611,0 -14.44475,6.48007 -14.44475,14.4472 0,3.58863 1.32397,6.86642 3.49961,9.39587 h -0.71743 c -4.02122,0 -7.29042,3.2741 -7.29042,7.29409 v 23.96339 c 0,4.0204 3.27043,7.29164 7.29042,7.29164 h 0.28321 v 26.20718 c 0,4.16057 2.18608,7.29389 5.0896,7.29389 h 12.58014 c 2.90413,0 5.09634,-3.13332 5.09634,-7.29389 v -26.20861 h 0.27892 c 4.01937,0 7.29205,-3.27206 7.29205,-7.29143 v -23.96237 c -0.002,-4.02101 -3.27411,-7.29389 -7.29471,-7.29389 z"
       id="path3073"
       inkscape:connector-curvature="0" />
  </g>
</svg>
