<?xml version="1.0" encoding="UTF-8" standalone="no"?>
<!-- Created with Inkscape (http://www.inkscape.org/) -->

<svg
   xmlns:dc="http://purl.org/dc/elements/1.1/"
   xmlns:cc="http://creativecommons.org/ns#"
   xmlns:rdf="http://www.w3.org/1999/02/22-rdf-syntax-ns#"
   xmlns:svg="http://www.w3.org/2000/svg"
   xmlns="http://www.w3.org/2000/svg"
   xmlns:sodipodi="http://sodipodi.sourceforge.net/DTD/sodipodi-0.dtd"
   xmlns:inkscape="http://www.inkscape.org/namespaces/inkscape"
   width="165.8694"
   height="94.590706"
   id="svg3020"
   version="1.1"
   inkscape:version="0.48.4 r9939"
   sodipodi:docname="Neues Dokument 5">
  <defs
     id="defs3022" />
  <sodipodi:namedview
     id="base"
     pagecolor="#ffffff"
     bordercolor="#666666"
     borderopacity="1.0"
     inkscape:pageopacity="0.0"
     inkscape:pageshadow="2"
     inkscape:zoom="1.979899"
     inkscape:cx="138.80181"
     inkscape:cy="-53.2677"
     inkscape:document-units="px"
     inkscape:current-layer="layer1"
     showgrid="false"
     fit-margin-top="0"
     fit-margin-left="0"
     fit-margin-right="0"
     fit-margin-bottom="0"
     inkscape:window-width="1600"
     inkscape:window-height="876"
     inkscape:window-x="0"
     inkscape:window-y="24"
     inkscape:window-maximized="1" />
  <metadata
     id="metadata3025">
    <rdf:RDF>
      <cc:Work
         rdf:about="">
        <dc:format>image/svg+xml</dc:format>
        <dc:type
           rdf:resource="http://purl.org/dc/dcmitype/StillImage" />
        <dc:title></dc:title>
      </cc:Work>
    </rdf:RDF>
  </metadata>
  <g
     inkscape:label="Ebene 1"
     inkscape:groupmode="layer"
     id="layer1"
     transform="translate(133.45499,-293.24316)">
    <path
       style="color:#000000;fill:#ffffff;fill-opacity:1;fill-rule:nonzero;stroke:#ffffff;stroke-width:2.34800005;stroke-linecap:round;stroke-linejoin:round;stroke-miterlimit:4;stroke-opacity:1;stroke-dasharray:none;marker:none;visibility:visible;display:inline;overflow:visible;enable-background:accumulate"
       d="m -54.939263,294.44014 c -24.89316,0.95736 -51.921977,5.36555 -70.593747,23.125 -8.13787,8.29745 -9.44539,22.97348 -0.90625,31.40625 13.62886,15.52266 35.106717,20.37996 54.672867,23.24146 9.02319,-1.94245 -9.20889,9.34559 -15.1193,13.388 25.91757,1.45902 44.55291,3.24678 68.165176,-8.56696 6.97867,-3.96382 11.8277603,-10.9519 20.1250003,-12.3125 C 14.642043,359.7873 29.620343,350.49375 31.248243,335.15889 31.624843,320.50724 18.247543,310.36441 6.0608433,305.20475 -12.919027,296.5164 -34.212263,294.05773 -54.939263,294.44014 z"
       id="path3803"
       inkscape:connector-curvature="0"
       sodipodi:nodetypes="cccccccccc" />
    <path
       style="color:#000000;fill:#ffffff;fill-opacity:1;fill-rule:nonzero;stroke:#000000;stroke-width:2.34800005;stroke-linejoin:round;stroke-miterlimit:4;stroke-opacity:1;stroke-dasharray:none;marker:none;visibility:visible;display:inline;overflow:visible;enable-background:accumulate"
       d="m -50.584353,298.35143 c -42.98603,0 -77.812497,15.96314 -77.812497,35.625 0,18.38371 30.465727,33.4857 69.562497,35.375 -2.62317,4.35515 -7.94294,8.04096 -23.70536,15.0625 45.82995,-0.16898 64.195656,-9.22619 73.0491063,-20.21875 22.0610497,-6.28438 36.7499497,-17.45586 36.7499497,-30.21875 0,-19.66186 -34.8576697,-35.625 -77.843696,-35.625 z"
       id="path2996-7"
       inkscape:connector-curvature="0"
       sodipodi:nodetypes="sscccss" />
  </g>
</svg>
