<?xml version="1.0" encoding="UTF-8" standalone="no"?>
<!-- Created with Inkscape (http://www.inkscape.org/) -->

<svg
   xmlns:dc="http://purl.org/dc/elements/1.1/"
   xmlns:cc="http://creativecommons.org/ns#"
   xmlns:rdf="http://www.w3.org/1999/02/22-rdf-syntax-ns#"
   xmlns:svg="http://www.w3.org/2000/svg"
   xmlns="http://www.w3.org/2000/svg"
   xmlns:sodipodi="http://sodipodi.sourceforge.net/DTD/sodipodi-0.dtd"
   xmlns:inkscape="http://www.inkscape.org/namespaces/inkscape"
   id="svg2"
   version="1.1"
   inkscape:version="0.91 r13725"
   width="750"
   height="500"
   viewBox="0 0 750 500"
   sodipodi:docname="bubble.svg">
  <metadata
     id="metadata8">
    <rdf:RDF>
      <cc:Work
         rdf:about="">
        <dc:format>image/svg+xml</dc:format>
        <dc:type
           rdf:resource="http://purl.org/dc/dcmitype/StillImage" />
        <dc:title></dc:title>
      </cc:Work>
    </rdf:RDF>
  </metadata>
  <defs
     id="defs6" />
  <sodipodi:namedview
     pagecolor="#ffffff"
     bordercolor="#666666"
     borderopacity="1"
     objecttolerance="10"
     gridtolerance="10"
     guidetolerance="10"
     inkscape:pageopacity="0"
     inkscape:pageshadow="2"
     inkscape:window-width="1280"
     inkscape:window-height="737"
     id="namedview4"
     showgrid="false"
     inkscape:zoom="1.888"
     inkscape:cx="-20.875728"
     inkscape:cy="75.94425"
     inkscape:window-x="-8"
     inkscape:window-y="-8"
     inkscape:window-maximized="1"
     inkscape:current-layer="svg2" />
  <path
     style="fill:#000000"
     d="m 345.25424,451.93409 c -36.04078,-5.32348 -68.38117,-25.63053 -84.21857,-52.88219 -5.87987,-10.11758 -5.30372,-9.69106 -9.90601,-7.33315 -1.85648,0.95115 -8.40256,2.98268 -14.54685,4.5145 l -11.17142,2.78516 -18.20358,5.4e-4 c -10.01196,2.9e-4 -21.65236,-0.58296 -25.86753,-1.29612 l -7.66397,-1.29667 -8.35255,-5.71838 c -4.5939,-3.1451 -8.79342,-5.71838 -9.33227,-5.71838 -0.53885,0 -2.27686,-1.125 -3.86225,-2.5 -1.58539,-1.375 -3.49959,-2.56414 -4.25376,-2.64252 -0.75418,-0.0784 -2.91462,-0.32568 -4.80097,-0.54952 -13.22295,-1.56909 -32.77205,-29.10485 -35.35818,-49.80352 l -0.86512,-6.92422 -2.04849,-0.55123 c -1.12666,-0.30319 -7.110981,-1.80015 -13.298481,-3.32659 -21.03213,-5.18858 -44.084786,-18.12346 -56.391597,-31.64145 -6.759026,-7.42421 -16.733405,-21.01054 -16.733405,-22.79295 0,-0.47805 -1.070405,-3.18079 -2.378679,-6.00609 C 4.0126307,232.36259 7.0554627,206.73922 25.504459,178.22 l 5.665228,-8.75755 -2.15352,-6.83175 C 17.407934,125.80516 40.375127,86.221662 81.425549,72.304188 l 10.0316,-3.40105 1.10214,-2.894365 C 97.663939,52.603359 103.1094,44.43932 112.28775,36.431113 123.49764,26.650361 135.54184,20.930044 155.03814,16.127079 l 11.03391,-2.718231 11.46609,0.682212 c 19.04114,1.132914 35.89812,6.329628 49.8879,15.379571 l 8.63801,5.587901 8.96603,-5.972063 c 13.11334,-8.734483 27.79296,-13.569386 45.26968,-14.910085 l 10.04553,-0.770626 11.20447,2.648572 c 20.47779,4.840648 32.79227,11.374026 44.8447,23.792111 l 4.89022,5.038583 7.69056,-4.300802 c 41.20865,-23.045195 97.36635,-14.932881 128.23501,18.524311 l 5.706,6.184493 3.669,-1.876262 c 2.01794,-1.031944 5.63774,-2.290212 8.04399,-2.796151 2.40625,-0.505939 4.9375,-1.339381 5.625,-1.852095 1.25634,-0.936931 5.92127,-1.874545 17.5,-3.517351 8.26444,-1.17257 32.28966,-1.133571 39.375,0.06391 19.16805,3.239574 27.49474,5.730093 40.50315,12.114519 34.34206,16.854824 54.1178,44.319064 56.46645,78.419724 l 0.86164,12.51041 7.4391,1.38344 c 23.30406,4.33385 45.75871,22.78578 52.54897,43.18171 1.408,4.22923 3.03716,8.66625 3.62035,9.86005 1.38783,2.84092 1.36298,12.8907 -0.0388,15.65893 -0.60447,1.1938 -2.10646,5.26429 -3.33775,9.04554 -3.72765,11.4476 -13.578,24.08506 -24.60713,31.56963 l -4.65963,3.1621 4.66429,6.07164 c 30.83637,40.14047 -3.98875,95.44663 -60.10065,95.44663 l -10.74548,0 -4.11975,5.35514 c -34.37563,44.68378 -117.54468,61.91695 -171.87985,35.61461 l -2.76007,-1.33609 -7.34033,6.79584 c -27.78469,25.72373 -68.50268,37.65675 -108.38951,31.76519 z m 41.875,-7.67342 c 32.20664,-5.46041 60.52221,-23.04883 75.00851,-46.59208 3.90629,-6.34851 6.25895,-7.57252 9.99149,-5.19819 l 1.875,1.19271 -1.32251,2.22565 c -0.72739,1.2241 -2.57387,4.29048 -4.10328,6.81416 -3.27735,5.40793 -3.70814,5.03117 11.34075,9.91879 43.95839,14.27695 92.18814,7.30991 129.08504,-18.64701 8.89544,-6.25794 19.375,-16.642 19.375,-19.19846 l 0,-2.17355 -4.44336,-0.83359 -4.44338,-0.83358 0.38088,-3.28556 0.38086,-3.28556 2.5,0.12237 c 1.375,0.0674 7.28125,0.72849 13.125,1.46927 58.59537,7.42783 100.22505,-46.16147 66.63642,-85.78015 l -3.551,-4.18849 -8.10521,2.74177 c -4.45786,1.50798 -11.90208,3.0465 -16.54271,3.41895 l -8.4375,0.67717 0,-3.14717 0,-3.14717 2.8125,-0.75371 c 1.54688,-0.41455 4.5,-0.76959 6.5625,-0.78899 3.51681,-0.0331 11.8417,-2.38695 17.5,-4.94818 1.375,-0.62238 4.7284,-2.13398 7.45201,-3.35911 2.72362,-1.22511 8.68768,-5.90377 13.25349,-10.39704 l 8.30149,-8.16955 4.17694,-8.75 4.17693,-8.75 0.3336,-8.96627 0.3336,-8.96629 -3.18781,-7.84524 c -4.38797,-10.79887 -9.1047,-17.25935 -16.93282,-23.19283 -11.38549,-8.62982 -26.13959,-15.40434 -33.54886,-15.40434 l -4.70534,0 -0.82076,4.375 -0.82076,4.375 -2.75585,-0.0191 c -1.51572,-0.01 -3.40644,-0.43312 -4.2016,-0.93911 l -1.44572,-0.91996 1.73941,-4.99839 c 1.06096,-3.04882 1.74675,-10.22931 1.75822,-18.40959 l 0.0188,-13.41118 -3.24091,-9.71381 C 651.05719,91.866677 617.62905,68.161203 571.39293,61.871783 l -16.3613,-2.225601 -13.0137,2.132677 c -23.01276,3.77132 -42.4898,10.940709 -54.09251,19.911153 l -4.82882,3.733324 -2.04618,-1.288444 c -4.16133,-2.620314 -2.89774,-5.092995 5.38558,-10.538972 9.97197,-6.556183 9.98899,-5.521129 -0.24426,-14.846308 l -8.4375,-7.688777 -12.62077,-6.137574 C 437.0182,31.250613 405.39851,31.201128 378.17903,44.787177 l -11.67479,5.82723 0.22256,3.125 c 0.12238,1.71875 0.60985,4.671875 1.08322,6.5625 l 0.86066,3.4375 -3.5964,0 -3.59641,0 -4.33281,-8.276663 C 338.61528,20.06652 276.11558,10.056756 245.90778,37.647318 l -3.96508,3.621541 5.09327,5.786262 c 6.00282,6.819557 6.13386,7.513762 1.79173,9.492162 l -3.30152,1.504279 -3.20091,-4.343578 c -4.43788,-6.022107 -15.75043,-16.698288 -19.88582,-18.767166 -1.88936,-0.945222 -4.27896,-2.379641 -5.31021,-3.187599 -3.91981,-3.071065 -22.0408,-8.249197 -32.98005,-9.424156 -43.66943,-4.69043 -80.06779,19.219943 -86.348241,56.722844 l -0.78499,4.6875 -3.69337,0 -3.69335,0 0,-2.5 c 0,-9.521285 -34.793757,11.336614 -44.83108,26.875003 -15.791342,24.44594 -15.208044,47.75635 1.750963,69.97387 l 4.56124,5.97555 -2.686239,2.65028 -2.686241,2.65029 -4.858645,-5.625 -4.858645,-5.625 -2.467274,2.5 c -26.3929263,26.743 -20.129952,76.07185 13.619453,107.27044 l 8.361531,7.72956 12.984967,6.46879 c 26.50813,13.20568 37.836521,14.29117 39.153341,3.75166 1.73431,-13.88091 5.67524,-20.95294 9.89664,-17.75959 l 2.31502,1.75123 -2.30635,6.64395 -2.30635,6.64396 -0.009,14.375 -0.009,14.375 2.29013,5.625 c 4.70968,11.56791 6.43171,14.57991 12.98417,22.7106 6.19029,7.68127 11.11476,11.0394 16.18853,11.0394 3.16048,0 17.23648,7.57573 22.01477,11.84839 2.60018,2.32503 7.66268,5.24456 11.25,6.48785 l 6.5224,2.26051 21.25,-0.13534 21.25,-0.13534 11.25,-4.05242 c 12.03061,-4.33361 13.6103,-5.53121 11.78778,-8.93663 -0.63961,-1.19496 -1.16286,-4.39405 -1.16286,-7.10906 l 0,-4.93639 2.71692,-0.71048 c 3.7522,-0.98123 4.78308,-0.0481 4.78308,4.32957 0,43.7687 70.01264,84.06912 128.75,74.11062 z"
     id="path4176"
     inkscape:connector-curvature="0" />
  <path
     style="fill:#000000"
     d="m 19.066455,475.14679 c -0.925364,-1.32114 -1.556704,-4.33552 -1.556704,-7.43261 l 0,-5.21011 2.25,-0.68232 c 1.2375,-0.37527 3.244744,-1.59236 4.460542,-2.70463 l 2.210543,-2.02231 3.458683,0.56127 c 1.902276,0.30869 4.620032,1.32221 6.039458,2.25225 l 2.580774,1.69099 -0.01531,4.63499 c -0.02291,6.93419 -5.177499,11.13499 -13.663174,11.13499 l -4.208105,0 -1.556704,-2.22251 z m 12.087912,-2.86687 c 3.232255,-1.99764 5.355384,-4.67212 5.355384,-6.7461 0,-0.53183 -1.631803,-1.92976 -3.626229,-3.1065 l -3.626229,-2.13952 -1.702512,1.54075 c -0.936381,0.84741 -2.306645,1.54075 -3.04503,1.54075 -1.817656,0 -5,2.98515 -5,4.69017 0,5.66236 5.869478,7.78968 11.644616,4.22045 z m 25.555384,-9.11062 c -2.517375,-2.51737 -0.834127,-17.8 1.960515,-17.8 0.461717,0 0.839485,-0.675 0.839485,-1.5 l 0,-1.5 4.75,0.0136 c 9.079401,0.0261 12.25,3.42914 12.25,13.14806 l 0,4.48966 -2.314451,2.17432 -2.314451,2.17431 -6.985549,0 c -4.099871,0 -7.48126,-0.49571 -8.185549,-1.2 z m 16.145862,-5.05326 2.049504,-2.75325 -2.196491,-4.52104 c -2.051567,-4.22275 -5.062667,-6.47245 -8.663008,-6.47245 -3.226368,0 -7.317638,13.8849 -4.825571,16.37696 0.390662,0.39067 3.157343,0.57817 6.148179,0.41667 l 5.437883,-0.29363 2.049504,-2.75326 z m 20.404138,-8.31872 -2.75,-1.49189 0,-8.26512 0,-8.26511 3.932283,-3.83978 3.93229,-3.83977 6.150096,0.6958 c 7.53029,0.85196 9.68363,1.84955 13.3144,6.16827 l 2.82907,3.36512 0.0625,6.59704 0.0625,6.59705 -3.16572,1.92518 -3.16576,1.92519 -9.22583,-0.04 c -6.216386,-0.027 -10.122876,-0.52669 -11.975829,-1.53194 z m 22.096359,-3.00126 3.15364,-1.57324 0,-2.97642 c 0,-3.73298 -1.99544,-7.61246 -5.66073,-11.00543 l -2.83927,-2.62833 -4.95285,-0.5217 -4.95285,-0.52169 -3.756136,4.15002 -3.756137,4.15003 -0.0257,4 c -0.05135,7.99179 12.815743,11.90259 22.790033,6.92676 z"
     id="path4198"
     inkscape:connector-curvature="0" />
</svg>
